/* XPM */
static char * pinup_xpm[] = {
"16 16 5 1",
" 	c None",
".	c #000000",
"+	c #00BFFF",
"@	c #C0C0C0",
"#	c #808080",
"                ",
"                ",
"      ...       ",
"      .+.     ..",
"      .+..   .+.",
"      .+.+....+.",
"    @#.+.++++.+.",
".......+.++++.+.",
"    @#.+.+###.+.",
"      .+.#....+.",
"      .+..   .#.",
"      .#.     ..",
"      ...       ",
"                ",
"                ",
"                "};
