/* XPM */
static const char *yac[] = {
"    40    30       87            2",
/* colors */
".. c #000000",
".# c #330000",
".a c #660000",
".b c #003300",
".c c #333300",
".d c #663300",
".e c #993300",
".f c #666600",
".g c #996600",
".h c #cc6600",
".i c #999900",
".j c #cc9900",
".k c #000033",
".l c #330033",
".m c #003333",
".n c #333333",
".o c #663333",
".p c #993333",
".q c #336633",
".r c #666633",
".s c #996633",
".t c #cc6633",
".u c #ff6633",
".v c #009933",
".w c #cc9933",
".x c #ff9933",
".y c #ffcc33",
".z c #000066",
".A c #330066",
".B c #003366",
".C c #333366",
".D c #663366",
".E c #993366",
".F c #336666",
".G c #666666",
".H c #996666",
".I c #cc6666",
".J c #669966",
".K c #999966",
".L c #cc9966",
".M c #ff9966",
".N c #cccc66",
".O c #ffcc66",
".P c #000099",
".Q c #330099",
".R c #003399",
".S c #333399",
".T c #663399",
".U c #336699",
".V c #666699",
".W c #996699",
".X c #669999",
".Y c #999999",
".Z c #ff9999",
".0 c #99cc99",
".1 c #cccc99",
".2 c #ffcc99",
".3 c #ffff99",
".4 c #0000cc",
".5 c #3300cc",
".6 c #0033cc",
".7 c #3333cc",
".8 c #6633cc",
".9 c #3366cc",
"#. c #6666cc",
"## c #9966cc",
"#a c #6699cc",
"#b c #9999cc",
"#c c #99cccc",
"#d c #cccccc",
"#e c #ffcccc",
"#f c #ffffcc",
"#g c #0000ff",
"#h c #3300ff",
"#i c #0033ff",
"#j c #3333ff",
"#k c #6633ff",
"#l c #3366ff",
"#m c #6666ff",
"#n c #9966ff",
"#o c #6699ff",
"#p c #9999ff",
"#q c #cc99ff",
"#r c #99ccff",
"#s c #ccccff",
"#t c #ffccff",
"#u c #ffffff",
/* pixels */
".....................................k.z.z.z.z.k................................",
"...............................k.C.P.P.S.7.7.Q.S.S.z............................",
".............................k.P.S.4.4.4.4.7.4.7.7.P.S..........................",
"...........................C.S.S.S.7.7.7#j.7#j#.#m#..S.P.k......................",
".........................z.S.S.V.8.X#..Y#..V.V#.#d#s#b.S.S......................",
".......................k.P.4.7#i#g.5#g#.#g...7#g#.#m#m.4.P.C....................",
".......................S.7#g#.#g.7#g#g.V#g#g.8#g#j#j#j.7.P.C....................",
".......................S#.#j#h#g#.#g#g#.#g#g#.#g#g.7#g.T.S.C.k..................",
".....................k.S#..V#.#..Y#j#j#.#g#g.Y.7.7.Y.U.G.S.C.l..................",
".....................z.7.4#b#m#..1#b#b.1.Y.Y.N#.#..K.7.S.P.C.k..................",
"...................#.o.p.r..#g#g#m.S.7#p#g#g.V.4.P.C.P.P.D.t.t.t.s.r.r..........",
".n.n.n.n.n.G.G.s.o.s.L.L.I.o.n.r.s.o.n#s#h.7.s.p...#.k.k.d.t.w.x.x.M.t.c.#......",
".n.n.C.G.D.C.q.s.x.O.M.L.L.K.s.d.c.l#b#r#j.H.s.s.d.......#.t.x.w.w.t.c.n.k.n.n..",
".G.G.G.o.G.o.r.D.t.w.L.O.M.N.n.#.#.m#m#p#j.w.t.s.s.#.b...n.x.w.x.u.c.n.o.n.C.o.o",
".G.r.o.o.F.n.D.C.H.x.L.w.w.w.#...l#b#d.1.L.s.t.t.s.g...c.#.x.M.x.w.o.G.C.C.n.n.F",
".n.q.G.n.n.F.n.D.C.w.w.t.x.n.b...k#g#g#..s.t.t.w.d.g.....b.x.M.x.r.c...o.o.G.C.n",
".n.F.C.D.q.q.r.G.r.r.w.x.t...n.#.k#g#g#..s.s.x.t.c.t.b...#.t.M.M.o.c.#.t.G.r.G.r",
".C.D.n.n.r.n.q.q.G.r.w.x.c.d.d.#.b#j#i.s.t.t.w.c.n.s.o...n.o.t.M.o.n.c.c.G.G.G.r",
".C.q.D.n.n.n.C.C.F.C.H.w.d.d.o.7.T.8.7.t.t.s.t.n.d.g.t.n.G.G.r.t.d.c.c.G.G.G.G.G",
".C.n.C.n.C.n.n.r.G.D.s.x.d.n.F.C.S.7.4.s.t.t.t.w.s.h.h.o.G.G.G.G.G.F.G.G.G.G.G.F",
".C.D.G.n.n.n.q.r.G.G.C.r.r.q.F.F.G.D.C.s.w.h.o.r.r.s.g.r.G.G.G.G.G.G.r.G.G.D.G.G",
".C.C.o.C.C.o.r.r.G.G.D.G.G.G.r.D.C.G.G.H.t.s.o.o.o.D.o.G.G.F.G.G.G.G.G.G.G.G.G.G",
".C.q.r.F.F.r.r.r.q.F.F.F.F.C.G.G.G.V.T.V.C.C.F.F.q.D.G.G.G.G.G.G.G.G.G.F.G.D.G.C",
".C.q.r.G.F.q.q.q.q.C.C.F.G.G.G.V.K.G.V.F.S.G.T.G.G.G.G.q.F.q.G.G.G.G.G.G.o.G.G.G",
".C.q.r.G.F.q.q.F.F.C.C.F.G.V.U.V.V.V.S.V.V.V.V.V.V.C.G.F.q.o.o.n.F.G.D.G.G.G.G.G",
".C.q.r.G.F.q.q.q.q.n.n.F.V.Y.7.V#..V.S.W#..V#..T.T.D.G.F.q.o.r.q.q.q.r.G.G.G.G.G",
".C.q.r.G.F.q.q.q.q.n.n.F.T.V.W.8#.###..Y.T.V.V.V.C.C.F.F.F.D.G.F.D.C.G.G.G.G.o.G",
".C.q.r.r.G.r.r.r.G.G.G.G.V#..9.G.G#.#..Y.T#..V.r.G.G.G.G.G.D.D.F.C.n.G.G.G.G.G.G",
".C.n.D.C.G.r.G.G.G.G.n.o.V#.#..T.G#p#d.2.K.G.r.r.G.G.G.F.G.G.F.F.n.D.G.G.G.G.G.G",
".C.F.D.D.G.r.G.G.r.o.o.o.G#.#..D.D#p#r#d.G.F.r.F.G.q.G.G.D.C.G.G.o.V.H.J.G.G.G.G"
};
