/* XPM */
static const char * recsel_xpm[] = {
"24 24 3 1",
" 	c None",
".	c Black",
"X	c #0066b3",
"                        ",
"                        ",
"   .        X           ",
"   .        X           ",
"   .    X  X            ",
"   ....  X X            ",
"   .      X             ",
"   .                    ",
"   .      .             ",
"   .      .        X    ",
"   .      .        X    ",
"   .      .    X  X     ",
"   .      ....  X X     ",
"   .      .      X      ",
"   .      .             ",
"   .      .             ",
"   .      .        X    ",
"   .      .        X    ",
"   .      .    X  X     ",
"   .      ....  X X     ",
"   .             X      ",
"   .                    ",
"                        ",
"                        "};
