/* XPM */
static const char * sel_xpm[] = {
"24 24 2 1",
" 	c None",
".	c Black",
"                        ",
"                        ",
"                        ",
"   ..................   ",
"   .                .   ",
"   .                .   ",
"   .                .   ",
"   .             .  .   ",
"   .            ..  .   ",
"   .           ...  .   ",
"   .  .       ....  .   ",
"   .  ..     ....   .   ",
"   .  ...   ....    .   ",
"   .  .... ....     .   ",
"   .   .......      .   ",
"   .    .....       .   ",
"   .     ...        .   ",
"   .                .   ",
"   .                .   ",
"   .                .   ",
"   ..................   ",
"                        ",
"                        ",
"                        "};
