# Blender 4.5.14 LTS
# www.blender.org
mtllib PV_kompakt_hoch.mtl
o Cube
v -0.565000 -0.880004 0.015000
v -0.565000 -0.880004 -0.015000
v -0.565000 0.880004 0.015000
v -0.565000 0.880004 -0.015000
v 0.565000 -0.880004 0.015000
v 0.565000 -0.880004 -0.015000
v 0.565000 0.880004 0.015000
v 0.565000 0.880004 -0.015000
vn -0.0000 -0.0000 1.0000
vn -0.0000 1.0000 -0.0000
vn 1.0000 -0.0000 -0.0000
vn -0.0000 -0.0000 -1.0000
vn -1.0000 -0.0000 -0.0000
vn -0.0000 -1.0000 -0.0000
vt 0.004986 0.001724
vt 1.001011 0.001724
vt 1.001011 0.997748
vt 0.004986 0.997748
vt 0.375000 0.750000
vt 0.625000 0.750000
vt 0.625000 1.000000
vt 0.375000 1.000000
vt 0.375000 0.000000
vt 0.625000 0.000000
vt 0.625000 0.250000
vt 0.375000 0.250000
vt 0.003090 -0.003627
vt 1.003472 -0.003627
vt 1.003472 0.996756
vt 0.003090 0.996756
vt 0.375000 0.500000
vt 0.625000 0.500000
s 0
usemtl PV_Oberfläche_Bild
f 1/1/1 5/2/1 7/3/1 3/4/1
f 4/5/2 3/6/2 7/7/2 8/8/2
f 8/9/3 7/10/3 5/11/3 6/12/3
f 6/13/4 2/14/4 4/15/4 8/16/4
f 2/17/5 1/18/5 3/6/5 4/5/5
f 6/12/6 5/11/6 1/18/6 2/17/6
o Würfel
v 0.567000 0.880004 -0.020000
v 0.567000 0.880004 0.020000
v 0.567000 -0.880004 -0.020000
v 0.567000 -0.880004 0.020000
v 0.537000 0.880004 -0.020000
v 0.537000 0.880004 0.020000
v 0.537000 -0.880004 -0.020000
v 0.537000 -0.880004 0.020000
vn 1.0000 -0.0000 -0.0000
vn -0.0000 -1.0000 -0.0000
vn -1.0000 -0.0000 -0.0000
vn -0.0000 1.0000 -0.0000
vn -0.0000 -0.0000 -1.0000
vn -0.0000 -0.0000 1.0000
vt 0.375000 0.000000
vt 0.625000 0.000000
vt 0.625000 0.250000
vt 0.375000 0.250000
vt 0.625000 0.500000
vt 0.375000 0.500000
vt 0.625000 0.750000
vt 0.375000 0.750000
vt 0.625000 1.000000
vt 0.375000 1.000000
vt 0.125000 0.500000
vt 0.125000 0.750000
vt 0.875000 0.500000
vt 0.875000 0.750000
s 0
usemtl Aluminium_Rahmen
f 9/19/7 10/20/7 12/21/7 11/22/7
f 11/22/8 12/21/8 16/23/8 15/24/8
f 15/24/9 16/23/9 14/25/9 13/26/9
f 13/26/10 14/25/10 10/27/10 9/28/10
f 11/29/11 15/24/11 13/26/11 9/30/11
f 16/23/12 12/31/12 10/32/12 14/25/12
o Würfel.001
v -0.537000 0.880000 -0.020000
v -0.537000 0.880000 0.020000
v -0.537000 -0.880000 -0.020000
v -0.537000 -0.880000 0.020000
v -0.567000 0.880000 -0.020000
v -0.567000 0.880000 0.020000
v -0.567000 -0.880000 -0.020000
v -0.567000 -0.880000 0.020000
vn 1.0000 -0.0000 -0.0000
vn -0.0000 -1.0000 -0.0000
vn -1.0000 -0.0000 -0.0000
vn -0.0000 1.0000 -0.0000
vn -0.0000 -0.0000 -1.0000
vn -0.0000 -0.0000 1.0000
vt 0.375000 0.000000
vt 0.625000 0.000000
vt 0.625000 0.250000
vt 0.375000 0.250000
vt 0.625000 0.500000
vt 0.375000 0.500000
vt 0.625000 0.750000
vt 0.375000 0.750000
vt 0.625000 1.000000
vt 0.375000 1.000000
vt 0.125000 0.500000
vt 0.125000 0.750000
vt 0.875000 0.500000
vt 0.875000 0.750000
s 0
usemtl Aluminium_Rahmen
f 17/33/13 18/34/13 20/35/13 19/36/13
f 19/36/14 20/35/14 24/37/14 23/38/14
f 23/38/15 24/37/15 22/39/15 21/40/15
f 21/40/16 22/39/16 18/41/16 17/42/16
f 19/43/17 23/38/17 21/40/17 17/44/17
f 24/37/18 20/45/18 18/46/18 22/39/18
o Würfel.002
v 0.567000 -0.849651 -0.020000
v 0.567000 -0.849651 0.020000
v 0.567000 -0.880349 -0.020000
v 0.567000 -0.880349 0.020000
v -0.567000 -0.849651 -0.020000
v -0.567000 -0.849651 0.020000
v -0.567000 -0.880349 -0.020000
v -0.567000 -0.880349 0.020000
vn 1.0000 -0.0000 -0.0000
vn -0.0000 -1.0000 -0.0000
vn -1.0000 -0.0000 -0.0000
vn -0.0000 1.0000 -0.0000
vn -0.0000 -0.0000 -1.0000
vn -0.0000 -0.0000 1.0000
vt 0.375000 0.000000
vt 0.625000 0.000000
vt 0.625000 0.250000
vt 0.375000 0.250000
vt 0.625000 0.500000
vt 0.375000 0.500000
vt 0.625000 0.750000
vt 0.375000 0.750000
vt 0.625000 1.000000
vt 0.375000 1.000000
vt 0.125000 0.500000
vt 0.125000 0.750000
vt 0.875000 0.500000
vt 0.875000 0.750000
s 0
usemtl Aluminium_Rahmen
f 25/47/19 26/48/19 28/49/19 27/50/19
f 27/50/20 28/49/20 32/51/20 31/52/20
f 31/52/21 32/51/21 30/53/21 29/54/21
f 29/54/22 30/53/22 26/55/22 25/56/22
f 27/57/23 31/52/23 29/54/23 25/58/23
f 32/51/24 28/59/24 26/60/24 30/53/24
o Würfel.003
v 0.567000 0.880349 -0.020000
v 0.567000 0.880349 0.020000
v 0.567000 0.849651 -0.020000
v 0.567000 0.849651 0.020000
v -0.567000 0.880349 -0.020000
v -0.567000 0.880349 0.020000
v -0.567000 0.849651 -0.020000
v -0.567000 0.849651 0.020000
vn 1.0000 -0.0000 -0.0000
vn -0.0000 -1.0000 -0.0000
vn -1.0000 -0.0000 -0.0000
vn -0.0000 1.0000 -0.0000
vn -0.0000 -0.0000 -1.0000
vn -0.0000 -0.0000 1.0000
vt 0.375000 0.000000
vt 0.625000 0.000000
vt 0.625000 0.250000
vt 0.375000 0.250000
vt 0.625000 0.500000
vt 0.375000 0.500000
vt 0.625000 0.750000
vt 0.375000 0.750000
vt 0.625000 1.000000
vt 0.375000 1.000000
vt 0.125000 0.500000
vt 0.125000 0.750000
vt 0.875000 0.500000
vt 0.875000 0.750000
s 0
usemtl Aluminium_Rahmen.001
f 33/61/25 34/62/25 36/63/25 35/64/25
f 35/64/26 36/63/26 40/65/26 39/66/26
f 39/66/27 40/65/27 38/67/27 37/68/27
f 37/68/28 38/67/28 34/69/28 33/70/28
f 35/71/29 39/66/29 37/68/29 33/72/29
f 40/65/30 36/73/30 34/74/30 38/67/30
o Würfel.004
v 0.550000 0.880004 -0.017500
v 0.550000 0.880004 -0.012500
v 0.550000 -0.880004 -0.017500
v 0.550000 -0.880004 -0.012500
v -0.550000 0.880004 -0.017500
v -0.550000 0.880004 -0.012500
v -0.550000 -0.880004 -0.017500
v -0.550000 -0.880004 -0.012500
vn 1.0000 -0.0000 -0.0000
vn -0.0000 -1.0000 -0.0000
vn -1.0000 -0.0000 -0.0000
vn -0.0000 1.0000 -0.0000
vn -0.0000 -0.0000 -1.0000
vn -0.0000 -0.0000 1.0000
vt 0.375000 0.000000
vt 0.625000 0.000000
vt 0.625000 0.250000
vt 0.375000 0.250000
vt 0.625000 0.500000
vt 0.375000 0.500000
vt 0.625000 0.750000
vt 0.375000 0.750000
vt 0.625000 1.000000
vt 0.375000 1.000000
vt 0.125000 0.500000
vt 0.125000 0.750000
vt 0.875000 0.500000
vt 0.875000 0.750000
s 0
usemtl PV_Rückseite
f 41/75/31 42/76/31 44/77/31 43/78/31
f 43/78/32 44/77/32 48/79/32 47/80/32
f 47/80/33 48/79/33 46/81/33 45/82/33
f 45/82/34 46/81/34 42/83/34 41/84/34
f 43/85/35 47/80/35 45/82/35 41/86/35
f 48/79/36 44/87/36 42/88/36 46/81/36
