/* XPM */
static const char * one_leftarrow_xpm[] = {
"22 22 61 1",
" 	c None",
".	c #323232",
"+	c #010101",
"@	c #4A4A4A",
"#	c #040404",
"$	c #979797",
"%	c #7B7B7B",
"&	c #939393",
"*	c #EEEEEE",
"=	c #686868",
"-	c #030303",
";	c #9C9C9C",
">	c #FFFFFF",
",	c #B1B1B1",
"'	c #5E5E5E",
")	c #060606",
"!	c #C1C1C1",
"~	c #626262",
"{	c #000000",
"]	c #989898",
"^	c #A1A1A1",
"/	c #A5A5A5",
"(	c #909090",
"_	c #868686",
":	c #616161",
"<	c #959595",
"[	c #919191",
"}	c #848484",
"|	c #606060",
"1	c #0B0B0B",
"2	c #545454",
"3	c #727272",
"4	c #A2A2A2",
"5	c #969696",
"6	c #838383",
"7	c #5F5F5F",
"8	c #101010",
"9	c #434343",
"0	c #6B6B6B",
"a	c #858585",
"b	c #8E8E8E",
"c	c #373737",
"d	c #696969",
"e	c #8D8D8D",
"f	c #B5B5B5",
"g	c #111111",
"h	c #393939",
"i	c #898989",
"j	c #B0B0B0",
"k	c #191919",
"l	c #3A3A3A",
"m	c #646464",
"n	c #535353",
"o	c #050505",
"p	c #353535",
"q	c #585858",
"r	c #4C4C4C",
"s	c #0D0D0D",
"t	c #3E3E3E",
"u	c #020202",
"v	c #0A0A0A",
"                      ",
"                      ",
"              .+      ",
"             .@#      ",
"            .$%#      ",
"           .&*=-      ",
"          .;>,')      ",
"         .;>!;~{      ",
"        .]>!^&~{      ",
"       ./>!/(_:{      ",
"      .<*!^[}}|{      ",
"      123}45667{      ",
"       890a45b7{      ",
"        8cdef5'{      ",
"         gh0ij7k      ",
"          8lm0no      ",
"           8pqr-      ",
"            sht-      ",
"             1.u      ",
"              v{      ",
"                      ",
"                      "};
