/* XPM */
static const char * logo[] = {
"30 28 234 2",
"  	c None",
". 	c #7E7E7E",
"+ 	c #202020",
"@ 	c #3B3B3B",
"# 	c #717171",
"$ 	c #606060",
"% 	c #000B14",
"& 	c #004274",
"* 	c #003E6D",
"= 	c #00233E",
"- 	c #00111E",
"; 	c #0C1013",
"> 	c #3D3D3D",
", 	c #757575",
"' 	c #484848",
") 	c #001422",
"! 	c #005696",
"~ 	c #006EC1",
"{ 	c #006DBF",
"] 	c #0069B9",
"^ 	c #0061AB",
"/ 	c #00508C",
"( 	c #003D6B",
"_ 	c #002542",
": 	c #000E18",
"< 	c #181B1D",
"[ 	c #3C3C3C",
"} 	c #6E6E6E",
"| 	c #333333",
"1 	c #001D32",
"2 	c #005EA5",
"3 	c #0066B3",
"4 	c #0066B2",
"5 	c #0067B5",
"6 	c #0069B8",
"7 	c #006CBC",
"8 	c #0062AD",
"9 	c #00508D",
"0 	c #003B66",
"a 	c #002744",
"b 	c #001524",
"c 	c #08090A",
"d 	c #464646",
"e 	c #1C1C1C",
"f 	c #002948",
"g 	c #0065B1",
"h 	c #006ABA",
"i 	c #006DC0",
"j 	c #0070C4",
"k 	c #003761",
"l 	c #050606",
"m 	c #0E0F10",
"n 	c #00345B",
"o 	c #0068B5",
"p 	c #006CBE",
"q 	c #003D6A",
"r 	c #131619",
"s 	c #474747",
"t 	c #03070B",
"u 	c #004070",
"v 	c #006BBE",
"w 	c #0068B6",
"x 	c #003B68",
"y 	c #121314",
"z 	c #09090A",
"A 	c #0D0E0E",
"B 	c #646464",
"C 	c #004F8B",
"D 	c #0067B6",
"E 	c #0068B7",
"F 	c #006ABB",
"G 	c #00355D",
"H 	c #131414",
"I 	c #101314",
"J 	c #003A66",
"K 	c #031522",
"L 	c #414141",
"M 	c #000000",
"N 	c #003257",
"O 	c #0060A9",
"P 	c #006BBB",
"Q 	c #003056",
"R 	c #111111",
"S 	c #040608",
"T 	c #002845",
"U 	c #787878",
"V 	c #666666",
"W 	c #2C2C2C",
"X 	c #020A11",
"Y 	c #002038",
"Z 	c #003C69",
"` 	c #005594",
" .	c #0067B4",
"..	c #006BBC",
"+.	c #131313",
"@.	c #06080A",
"#.	c #404040",
"$.	c #383838",
"%.	c #101518",
"&.	c #00192B",
"*.	c #003359",
"=.	c #004F8A",
"-.	c #0061AA",
";.	c #006CBD",
">.	c #006BBA",
",.	c #003156",
"'.	c #040708",
").	c #003E6C",
"!.	c #0D1114",
"~.	c #747474",
"{.	c #343434",
"].	c #4C4C4C",
"^.	c #161616",
"/.	c #001321",
"(.	c #002A4A",
"_.	c #004981",
":.	c #121212",
"<.	c #07090A",
"[.	c #00101C",
"}.	c #000203",
"|.	c #03111C",
"1.	c #272727",
"2.	c #5F5F5F",
"3.	c #5E5E5E",
"4.	c #282929",
"5.	c #00080F",
"6.	c #050709",
"7.	c #006AB9",
"8.	c #00233D",
"9.	c #777777",
"0.	c #373838",
"a.	c #0063AE",
"b.	c #00467B",
"c.	c #00121F",
"d.	c #1C1E1E",
"e.	c #4F4F4F",
"f.	c #070C10",
"g.	c #454545",
"h.	c #001B2F",
"i.	c #0062AB",
"j.	c #003157",
"k.	c #00182A",
"l.	c #0D1215",
"m.	c #3E3E3E",
"n.	c #050C11",
"o.	c #00477C",
"p.	c #004D88",
"q.	c #1C1D1E",
"r.	c #080D10",
"s.	c #005290",
"t.	c #0065B2",
"u.	c #005494",
"v.	c #003A67",
"w.	c #001E35",
"x.	c #030B10",
"y.	c #5A5A5A",
"z.	c #001424",
"A.	c #0068B8",
"B.	c #0062AC",
"C.	c #041019",
"D.	c #4A4A4A",
"E.	c #00345C",
"F.	c #004B82",
"G.	c #0B0E10",
"H.	c #101315",
"I.	c #006ABC",
"J.	c #001B2E",
"K.	c #7D7D7D",
"L.	c #0064AF",
"M.	c #001525",
"N.	c #434343",
"O.	c #006CBF",
"P.	c #121619",
"Q.	c #1D1E1E",
"R.	c #004A81",
"S.	c #002D50",
"T.	c #585858",
"U.	c #001D33",
"V.	c #00477B",
"W.	c #05080B",
"X.	c #5B5B5B",
"Y.	c #002946",
"Z.	c #004880",
"`.	c #252525",
" +	c #070F16",
".+	c #005A9E",
"++	c #004F89",
"@+	c #01080E",
"#+	c #000D15",
"$+	c #005FA6",
"%+	c #005DA4",
"&+	c #000C15",
"*+	c #2B2B2B",
"=+	c #004376",
"-+	c #005697",
";+	c #7B7B7B",
">+	c #242425",
",+	c #00406E",
"'+	c #006FC3",
")+	c #727272",
"!+	c #686868",
"~+	c #002846",
"{+	c #005DA3",
"]+	c #001320",
"^+	c #00080E",
"/+	c #002643",
"(+	c #004980",
"_+	c #373737",
":+	c #00111D",
"<+	c #0060A8",
"[+	c #00192C",
"}+	c #4E4E4E",
"|+	c #636363",
"1+	c #202121",
"2+	c #000F1B",
"3+	c #00518E",
"4+	c #005595",
"5+	c #0A1015",
"6+	c #1B1C1C",
"7+	c #00223C",
"8+	c #3A3A3A",
"9+	c #515151",
"0+	c #0B0E11",
"a+	c #003A65",
"b+	c #00599C",
"c+	c #003054",
"d+	c #0A1115",
"e+	c #00243E",
"f+	c #004982",
"g+	c #002C4D",
"h+	c #525252",
"i+	c #000305",
"j+	c #191919",
"k+	c #222222",
"                    . + @ #                                 ",
"                  $ % & * = - ; > ,                         ",
"                ' ) ! ~ { ] ^ / ( _ : < [ }                 ",
"              | 1 2 { 3 4 5 6 7 { ] 8 9 0 a b c d           ",
"            e f g h 3 3 3 3 3 3 3 3 5 h i j k l             ",
"          m n ] h 3 3 3 3 3 3 3 3 3 3 o p q r       s       ",
"        t u v w 4 3 3 3 3 3 3 3 3 4 w p x y       z A       ",
"    B - C ~ D 4 3 3 3 3 3 3 3 3 3 E F G H       I J K       ",
"  L M N O E p P 5 4 3 3 3 3 3 4 E h Q R       S * j T U     ",
"    V W X Y Z `  .{ ..6  .3 4 E ..Q +.      @.* p ~ x #.    ",
"            $.%.&.*.=.-...;...>.,.R       '.).p  .;.C !.    ",
"~.{.,             ].^./.(._.2 N :.      <.* ;.5 3 ] -.[.    ",
"  }.&.|.1.2.            3.4.5.R       6.).{  .3 3 D 7.8.9.  ",
"  0.* a.b.f c.d.e.                  f.u ..5 3 3 3 3 i k g.  ",
"    h.h ~ ;.i.C j.k.l.m..         n.o.~  .3 3 3 3 3 P p.q.  ",
"    r.s...3 E ..p t.u.v.w.x.y.    z.g A.3 3 3 3 3 3 5 B.C.  ",
"    D.E.p 3 3 4 3 w P p { F.G.    H.s.I.3 3 3 3 3 3 5 ] J.K.",
"      c.L.5 3 3 3 3 3 3 6 4 M.    N.k O.3 3 3 3 3 5 p ( P.  ",
"      Q.R.;.3 3 3 3 3 3 3 ;.S.T.    U.6  .3 3 3 3 ~ V.W.    ",
"      X.Y.P 5 3 3 3 3 3 3 ;.Z.`.     +.+h 4 3 3 ;.++@+      ",
"        #+$+P 3 3 3 3 3 4 ] %+&+    *+=+;.3 4 i -+#+;+      ",
"        >+,+'+7 D 3 3 3 3 3 ..= )+  !+~+F  .P {+]+B         ",
"          ^+/+(+a.p ;.w 3 3 p ( _+    :+<+{ B.[+}+          ",
"            |+1+2+N 3+t.{ ] P 4+5+    6+/ P 7+8+            ",
"                  9+0+[+a+b+7 ~ h.    ].c+,.*+              ",
"                        _+d+e+f+g+h+    i+j+                ",
"                            ~.k+^+:.    e                   ",
"                                  |                         "};
