/* XPM */
static const char * stop_xpm[] = {
"22 22 6 1",
" 	c None",
".	c #323232",
"+	c #FFFFFF",
"@	c #848484",
"#	c #000000",
"$	c #868686",
"                      ",
"                      ",
"                      ",
"                      ",
"     ............     ",
"    .+++++++++++@#    ",
"    .+@@@@@@@@@@.#    ",
"    .+@@@@@@@@@@.#    ",
"    .+@@@@@@@@@@.#    ",
"    .+@@@@@@@$@@.#    ",
"    .+@@@@@@@@@@.#    ",
"    .+@@@@@@@@@@.#    ",
"    .+@@@@@@@@@@.#    ",
"    .+@@@@@@@@@@.#    ",
"    .+@@@@@@@@@@.#    ",
"    .+@@@@@@@@@@.#    ",
"    .@...........#    ",
"     ############     ",
"                      ",
"                      ",
"                      ",
"                      "};
