/* XPM */
static const char *lockIcon[]={
"16 16 13 1",
". c None",
"e c #000000",
"b c #303030",
"k c #400000",
"f c #404000",
"# c #585858",
"g c #808000",
"d c #808080",
"a c #a0a0a0",
"h c #c0c000",
"c c #c3c3c3",
"i c #ffdca8",
"j c #ffffff",
"......####......",
".....#.aaab.....",
"....#c#bb#a#....",
"....#ab..#db....",
"....#db..#db....",
"....##e..#de....",
"...#bbbeffbbb...",
"..#ggacc.chg#e..",
"..#giihhghgg#e..",
"..bgjihhhggg#e..",
"..bcj..ccaaa#e..",
"..bcj..cccaa#e..",
"..eaj..ccaaa#e..",
"..ecj..ccaag#e..",
"..egiihhghgg#e..",
"...ebffbbbkbe..."};
