/* XPM */
static const char *ag32[] = {
/* columns rows colors chars-per-pixel */
"32 32 186 2",
"   c #3D62BA",
".  c #1F5CF0",
"X  c #2957C6",
"o  c #295CD7",
"O  c #265FEE",
"+  c #2E60D9",
"@  c #2D64EC",
"#  c #2362FD",
"$  c #2862F4",
"%  c #2965FB",
"&  c #2F6AFF",
"*  c #3165E5",
"=  c #3468E9",
"-  c #396DEC",
";  c #336CF5",
":  c #326CFC",
">  c #386DF0",
",  c #3670FE",
"<  c #3D72F1",
"1  c #3B73FE",
"2  c #4967AF",
"3  c #4D6CB8",
"4  c #65749A",
"5  c #5675C3",
"6  c #5477CD",
"7  c #597AC9",
"8  c #5D7FD2",
"9  c #4071EB",
"0  c #4177FF",
"q  c #447AFE",
"w  c #4F7FF6",
"e  c #497DFE",
"r  c #557FE8",
"t  c #7685AB",
"y  c #4E81FF",
"u  c #5081F7",
"i  c #5284FF",
"p  c #5985F2",
"a  c #5D8BFF",
"s  c #6180CD",
"d  c #6184DB",
"f  c #7F96CF",
"g  c #7692D6",
"h  c #7E97D5",
"j  c #7D99DB",
"k  c #628FFF",
"l  c #6591FD",
"z  c #6A94FD",
"x  c #7091E3",
"c  c #7A99E7",
"v  c #759CFC",
"b  c #98635E",
"n  c #A26D67",
"m  c #F8240D",
"M  c #FF2C14",
"N  c #F8321C",
"B  c #E03B28",
"V  c #EB3824",
"C  c #F93C26",
"Z  c #FD3F29",
"A  c #ED4936",
"S  c #EA4C3B",
"D  c #F54E3B",
"F  c #FA4531",
"G  c #FD4A35",
"H  c #FE4E3A",
"J  c #FF523E",
"K  c #CE564C",
"L  c #D3584B",
"P  c #D45C50",
"I  c #D95E51",
"U  c #DE6456",
"Y  c #CF786F",
"T  c #DF6E61",
"R  c #DE7D72",
"E  c #E55E4E",
"W  c #E85242",
"Q  c #F25544",
"!  c #FE5542",
"~  c #FF5845",
"^  c #FF5C4A",
"/  c #E26354",
"(  c #E26A5D",
")  c #EE6051",
"_  c #FF604D",
"`  c #FD6452",
"'  c #FF6857",
"]  c #FF6B5A",
"[  c #EA6E60",
"{  c #E2786C",
"}  c #E87C70",
"|  c #FF7362",
" . c #FE7C6D",
".. c #FF7F70",
"X. c #E38277",
"o. c #FD8273",
"O. c #FF8678",
"+. c #FE8A7D",
"@. c #929395",
"#. c #979EB0",
"$. c #989FB1",
"%. c #BA9C99",
"&. c #A4A4A4",
"*. c gray66",
"=. c #BEBEBE",
"-. c #809BDE",
";. c #8DA9EC",
":. c #83A6FD",
">. c #8CADFE",
",. c #94B2FF",
"<. c #9AB6FE",
"1. c #9EB9FF",
"2. c #A5ADC2",
"3. c #B2B9CB",
"4. c #A5BBF1",
"5. c #A3BEFF",
"6. c #BFC5D2",
"7. c #AEC4F6",
"8. c #ACC4FF",
"9. c #B7C3E1",
"0. c #B6C8F6",
"q. c #BDD0FE",
"w. c #DB9890",
"e. c #D9A29C",
"r. c #CAB1AF",
"t. c #CFB8B6",
"y. c #D9ADA8",
"u. c #D4B4B0",
"i. c #E38C83",
"p. c #E6958C",
"a. c #E39A92",
"s. c #FC8D80",
"d. c #F79186",
"f. c #FD9185",
"g. c #FF968A",
"h. c #FF988C",
"j. c #FD9D92",
"k. c #E3A39C",
"l. c #E8A49C",
"z. c #FFA196",
"x. c #FFA499",
"c. c #E5AFA9",
"v. c #E3B0AB",
"b. c #E5B7B2",
"n. c #E4BCB8",
"m. c #FFACA3",
"M. c #FFB0A6",
"N. c #FFB3AA",
"B. c #FFB8AF",
"V. c #FFBBB3",
"C. c #FFC0B8",
"Z. c #C3C3C3",
"A. c #CCCCCC",
"S. c #C3C7D0",
"D. c #C4CCDD",
"F. c #DCC8C6",
"G. c #D8CECD",
"H. c #DDD0CE",
"J. c #D2D2D3",
"K. c #DBDBDC",
"L. c #C2D3FF",
"P. c #CED9F5",
"I. c #D0DAF5",
"U. c #D6E0F9",
"Y. c #D9E1F5",
"T. c #DAE3F9",
"R. c #E5C6C3",
"E. c #E7CBC8",
"W. c #E6D1CE",
"Q. c #EAD1CF",
"!. c #E9D2D0",
"~. c #EADBD9",
"^. c #FFD4CE",
"/. c #EBE0DE",
"(. c #E4E4E4",
"). c #E4E7EF",
"_. c #EAE3E3",
"`. c #ECEBEB",
"'. c #E4E8F1",
"]. c #E5EAFA",
"[. c #EDEFF4",
"{. c #EEF2FB",
"}. c #F2EFEF",
"|. c #F3F3F3",
" X c #F2F4F8",
".X c #FEFEFE",
/* pixels */
".X.X.X.X.X.X.X.X.X.X.X.X.X.X.X.X.X.X.X.X.X.X.X.X.X.X.X.X.X.X.X.X",
".X.X.X.X.X.X.X.X.X.X.X.X}.a.w.c.R..X.X.X.X.X.X.X.X.X.X.X.X.X.X.X",
".X.X.X.X.X.X.X.X.X.X.X Xb.+.j.f.l..X.X.X.X.X.X.X.X.X.X.X.X.X.X.X",
".X.X.X.X.X.X.X.X.X.X.X`.d.B.^.N.l. X.X.X.X.X.X.X.X.X.X.X.X.X.X.X",
".X.X.X.X.X.X.X.X.X.X.Xc.x.m.C.B.l..X.X.X.X.X.X.X.X.X.X.X.X.X.X.X",
".X.X.X.X.X.X.X.X.X.X~.s.h.Q h.N.l.|..X.X.X.X.X.X.X.X.X.X.X.X.X.X",
".X.X.X.X.X.X.X.X.X Xk.x._ Y B.N.l.|..X.X.X.X.X.X|.'.).`.|..X.X.X",
".X.X.X.X.X.X.X.X.X~.O.f.A G.V.N.l..X.X.X.X[.4.p : & & % 9 x 9. X",
".X.X.X.X.X.X.X.X Xa.z.! w./.V.N.a..X.X.XP.v z l i q e i k e + /.",
".X.X.X.X.X.X.X.XQ.O.+.A `./.N.x.p. X.XY.<.>.y * 8 f -.d - # o K.",
".X.X.X.X.X.X.X|.i.j.J e..X~.m.x.X..X[.q.1.e 7 J.|..X.X X[.6.g `.",
".X.X.X.X.X.X.XR. .O.S }..X~.z.j.X. XU.8.k 6 (..X.X.X.X.X.X.X.X.X",
".X.X.X.X.X.X|.} f.G y..X.X~.g.f.{ '.q.<.= A..X.X.X.X.X.X.X.X.X.X",
".X.X.X.X.X.Xn.|  .W |..X.X!.+.d.[ P.8.z s  X.X.X.X.X.X.X.X.X.X.X",
".X.X.X.X.X|.( f.G u. X.X.X~.+.+.U 7.8.1 2..X.X.X.X.X.X.X.X.X.X.X",
".X.X.X.X.Xc.| m.` O.g.d.+.j.h.+.P >.8.; A..X.X.X.X.X.X.X.X.X.X.X",
".X.X.X.X}.) g.x.h.g.f.g.g.f.M.+.K v 5.; J..X.X.X.XT.P.P.I.P.I. X",
".X.X.X.Xe.'  .V B B B B B B ] O.K k 5.; K..X.X.X X:.q q e q . A.",
".X.X.X`.Q O.F r.K.K.K.K.K.t.^ O.K u 1., 6..X.X.X X: : , i <.@ Z.",
".X.X.Xa.' | E |..X.X.X.X.X!._ o.L p ,.a g .X.X.X.X3.$.#.< >.@ =.",
".X.X/.D O.C F..X.X.X.X.X.X!.^ o.U j l >.> `..X.X.X.X.X Xz >.= =.",
".X.Xi.' ] /  X.X.X.X.X.X.X!.~  .U D.; <.y c .X.X.X.X.X.Xz >.@ =.",
".X~.F o.Z H..X.X.X.X.X.X.X!.~  .U |.d a 1.1 ;..X.X.X.X.Xz >.= =.",
".XR m N (  X.X.X.X.X.X.X.X!.J  .U .XK.* z ,.q u 0.].{.].v >.@ =.",
" X=.&.&.(..X.X.X.X.X.X.X.X!.J  .U .X.XS.* y >.v y q q i z >.@ =.",
".X.X.X.X.X.X.X.X.X.X.X.X.X!.J  .U  X.X.XJ.5 O q a k a i 1 $ X Z.",
".X.X.X.X.X.X.X.X.X.X.X.X.X!.H  .U .X.X.X.X`.=.t 3     2 4 @.6.}.",
".X.X.X.X.X.X.X.X.X.X.X.X.X!.H  ./  X.X.X.X.X.X X`.`.(.`.|..X.X.X",
".X.X.X.X.X.X.X.X.X.X.X.X.XQ.G  ./ .X.X.X.X.X.X.X.X.X.X.X.X.X.X.X",
".X.X.X.X.X.X.X.X.X.X.X.X.XQ.M F U .X.X.X.X.X.X.X.X.X.X.X.X.X.X.X",
".X.X.X.X.X.X.X.X.X.X.X.X.X/.n b %..X.X.X.X.X.X.X.X.X.X.X.X.X.X.X",
".X.X.X.X.X.X.X.X.X.X.X.X.X.X|.|.|..X.X.X.X.X.X.X.X.X.X.X.X.X.X.X"
};
