/* XPM */
static const char *computer32[] = {
/* columns rows colors chars-per-pixel */
"32 32 146 2",
"   c #004400440044",
".  c #0C240C290C26",
"X  c #14C414CE14C4",
"o  c #1D551CD91D59",
"O  c #000029AA31AC",
"+  c #000033D03C78",
"@  c #202F1FD1202F",
"#  c #24B024EF24BB",
"$  c #282C271F282C",
"%  c #2CA02BF42CA0",
"&  c #30632F153063",
"*  c #348C342E34CA",
"=  c #3C053BE33BC5",
"-  c #043633D24AE4",
";  c #00003A8A4263",
":  c #051F385B4F57",
">  c #09E939325770",
",  c #059A5099688B",
"<  c #00005B0A64E5",
"1  c #050C5D4175BB",
"2  c #0A9D60367FCD",
"3  c #040C66757BFE",
"4  c #0A8B60F0806A",
"5  c #37025B8D5B6E",
"6  c #3C665F645EA5",
"7  c #3D0361FD5FAC",
"8  c #33CE698C64FE",
"9  c #3DB162716064",
"0  c #34B380177C94",
"q  c #385477F672CB",
"w  c #413840184138",
"e  c #447844134482",
"r  c #4885477248C8",
"t  c #48F049B547D8",
"y  c #4E614D924D26",
"u  c #500A50DD5058",
"i  c #51B04FD451B0",
"p  c #513F519D4E33",
"a  c #559554FF53F8",
"s  c #573358585733",
"d  c #5DF35CE45E48",
"f  c #60B85E9C6141",
"g  c #60B761205C3E",
"h  c #6570653664F3",
"j  c #6F946F936818",
"k  c #6C946C656C0A",
"l  c #6FF57141705A",
"z  c #71316FCA6AC4",
"x  c #7233711A6C71",
"c  c #7BF27C036D5B",
"v  c #74F7762E7503",
"b  c #77C2795277E9",
"n  c #7817793E787C",
"m  c #79DE786F7A78",
"M  c #7B277AE37B68",
"N  c #1EEB4AF290BE",
"B  c #1F4654EC9B43",
"V  c #1F305C15A18C",
"C  c #0A77659D8471",
"Z  c #0A5D7662932A",
"A  c #0A837F539BAC",
"S  c #1F8B61C8A890",
"D  c #2EAD581DB58B",
"F  c #2E4558E3B597",
"G  c #2EC866D0C428",
"H  c #2E166CADC810",
"J  c #2EC46E9BCB2A",
"K  c #2F2B70ADCDE6",
"L  c #430E6A07E5CE",
"P  c #445A6B88E9A8",
"I  c #37DF83727DCE",
"U  c #38C5813D7D4F",
"Y  c #666D81357E9D",
"T  c #36A58A4E8402",
"R  c #374B981D9089",
"E  c #374899029151",
"W  c #3744A15F98D5",
"Q  c #6A2C84488214",
"!  c #6ECA8A7B8B2A",
"~  c #64C59CBF96A3",
"^  c #835281C97F3B",
"/  c #84F283FE81FC",
"(  c #873088AA8730",
")  c #8A7B89D38730",
"_  c #8CA18D478BE4",
"`  c #8FB291438FC9",
"'  c #9643965F8CF5",
"]  c #988998C0848B",
"[  c #9933997485E6",
"{  c #9B5D9C228AEC",
"}  c #93F5954493DB",
"|  c #986999989757",
" . c #9BCA9D839B9E",
".. c #9F4FA1359E28",
"X. c #A0E2A14C9B4C",
"o. c #A5D3A72DA5E5",
"O. c #A796A964A79A",
"+. c #A952AAEEA558",
"@. c #ADFFAEA3AE42",
"#. c #AF54C092B328",
"$. c #B1C9B1CCA81D",
"%. c #BAB6BBDFABF0",
"&. c #B1FBB2ACB21D",
"*. c #B6A3BB09B6A1",
"=. c #BDE6BE01B3C3",
"-. c #BB11BC38BAE7",
";. c #AFC1C7ECBAE6",
":. c #B01ECB34BCDC",
">. c #B181C5FFB799",
",. c #B17AC97EBB3A",
"<. c #C041C0F1B19E",
"1. c #B056CFEEC123",
"2. c #B052D2C3C3AA",
"3. c #B87CC3D2C226",
"4. c #BEF9CAA7C4BB",
"5. c #C076D236C491",
"6. c #C0E7C012A73A",
"7. c #C1D1C21DAA05",
"8. c #C3C5C3E3B5D6",
"9. c #C7DEC7A5BA0A",
"0. c #C923C8A1BFA9",
"q. c #CA30C9B9BD04",
"w. c #C4C1C4E3C1C0",
"e. c #C34DCCC9C449",
"r. c #C344CE81CD48",
"t. c #CA51CA05C341",
"y. c #CD84CDBECC1D",
"u. c #D0C2D132C337",
"i. c #D5A6D447C65B",
"p. c #D5E3D5F2CB50",
"a. c #E04DDE29CA09",
"s. c #D600D660D484",
"d. c #D2FBDB6ADB7A",
"f. c #D95DD967D877",
"g. c #DE14E3AAD39A",
"h. c #E0C5E17DE0CC",
"j. c #E121E12FD062",
"k. c #E312E2E6D31F",
"l. c #E71BE71BDD0E",
"z. c #E3D1E65DE363",
"x. c #E8C4E8FDE93E",
"c. c #EEB4EE6BEDC8",
"v. c #F5DBF4F0EFC5",
"b. c #F81EF7A3F774",
"n. c #F90CF825F4A3",
"m. c None",
/* pixels */
"m.m.m.m.m.m.m.# v .... . . . . . . . . . . . . . . . .....v # m.",
"m.m.m.m.m.. o e ( O.O.o.o.o.o.o.o.o.o.o.o.o.o.o.o.o.o.o.o.v &   ",
"m.m.m.m.m.o a ( @.-.-.*.-.-.-.-.-.-.*.-.-.-.-.-.-.*.-.-.O.^ = o ",
"m.m.m.m.m.# b &.y.f.f.f.f.f.f.f.f.f.f.f.f.s.s.s.s.y.w.@. .v = # ",
"m.m.m.m.m.# b *.h.b.b.b.b.b.b.b.b.b.b.b.b.b.c.c.x.s.O._ m d & @ ",
"m.m.m.m.m.# v *.c.b.d.r.r.r.r.r.r.5.r.4.r.4.,.r.z.s...M k i & @ ",
"m.m.m.m.m.# v *.c.d.! 5 7 7 7 7 9 9 9 9 5 6 5 Y e.p. .M k i & o ",
"m.m.m.m.m.# v -.c.r.7 O - > > > > > > > > : + 7 *.i...m k i & o ",
"m.m.m.m.m.# v -.v.r.7 - N F D F D D D D D B , q >.i...M j p % @ ",
"m.m.m.m.m.# v -.c.r.7 > D P P P L L L L L G C U ;.i...M k p & o ",
"m.m.m.m.m.# v -.c.r.7 > D P L L L L L L L G C U ;.i.X.M k i & @ ",
"m.m.m.m.m.# v -.v.r.7 > D L L L L L L L L G 2 U :.i.X.M k i & o ",
"m.m.m.m.m.# v -.c.r.9 > D P L L L L L L P G 2 U ,.i.X.M k i & o ",
"m.m.m.m.m.# v -.c.r.9 : V K J H G G H G H S 1 0 ,.i.X.M k i & @ ",
"m.m.m.m.m.# v -.c.r.9 ; 4 A A Z C C Z Z C 1 < U ,.i.X.M l i & @ ",
"m.m.m.m.m.# v *.c.d.Q 8 T W W R T I R R T 0 0 ~ e.i...m f w $ o ",
"m.m.m.m.m.# v *.x.c.e.*.,.1.2.1.:.:.:.2.3.;.;.e.g.p.X.v e $ o o ",
"m.m.m.m.m.# v &.s.l.j.j.j.a.a.a.a.a.a.a.a.a.a.a.a.6.( s = # o X ",
"m.m.m.m.m.# v +.%.7.6.6.6.6.6.6.<.7.7.7.6.6.6.6.7.{ p * e w # X ",
"m.m.m.m.m.$ b X.{ ] ] ] ] ] [ { ^ ] ] ] [ [ [ { { c = = k h * X ",
"m.m.m.m.m.$ b } Y z z z z z z z Y c l x x x x x x h s f  ._ = X ",
"m.m.m.m.m.$ b  .) M M M m m M M c c m m m m m m M M M _ O._ = X ",
"m.m.m.m.m.$ m o.@.@.&.&.@.&.&.&.&.@.&.&.&.@.@.@.&.&.&.O._ f & X ",
"m.m.m.. o = h _ &.-.+.+.*.*.o.o.6.-.o.o.-.-.o.o.&.-.&...v i $ X ",
"m.m.m.o d k 5 t ` } d d } } d d } } d d } } s a / } ) m k i $ X ",
"m.. o = k l p p k z a s z k s a k x a s z k p t f f f f a w @ . ",
"m.o s h w a [ [ p p ' ' p p ' ' p p ' ' p p ' ' i = a s = @ . . ",
"# e '  .f v t.6.j j 9.9.j j q.9.j j 9.9.j j q.8.f * r w @ .   m.",
"m ` 6.p.t.t.l.j.8.8.j.j.8.8.j.j.8.8.j.j.8.8.k.u._ s = @ .     m.",
" .@.6.t.y.y.t.6.q.q.9.9.q.q.9.9.q.q.9.q.q.q.q.$./ a # .   m.m.m.",
"..| ) ^ / / ) ^ / ^ ^ ^ / ^ ^ ^ / / ^ ^ / / / z r # X     m.m.m.",
" .` k f f d f f f d f d f d f d f d d d d f f p $ .   m.m.m.m.m."
};
