/* XPM */
static const char *home32[] = {
/* columns rows colors chars-per-pixel */
"32 32 163 2",
"   c #008100800080",
".  c #0A5700000000",
"X  c #0B4B0B360B34",
"o  c #131B0CF60CE5",
"O  c #18FC0DE40D1D",
"+  c #138E138F138F",
"@  c #1D201D1D1D1E",
"#  c #200A20222025",
"$  c #228500310000",
"%  c #20F11F1B1EE7",
"&  c #303A0B6A09E7",
"*  c #3FAA1D551AEE",
"=  c #3C7F2A631E8E",
"-  c #2522245B2451",
";  c #25F428A42A5B",
":  c #299D24B32416",
">  c #2BF42B9A2B98",
",  c #343A24AD20D3",
"<  c #30932E6E2DE2",
"1  c #3CBC33172E0E",
"2  c #34E234AA34A2",
"3  c #3C683C6A3C6A",
"4  c #502922C40D3C",
"5  c #45F32E601EBC",
"6  c #5EBB2A9D0605",
"7  c #4DA928D92630",
"8  c #413430372ECC",
"9  c #43B23EC83E2B",
"0  c #658E223700B6",
"q  c #7032311E0A30",
"w  c #724325A30000",
"e  c #7C4C29EA0000",
"r  c #7BE73574038C",
"t  c #5C6141723839",
"y  c #674C48173173",
"u  c #76A54D7B3D59",
"i  c #45AA45A045A1",
"p  c #484048484848",
"a  c #4B4646CB463D",
"s  c #49D248584825",
"d  c #4B154AFF4AFD",
"f  c #50D04BE64A8A",
"g  c #55E455EE55EF",
"h  c #5DBA527C51B2",
"j  c #5BC75B9B5B97",
"k  c #61F9605C602A",
"l  c #6AA95E9C5DBC",
"z  c #640364036403",
"x  c #6C0B6C0D6C0D",
"c  c #744E7433742F",
"v  c #7CCD7CCB7CCB",
"b  c #80E831930207",
"n  c #85D63B6509EF",
"m  c #8F5A36240000",
"M  c #8C283D980979",
"N  c #80F73D2D190C",
"B  c #980A3A180000",
"V  c #9F0A3E5F0000",
"C  c #87A645250B70",
"Z  c #8ED850011579",
"A  c #90AD54461C1F",
"S  c #873553DF3C8D",
"D  c #846E5A7B392D",
"F  c #8A5C53213442",
"G  c #8C6656C83D37",
"H  c #93A25AC525BA",
"J  c #983C641132A6",
"K  c #A74C4503011C",
"L  c #ACFF46A2010C",
"P  c #B4CB4A930000",
"I  c #B9834FFE06E4",
"U  c #B768517007EC",
"Y  c #BF455AA90DF0",
"T  c #B79F5F1B1845",
"R  c #BC2660AE180E",
"E  c #8E9F5E9644ED",
"W  c #916B68E54377",
"Q  c #97B1702148BA",
"!  c #9D726EB04225",
"~  c #988270A74914",
"^  c #9AD174204DB2",
"/  c #9E36737451E9",
"(  c #9CF571A75EC1",
")  c #9F277B1A56F3",
"_  c #A02E7AAA5CB0",
"`  c #A2FC7A145370",
"'  c #A8337FC76DB2",
"]  c #AFB8805A6599",
"[  c #C70762E5139C",
"{  c #CA9E67B817F4",
"}  c #C94F64CB189D",
"|  c #CA8469891B22",
" . c #C0ED70542BFC",
".. c #CECB6E5B207F",
"X. c #C4077B003DB0",
"o. c #D7A5779A2806",
"O. c #D2D975782AFA",
"+. c #A6E281A55E91",
"@. c #C09B84F65A2F",
"#. c #A41482416063",
"$. c #ABDE8B176C14",
"%. c #D80681883C56",
"&. c #C65984634CF3",
"*. c #C8838D3C5A59",
"=. c #DA918A5349BF",
"-. c #DB14908C53BA",
";. c #CB0599696E8D",
":. c #DD429AB16461",
">. c #E12D92D74EF6",
",. c #E164A9437BA1",
"<. c #84BC84B984BA",
"1. c #8C8A8C8A8C8A",
"2. c #954B8BCB86D7",
"3. c #92E792E492E4",
"4. c #9CAC9CAC9CAC",
"5. c #A089A0A0A0A3",
"6. c #B6D59AFD81B5",
"7. c #BA9F9D87881B",
"8. c #A3D5A3CAA3CB",
"9. c #AD19AD10AD1C",
"0. c #AFE6B07DB134",
"q. c #B0E1B08DB0A9",
"w. c #C0B2B406AF39",
"e. c #B4C8B4B8B4B7",
"r. c #B923B89DB89D",
"t. c #BA7ABA54BA54",
"y. c #C988A3C28B21",
"u. c #CDFDA8BB893A",
"i. c #CB7CB05D999B",
"p. c #D2F1B6179E7B",
"a. c #C831AFE6A578",
"s. c #C519B825ADC3",
"d. c #CFFCBC52AFF4",
"f. c #D5E6B9E0A538",
"g. c #D882BF7CAB65",
"h. c #E849BB0995EF",
"j. c #E892BDE89B22",
"k. c #D5EFC5D3BDC5",
"l. c #F02CD4A6BFF2",
"z. c #C584C584C584",
"x. c #CE1CCE26CE28",
"c. c #D108CF6CCF6C",
"v. c #DB4BCEAFC422",
"b. c #DCB0CEE5C8E0",
"n. c #DCE0D184C60D",
"m. c #DFF1D58FCB3C",
"M. c #D543D4C7D4C8",
"N. c #DD38DD54DD60",
"B. c #E033E10DE1B6",
"V. c #E4CBDADBD4A9",
"C. c #EA6AE2E4DFB0",
"Z. c #E58DE5D6E61D",
"A. c #E8CAE8E4E8EF",
"S. c #E8C0E936E99A",
"D. c #ECE4E6B6E2E8",
"F. c #EBCFEBFAEC6B",
"G. c #F2D8EF7CEE51",
"H. c #F421F113EFC9",
"J. c #F4A4F4F6F530",
"K. c #F76FF874F976",
"L. c #F89EF9D5FAC2",
"P. c #FAD2FBD7FC7D",
"I. c None",
/* pixels */
"I.I.I.I.I.I.I.I.I.I.I.I.I.o ; > @ X   I.I.I.I.I.I.I.I.I.I.I.I.I.",
"I.I.I.I.I.  X X         o ; p g 3 ; + X   I.I.I.I.I.I.I.I.I.I.I.",
"I.I.I.I.I.X + + X     o 2 k 1.4.<.z 3 @ X I.I.I.I.I.I.I.I.I.I.I.",
"I.I.I.I.I.X - @ X   X > k 1.0.t.9.1.k 2 @     I.I.I.I.I.I.I.I.I.",
"I.I.I.I.I.X @ @ X X > j 3.q.r.q.5.1.v j > + X I.I.I.I.I.I.I.I.I.",
"I.I.I.I.I.X @ - + ; g <.8.q.8.3.1.<.v x d < +     I.I.I.I.I.I.I.",
"I.I.I.I.I.X % > > f 1.9.8.1.v x z z x x x j > + X I.I.I.I.I.I.I.",
"I.I.I.I.I.o : 9 g v 5.8.1.v x x x z k z c x d < +     I.I.I.I.I.",
"I.I.I.I.I.o 2 z 3.5.3.v c c 1.3.1.<.x k j z x g > X X I.I.I.I.I.",
"I.I.I.  X > g <.8.5.v x c 1.9.r.e.5.<.x j k x x d > X X   I.I.I.",
"I.I.I.X > g 3.8.3.v x v 3.r.x.N.N.x.0.3.x k j z x j > X X I.I.I.",
"I.X X > j <.8.8.v x c 1.r.M.A.F.H.B.c.0.1.x g j x x p > X     I.",
"I.X 2 j 3.8.3.v x c 3.t.M.F.J.K.K.H.B.x.q.1.x g j k x g > o   I.",
"+ > z 1.8.8.v x x 1.r.M.F.K.P.P.P.L.J.B.x.q.1.x g g x x d > o X ",
"2 g 3.8.3.v x x 3.e.M.F.J.L.P.P.P.P.L.H.S.M.0.1.x g g k x g > + ",
"2 g <.3.x j x <.0.M.S.J.H.D.V.n.k.c.C.H.J.S.x.9.v k d d l h ; + ",
"o - i d 3 p c 5.z.B.J.H.V.d.$.) E ( a.V.H.H.N.t.4.x a 1 7 * O   ",
"I.  + @ # i <.e.x.Z.K.D.d.i.$.) F G $.a.C.K.S.x.8.c a , & $ . I.",
"I.    X @ i <.e.M.S.K.V.6.$.u.p.y.] G ( b.L.F.c.9.v s : o . . I.",
"I.I.I.X # p <.e.M.F.K.m.$.#.k.l.h.*.N S k.P.F.c.9.v d # X I.I.I.",
"I.I.I.X ; f 1.t.M.S.K.m.$.+.i.j.=.T b S k.P.F.M.e.<.i @ X I.I.I.",
"I.I.I.X > g 1.t.M.S.K.m.$.+.u.,.o.P e G k.P.G.M.t.<.i @ X I.I.I.",
"I.I.I.X ; g 1.t.M.F.K.m.+.J ;.:...L e G k.P.F.M.r.1.i @ X I.I.I.",
"I.I.I.X > g 1.r.M.F.K.n.) J *.-.| L e G k.L.F.M.t.<.i @ X I.I.I.",
"I.I.I.X > g 1.t.M.F.L.v.^ H @.=.} L e S k.L.G.M.t.1.s @ X I.I.I.",
"I.I.I.X > g 1.t.M.F.L.v.Q A X.%.[ K e G k.P.F.M.t.<.i @ X I.I.I.",
"I.I.I.X > g 1.t.M.F.P.k.Q Z  .O.Y V e G k.P.F.M.t.1.p @ X I.I.I.",
"I.I.I.X > g 1.t.M.F.J.k.W C R { U B w S k.J.F.M.t.<.i @ X I.I.I.",
"I.I.I.X > g 1.0.x.B.Z.s.D r K I L m 0 u s.Z.B.c.e.<.p @ X I.I.I.",
"I.I.I.X @ 9 x 3.8.9.q.2.y 6 r M n q 6 9 2.q.9.8.1.x 3 @   I.I.I.",
"I.I.I.  X # i g j j j f 1 = 1 5 5 7 , 8 f j j g d 9 < @ X I.I.I.",
"I.I.I.I.I.X ; 2 2 < > > > ; ; ; # ; ; > > < < > ; ; - @ X I.I.I."
};
