/* XPM */
static const char *network32[] = {
/* columns rows colors chars-per-pixel */
"32 32 257 2",
"   c #005800640045",
".  c #01AF03EE0ACB",
"X  c #018C0DC6033E",
"o  c #08EB064D00BD",
"O  c #0D55096F03EF",
"+  c #0CFC0CF70CCE",
"@  c #01F507E51892",
"#  c #03C10A0A1DF2",
"$  c #07C80C0B18CD",
"%  c #03DC140B02FF",
"&  c #05251B6E0517",
"*  c #09841E79099E",
"=  c #0FB110A6112A",
"-  c #14E60C980466",
";  c #1C03140C032F",
":  c #1FFD19750CE3",
">  c #14A414BB14CA",
",  c #1C3E1C611C79",
"<  c #179918FD19C0",
"1  c #065D0E6426BC",
"2  c #0E61173A30ED",
"3  c #06782CBC079A",
"4  c #0913388C0AD0",
"5  c #0EBB342812EF",
"6  c #11DF2C903099",
"7  c #235819C403EB",
"8  c #26FA18E306EA",
"9  c #22FA1BE91629",
"0  c #3683165D0390",
"q  c #2B1C19B524E2",
"w  c #2AF821560F45",
"e  c #364F23F007A3",
"r  c #2C6E2A671130",
"t  c #22E4238B23F3",
"y  c #2C3F2C732C9C",
"u  c #3BF3279E2626",
"i  c #3EF333492ADC",
"p  c #3452348E3473",
"a  c #3B083B733BBB",
"s  c #05AC17804839",
"d  c #0C531E5458B3",
"f  c #14ED23595BE7",
"g  c #0A0320565FB6",
"h  c #139A2291618C",
"j  c #15A731687C80",
"k  c #0EA826286C8E",
"l  c #25BE2C065D70",
"z  c #3065343E746D",
"x  c #0C46488E0C02",
"c  c #0D8D53BA0D8D",
"v  c #15675B371543",
"b  c #1F1C4DE9160E",
"n  c #17B152BB3389",
"m  c #1F3761D51F30",
"M  c #170F75D9170F",
"N  c #1CA4644A27E2",
"B  c #2289742E22A1",
"V  c #2AAA622F2453",
"C  c #1B11494E6B8C",
"Z  c #2A395CCF763C",
"A  c #35407E7F6BEF",
"S  c #463D1BAC05D0",
"D  c #4DA525C70649",
"F  c #49622ACA073B",
"G  c #494336490A76",
"H  c #4B4437391B37",
"J  c #53092B950A4F",
"K  c #587B28AA1983",
"L  c #56BA37EA0922",
"P  c #516A3DF72EAC",
"I  c #711E1E5E047D",
"U  c #67D42AD40D8D",
"Y  c #70F5337A1792",
"T  c #6C0F28462F02",
"R  c #547C286C44E0",
"E  c #61103F93691B",
"W  c #602741390F12",
"Q  c #5F9247641807",
"!  c #55DF43BE2C69",
"~  c #561646453A30",
"^  c #514B79762C46",
"/  c #78A7472E146F",
"(  c #75EC5A67181B",
")  c #719E4D820F56",
"_  c #73E951F02EB1",
"`  c #61BA60EC154D",
"'  c #44AD447D4443",
"]  c #4AF54B634BAE",
"[  c #555A556655B4",
"{  c #51FD434D7EB5",
"}  c #6DBA4EF75017",
"|  c #7A8B63985608",
" . c #64D865536596",
".. c #6A436A186A2C",
"X. c #7AC378C87809",
"o. c #75AD512D6D8B",
"O. c #17A736F99D25",
"+. c #0F862F808801",
"@. c #0E0D3EB6BD46",
"#. c #196A3981A410",
"$. c #235F3B9F9CED",
"%. c #290F3ED6A4F3",
"&. c #3AC04D6492D3",
"*. c #26B54911B9D0",
"=. c #38D156E5BE59",
"-. c #33DA4B93BC40",
";. c #3CC7738DB7C2",
":. c #35B46E4D99AA",
">. c #1B5E45EAC9A2",
",. c #389C57C0C4E0",
"<. c #3D47573CD858",
"1. c #32084DCDD008",
"2. c #3C1D5812E7E3",
"3. c #3B5B683EC5C9",
"4. c #4D6C6550BB5B",
"5. c #608275BFBF28",
"6. c #60985F15A23A",
"7. c #45BC5BC9DE83",
"8. c #47B05E4FE56C",
"9. c #523C6EC0D952",
"0. c #4E4264CBF80D",
"q. c #500F6C52F6B3",
"w. c #553E6C28FA83",
"e. c #557C7859E991",
"r. c #5D0474D1FD0E",
"t. c #564B72F4F4AF",
"y. c #4F7273E0E386",
"u. c #621A7B84FF57",
"i. c #1F7F85651F7F",
"p. c #26A68B482707",
"a. c #36AA8D043681",
"s. c #363F95E9366F",
"d. c #271397D92713",
"f. c #3FECB1C63FEC",
"g. c #3565ABCE3565",
"h. c #3C0D8EF549C9",
"j. c #71A188B1325A",
"k. c #45AB9ED84A14",
"l. c #49B3B83449B4",
"z. c #55C6B9E0562E",
"x. c #505DA5F54CBC",
"c. c #5A33B06C6DB8",
"v. c #7F679C615A5C",
"b. c #6CB1B8E57158",
"n. c #5C91C6BA5C5E",
"m. c #56D7C70056D8",
"M. c #5FF6C3F560BD",
"N. c #68B4CA8969C8",
"B. c #7586C5497947",
"V. c #46F79817853D",
"C. c #4B6F8B5BABA9",
"Z. c #5A6B9FC1A31B",
"A. c #53AAA14A89D6",
"S. c #7E84809181D6",
"D. c #685EB6F18E04",
"F. c #7B40BEE68C56",
"G. c #58C182E6D5F7",
"H. c #576881E0E316",
"J. c #5C3E83AEF158",
"K. c #7FB8965ECA21",
"L. c #62F18DE8E9DC",
"P. c #66DE85A3FCD0",
"I. c #657886D6F6FB",
"U. c #63D3923DECA7",
"Y. c #793BA931ED19",
"T. c #7A4DAD63F489",
"R. c #7EAFCD8C8B4E",
"E. c #8CA43A5B14CA",
"W. c #92BE2F350BE8",
"Q. c #984238B41B12",
"!. c #8164329A2DFA",
"~. c #A5833DE11341",
"^. c #808E3C3A4247",
"/. c #86E85D840EE1",
"(. c #98AA4B681743",
"). c #966757EC17A7",
"_. c #88D855CB139C",
"`. c #95055695283B",
"'. c #9B295C9A3941",
"]. c #998E681C1CFA",
"[. c #90C370171BC4",
"{. c #91CB70A83203",
"}. c #AA8B491B1776",
"|. c #B3734C9D190B",
" X c #BB1F5A821D5C",
".X c #A705598C19BB",
"XX c #A4A25AAC2A2B",
"oX c #AD18757A1E8A",
"OX c #A6806DD32179",
"+X c #A89177932300",
"@X c #B6C87A6826A7",
"#X c #B82D702D2F54",
"$X c #8A845A784108",
"%X c #81865F0F7619",
"&X c #C2A75B9A1EA4",
"*X c #C74C7E2518D1",
"=X c #CCF06C092316",
"-X c #CBD0657E20E1",
";X c #D2D76BE223C2",
":X c #DAD779922781",
">X c #CF4F73FA231A",
",X c #E5D37EBD29F9",
"<X c #8289674A81C5",
"1X c #8EEA876C3A4F",
"2X c #B6F380861BDC",
"3X c #A1108EF1403B",
"4X c #BC89821828A6",
"5X c #B117866E31A1",
"6X c #9D65965C5794",
"7X c #905881E07A60",
"8X c #A9808B565431",
"9X c #BAF7939A4ACA",
"0X c #CE3B80AA1CFF",
"qX c #C64E8B0F2B98",
"wX c #C92A94F737F5",
"eX c #D90E878329ED",
"rX c #D8A895DE35A0",
"tX c #DF77A2953DCB",
"yX c #EDBE8BFA2C63",
"uX c #E8E288062B78",
"iX c #E96790D02C45",
"pX c #EBC898A234B5",
"aX c #FF0B9C77353D",
"sX c #F8DD92993140",
"dX c #F8748F6C2F01",
"fX c #FFFFA3743C99",
"gX c #F51FA2D13B9E",
"hX c #E4CEA2F03FA3",
"jX c #C5D79817489F",
"kX c #D5809E3D4618",
"lX c #D99AA8D85810",
"zX c #CF7CA3AA53AE",
"xX c #D919AFDE6977",
"cX c #D9D9B24B6D98",
"vX c #D886B8767F4F",
"bX c #C88AA40461BB",
"nX c #EABAACF449E4",
"mX c #FFB5AB364488",
"MX c #F933ABAE459C",
"NX c #FEE5B37F4CB8",
"BX c #F555B3BA4CD1",
"VX c #F986B7875410",
"CX c #91598D2E8B19",
"ZX c #9334BB008626",
"AX c #A829BF169CF4",
"SX c #8F63AAF7D7D5",
"DX c #8E78BF13F973",
"FX c #8969C8F2940A",
"GX c #AA97D703B946",
"HX c #B03ED195AF9F",
"JX c #9568CAB7FA79",
"KX c #D308D062BB8A",
"LX c #E334C24A8950",
"PX c #E617C6E69214",
"IX c #CB33EA93DB88",
"UX c #D818EF0BE9A7",
"YX c None",
/* pixels */
"YXYXYXYXYXYXYXYXYXYXYXYXYXYXYXYXYXYXYXYXYXYXYXYXYXYXYXYXYXYXYXYX",
"YXYXYXYXYXYXYXYXYXYXYXYXYXYXYXYXYXYXYXo : 8 w : O YXYXYXYXYXYXYX",
"YXYXYXYXYXYXYXYXYXYXYXYXYXYXYXYXYXYXYX; Q {.{.` : YXYXYXYXYXYXYX",
"YXYXYX  o + > > > + +     YXYXYXYXo 7 H {.jXbX8X! w 7 - o YXYXYX",
"YXYXYXO < y a ' a y t = . YXYXYXYX: Q {.xXvXPXvX8X{.( G - YXYXYX",
"YX  o > y ]  ... .[ a t + o   o - G [.wXcXLXPXLXcXwXoX) 7 YXYXYX",
"YX. , p ] ..X.CXCXCX[ p 9 -   ; L /.oXwXzXxXcXcXlXjX+X) 7 YXYXYX",
"  > y l [ ..v.%XCXCX$X~ H w O e /.2XqXwXkXlXlXlXlXkXqX[.e o   YX",
"+ , p ] ] ] } } $X'.XX`./ J 0 F [.rXtXnXnXBXVXVXVXnXnX+XL ; o YX",
"> t a ' ~ ~ _ `.XX X=X>X.X/ D J oXrXnXBXBXBXVXVXNXNXMX4XW 7 o YX",
", t p P ~ _ #X:XuXuXyXuX>X).D J ].rXBXNXBXBXNXNXNXmXgX@XG -   YX",
", t y p ! `.:XsXsXsXsXyX:X.XJ D ].rXgXNXNXNXNXNXNXmXpXOXF     YX",
"< , t i Y `.>X,X,X,X,X:X;X(.D D ).eXpXfXfXfXfXNXfXgXeX].0     YX",
"> > t u Y (. X;X;X;X;X=X XQ.S 0 ) @XpXfXfXfXfXfXfXpX@X) 7     YX",
"+ = < 9 H (.}. X&X&X&X|.}.Y S 0 L ].eXaXaXaXaXaXaXeX_.F -     YX",
"o + = : 0 U E.}.|.|.|.~.W.I 0 ; G ( 4XeXiXiXiXiXeXOXL 7 o YXYXYX",
"  . + O - 0 U W.Q.~.Q.W.I S ; 5 V ^ 8X5X>X*X0X2X[.` e %   YXYXYX",
"YX    + 1 q K Y W.Q.Q.E.T i t n s.x.6X6X9XjX9X8Xj.^ b 3 X YXYXYX",
"YX  . $ l z R T T !.'.E { &.Z h.c.B.R.AXKXKXHXZXM.x.a.V * YXYXYX",
"YX. 1 l &.6.{ E o.%X%X6.4.=.;.C.D.R.FXGXUXUXHXFXB.n.z.a.x %   YX",
"YX1 z ,.9.e.5.5.SXSXSXSXe.9.y.G.Z.D.R.HXIXIXFXc.N.N.m.f.B 4 % YX",
"1 f -.q.u.I.I.L.T.DXJXDXL.t.t.e.C.A.b.FXGXGXB.z.N.N.m.g.p.v & YX",
"+.#.<.w.u.u.P.I.L.Y.JXDXL.q.w.e.C.V.c.b.R.R.M.n.n.m.m.g.i.v & YX",
"@.>.2.0.u.u.P.I.e.L.Y.Y.I.q.0.7.:.A h.h.h.x.z.z.l.l.g.d.M x & YX",
"@.>.1.0.0.0.r.u.e.y.G.H.t.0.8.*.C n N B p.a.s.s.s.p.i.M c 3 % YX",
"+.O.@.1.<.7.8.8.7.7.=.=.,.,.%.j s 5 5 x b v m m m v c x 3 % X YX",
"1 s +.#.O.%.%.%.*.$.+.j k g s 1 @ % % % * * * * & & & % %     YX",
"YX@ s k g d f f h f s s 1 1 .         YXYXYXYXYXYXYXYXYXYXYXYXYX",
"YX  @ # # # # # # # @ @ . .           YXYXYXYXYXYXYXYXYXYXYXYXYX",
"YXYXYXYXYXYXYXYXYXYXYXYXYXYXYXYXYXYXYXYXYXYXYXYXYXYXYXYXYXYXYXYX",
"YXYXYXYXYXYXYXYXYXYXYXYXYXYXYXYXYXYXYXYXYXYXYXYXYXYXYXYXYXYXYXYX",
"YXYXYXYXYXYXYXYXYXYXYXYXYXYXYXYXYXYXYXYXYXYXYXYXYXYXYXYXYXYXYXYX"
};
