/* XPM */
static char *stop32[] = {
/* columns rows colors chars-per-pixel */
"32 32 158 2",
"   c #003E00000000",
".  c #095500000000",
"X  c #17BD00000000",
"o  c #1B0100000000",
"O  c #245700000000",
"+  c #2C6500000000",
"@  c #330A000002DD",
"#  c #37C200000902",
"$  c #447702C6030A",
"%  c #4EE400000000",
"&  c #56C400000041",
"*  c #592800000000",
"=  c #63B000000B01",
"-  c #74FA00000000",
";  c #7C8100000000",
":  c #81C400000000",
">  c #8CA300000000",
",  c #8650113F11C0",
"<  c #8BD811571227",
"1  c #938F00000000",
"2  c #9787000008D2",
"3  c #9B0900000000",
"4  c #912911C812DE",
"5  c #A6EF00000000",
"6  c #A7EF00000902",
"7  c #AC2900440041",
"8  c #ADCE17B218BD",
"9  c #B16401050000",
"0  c #B3AD0000092A",
"q  c #BB8D00F30000",
"w  c #BA0C00001C50",
"e  c #B56613510000",
"r  c #B4F6148F14EF",
"t  c #B3DB176F188C",
"y  c #B52318DB1914",
"u  c #AD3D380438B3",
"i  c #AD3938953941",
"p  c #BE442E9F287F",
"a  c #B1D7391D39CD",
"s  c #C47100000000",
"d  c #C49C00000C2A",
"f  c #CAA100000000",
"g  c #CE9E11470000",
"h  c #CEAC12E51232",
"j  c #D33800000299",
"k  c #D7F400000947",
"l  c #DBD000440B32",
"z  c #D97200001C05",
"x  c #D384144F0000",
"c  c #E0CB144F02DD",
"v  c #CF2E000025D2",
"b  c #CA232D821204",
"n  c #CAE538F13A1E",
"m  c #E09D3B58393A",
"M  c #E3D700001435",
"N  c #EBBB0000156F",
"B  c #EBC700001C33",
"V  c #E84712C11ED1",
"C  c #FFFF0F9C1FFD",
"Z  c #F7FD144F1C50",
"A  c #FFFF10A01FA4",
"S  c #EBA9000025C0",
"D  c #F56600002591",
"F  c #F7A20146296F",
"G  c #FFFF00002629",
"H  c #FFBD004F2DC1",
"J  c #FFFF0E78260B",
"K  c #FFFF000031FB",
"L  c #FFFF0A81374B",
"P  c #FFFF0E303C6D",
"I  c #FFFF13FA2567",
"U  c #FFFF133A293C",
"Y  c #FFFF1A3625D6",
"T  c #FE0F11D73988",
"R  c #E6012772024C",
"E  c #E19D3B8E0000",
"W  c #EBED3E060000",
"Q  c #FE9D28021C05",
"!  c #FFFF2B081B1B",
"~  c #F86A3E060902",
"^  c #FFFF368D11F7",
"/  c #FFFF3AC9141A",
"(  c #FFFF22C92D64",
")  c #FFFF263930F0",
"_  c #FFFF2DB63615",
"`  c #FFFF393B272B",
"'  c #FFFF25A04ECE",
"]  c #FFFF2DEC54C0",
"[  c #FFFF2E4D5906",
"{  c #F99B3B8E4724",
"}  c #FFFF3FE44F7E",
"|  c #FFFF3068584C",
" . c #FFFF33EA5B79",
".. c #FFFF3D86679F",
"X. c #FFFF3EDA6988",
"o. c #EFE856D004F6",
"O. c #F82D444A081B",
"+. c #FFFF47430663",
"@. c #F99F42D008D2",
"#. c #FFFF48840642",
"$. c #FFFF4CC9098D",
"%. c #FFFF5B460E84",
"&. c #FFFF56EA12C6",
"*. c #FFFF5EF81039",
"=. c #F07456323A3D",
"-. c #FFFF472C207B",
";. c #FFFF568321F5",
":. c #FDF062BA12B3",
">. c #FFFF6A0816CE",
",. c #FFFF76800911",
"<. c #FFFF7BF51703",
"1. c #FFFF7F2E1CA6",
"2. c #FFFF6C7726B2",
"3. c #FFFF73542205",
"4. c #FFFF7CCE2CFA",
"5. c #FFFF76F03081",
"6. c #CD654C804E04",
"7. c #DEEC4BAF4C95",
"8. c #D1E95EC04A4D",
"9. c #E6914BAB4C8B",
"0. c #ED255C4A4986",
"q. c #FFFF414F50A3",
"w. c #FFFF576D5862",
"e. c #FFFF421966A3",
"r. c #E9EA805B42E7",
"t. c #E5C4771B5C08",
"y. c #FFFF6A6B4DC0",
"u. c #FFFF642C5132",
"i. c #FFFF6E6A51DE",
"p. c #F2547FE542FB",
"a. c #FFFF7BF54D18",
"s. c #F7E5767F5C02",
"d. c #FFFF739F5769",
"f. c #FE6476A05A4E",
"g. c #FFFF69678669",
"h. c #FFFF6D7889A0",
"j. c #FFFF71F68D40",
"k. c #FFFF82031242",
"l. c #FFFF8A3D2675",
"z. c #FFFF8709365D",
"x. c #FFFF89D5329E",
"c. c #FFFF933E23FD",
"v. c #FFFF9C092CAD",
"b. c #F83591F23FB9",
"n. c #FFCB92913F46",
"m. c #FE08920340B2",
"M. c #FFFF8EF3A36E",
"N. c #FFFF92EDA715",
"B. c #FFFF9700ABB4",
"V. c #FFFF9B49A9E5",
"C. c #FFFFBFDCCC2F",
"Z. c #FFFFCC41D6A5",
"A. c #FFFFCFA6D989",
"S. c #FFFFD363DBFD",
"D. c #FFFFDD3DE3E9",
"F. c #FFFFF445F68F",
"G. c #FFFFFE03FE64",
"H. c None",
/* pixels */
"H.H.H.H.H.H.H.H.H.O - 3 3 3 3 3 3 3 3 3 5 - O H.H.H.H.H.H.H.H.H.",
"H.H.H.H.H.. o O O $ , 8 y y t t t y y r 7 ; O         H.H.H.H.H.",
"H.H.H.H.H.o & - - , u 6.7.9.9.9.9.9.9.m h 1 +         H.H.H.H.H.",
"H.H.H.. o $ < t r p 8.t.s.d.i.y.y.u.w.{ V 0 = # @ O .     H.H.H.",
"H.H.H.o & , i 6.9.0.r.b.m.z.3.>.>.;._ T F S v w 6 - O     H.H.H.",
"H.. X $ < p 8.t.s.a.x.c.c.1.*.$.$./ Y K K K K F B 0 & o .     H.",
"H.o % < i 6.m.m.m.x.<.,.,.*.! Y Y U H K K K K K F z 2 & o     H.",
"H.O - 8 6.t.m.v.c.1.%.+.+.^ U K K H H H H H K K K S d : O     H.",
"H.O - y 7.s.n.c.<.%.! C J J H K K K H H H H H K K F k 3 +     H.",
"O $ , p 0.a.z.<.%.-.q.....] T G H T ] e.e.| P K H F l 5 % X .   ",
"- , i 8.b.x.<.&.Q } V.Z.Z.N.] G G ] N.Z.S.B.| H H D l q > & o   ",
"3 8 6.t.b.l.,.$.I [ B.D.F.S.h.|  .h.S.F.D.B.[ H K D l s 7 - O   ",
"3 y 7.s.m.c.,.$.I L [ j.S.F.S.Z.Z.S.F.S.j.] P K K F k s 7 - O   ",
"3 y 9.d.m.l.:.^ U H G ] M.S.F.G.F.F.S.N.] G H K K F l s 7 - O   ",
"3 8 9.d.n.4.` U H K H L ' g.Z.G.G.A.g.' L H H K K F l s 7 - O   ",
"3 y 9.d.n.5.) K K H H L ' g.S.G.G.A.g.' L H H K K D l s 7 - O   ",
"3 y 9.f.n.5.) K K H G ] M.S.F.G.G.F.S.M.] G K K K D l s 7 - O   ",
"3 y 9.f.n.4.) K K P ] j.S.F.Z.Z.Z.Z.F.S.j.] P H F B l s 7 - O   ",
"3 t 9.f.m.5.) K H ] V.D.F.S.h. . .h.S.F.D.B.] D M l j s 7 - O   ",
"3 t 9.d.x.2.( K H | B.Z.Z.B.] G G | N.Z.Z.B.| D k s s q 7 - O   ",
"3 y 9.i.3.&.Y K K T | e.e.[ P G G T ] e.e.| P D l s 7 7 5 - O   ",
"- 4 n =.:.$.Y K K K H H G H K K K K H H H H F B k s 7 1 : & o   ",
"O $ < b o.$.Y K K K K H H H K K K K H H K F M k j s 7 ; $ o .   ",
"H.O - e E @.! U H K K K K K K K K H F D D B k f s q 7 - O     H.",
"H.O - 9 g R O./ Y K K K K K K K K F M l l l j s 7 7 5 - +     H.",
"H.o & > 7 x W @.Z F F D D D F F D B k f s s s q 5 3 : * o     H.",
"H.. X $ > q x c l l l l l k k l k l j s 7 7 7 7 5 : $ o .     H.",
"H.H.H.o * ; 3 3 3 7 q s s s s s s s s q 7 1 ; - - * o     H.H.H.",
"H.H.H.. o + + + + % > 7 7 7 7 7 7 7 7 7 5 : $ O O o .     H.H.H.",
"H.H.H.H.H.        o * - - - - - - - - - - * o         H.H.H.H.H.",
"H.H.H.H.H.        . o O O O O O O O O O O o .         H.H.H.H.H.",
"H.H.H.H.H.H.H.H.H.                            H.H.H.H.H.H.H.H.H."
};
