/* XPM */
static const char *undo32[] = {
/* columns rows colors chars-per-pixel */
"32 32 107 2",
"   c black",
".  c #0065049D0C34",
"X  c #002C0DC826B1",
"o  c #005C0F002A06",
"O  c #03CA12762BFF",
"+  c #089317FA2D44",
"@  c #093E18552D3B",
"#  c #009B13613605",
"$  c #015915863AC6",
"%  c #07941DF33E26",
"&  c #0A431FCC3E04",
"*  c #000021B55FC2",
"=  c #0109248D65C8",
"-  c #02F4275869B4",
";  c #04E229476B2F",
":  c #0A342CC56BDA",
">  c #00002C247D77",
",  c #0F7132306B43",
"<  c #13A232E36BFC",
"1  c #1A9439776BB6",
"2  c #00002E728433",
"3  c #01D331418778",
"4  c #026F330B8CBD",
"5  c #0C1D3A028CC4",
"6  c #0448364190D8",
"7  c #164F401E8E15",
"8  c #026A3C6AA7B8",
"9  c #01113D47AC0C",
"0  c #01973F82B19D",
"q  c #0F7843318EDA",
"w  c #1CAF4C3E8E38",
"e  c #049C4110B04C",
"r  c #044D428BB509",
"t  c #00B14235BB6F",
"y  c #089B46FAB927",
"u  c #0BF74ACEBEF9",
"i  c #01B745EBC32F",
"p  c #07F74B19C6D3",
"a  c #03C64A78CC31",
"s  c #09274E13CB9E",
"d  c #00004C5BD803",
"f  c #000B4DBEDD38",
"g  c #08C55010D101",
"h  c #0F3351F2CCAF",
"j  c #0E0E548AD1B6",
"k  c #1442556DCD1D",
"l  c #19E55F2FC341",
"z  c #1BF75BA6CFAF",
"x  c #152658A0D351",
"c  c #0041539FED2C",
"v  c #06E658E8EF1A",
"b  c #08265832EBB1",
"n  c #0D1F5A1CE839",
"m  c #0ACE5A19EC7B",
"M  c #00ED572DF5D8",
"N  c #059559F3F539",
"B  c #0BC45DF4F566",
"V  c #0A555E8AF929",
"C  c #06B66132FFFF",
"Z  c #0FE060F8F705",
"A  c #0CF56298FD45",
"S  c #15936255EE86",
"D  c #11D86294F7FA",
"F  c #14166626FD03",
"G  c #16F16968FF6F",
"H  c #1CF268DBF285",
"J  c #1CC76CE2FF30",
"K  c #22886023CD78",
"L  c #22866518C2D8",
"P  c #26D068FFCE85",
"I  c #29E564A2CEB9",
"U  c #31EF6925CF65",
"Y  c #38946E26CF57",
"T  c #3D9C7805CE15",
"R  c #20F3695BEED5",
"E  c #22016F74FDDF",
"W  c #24DA7274FFB0",
"Q  c #2AE475F2FF5F",
"!  c #2EBF78EDFFCD",
"~  c #353D76D0EEA3",
"^  c #33D37BA9FF03",
"/  c #39497F75FFB8",
"(  c #3CD081E0FF6D",
")  c #3AE98B54FFFF",
"_  c #49D38595EB05",
"`  c #449F86D7FF47",
"'  c #4C488B87FEAE",
"]  c #48EB9493FFFF",
"[  c #56CB8B36EB76",
"{  c #51288E77FDA0",
"}  c #56759176FD56",
"|  c #5C1795B0FF28",
" . c #601798C3FFFF",
".. c #69D799D0EB6A",
"X. c #65CF9AE7FBE1",
"o. c #691B9D9AFA2C",
"O. c #74B7A575FEE9",
"+. c #7A84A6F0F988",
"@. c #7A89AA7AF8CD",
"#. c #7D8EA9B6FB31",
"$. c #8554AD03F5E2",
"%. c #83F1ADA1FB2C",
"&. c #8E22B57EFE5A",
"*. c #96BEB790F487",
"=. c #9394B7B9FB0C",
"-. c #9B4CBCD5FB76",
";. c None",
/* pixels */
";.;.;.;.;.;.;.;.;.;.;.;.;.;.;.;.;.;.;.;.;.;.;.;.;.;.;.;.;.;.;.;.",
";.;.;.;.;.;.;.;.;.;.;.;.;.;.;.;.;.;.;.;.;.;.;.;.;.;.;.;.;.;.;.;.",
";.;.;.;.;.;.;.;.;.;.;.;.;.;.;.;.;.;.;.;.;.;.;.;.;.;.;.;.;.;.;.;.",
";.;.;.;.;.;.;.;.;.;.;.;.;.;.;.;.;.;.;.;.;.;.;.;.;.;.;.;.;.;.;.;.",
";.;.;.;.;.;.;.;.;.;.;.;.;.;.;.;.;.;.;.;.;.;.;.;.;.;.;.;.;.;.;.;.",
";.;.;.;.;.;.;.. + % % + . ;.;.;.;.;.;.;.;.;.;.;.;.;.;.;.;.;.;.;.",
";.;.;.;.;.;.;.@ w L l q + ;.;.;.;.;.;.;.;.;.;.;.;.;.;.;.;.;.;.;.",
";.;.;.;.;.. O 1 T ] ) P , O . ;.;.;.;.;.;.;.;.;.;.;.;.;.;.;.;.;.",
";.;.;.;.;.O q Y ..+.o._ z 5 O ;.;.;.;.;.;.;.;.;.;.;.;.;.;.;.;.;.",
";.;.;.. O < Y | %.*.$.o.( z : o . ;.;.;.;.;.;.;.;.;.;.;.;.;.;.;.",
";.;.;.O 5 I [ +.=.-.*.+.} ~ x 6 O ;.;.;.;.;.;.;.;.;.;.;.;.;.;.;.",
";.. O : K ( X.$.&.&.&.%.o.` W j ; o . ;.;.;.;.;.;.;.;.;.;.;.;.;.",
";.O 4 z ~ { X.O.O.O.O.O.X.} ( H g 4 o ;.;.;.;.;.;.;.;.;.;.;.;.;.",
"# - s J / ' } | | X.X. .| ' ^ E C i $ ;.;.;.;.;.;.;.;.;.;.;.;.;.",
"t a N F E ! / ` ' { { ` ( ! W G V i $ ;.;.;.;.;.;.;.;.;.;.;.;.;.",
"t t t u u x R ! ( ` ` ( Q J F m d 4 # ;.;.;.;.;.;.;.;.;.;.. o $ ",
"$ $ $ $ $ : k J ^ / / ^ E F V p = o . ;.;.;.;.;.;.;.;.;.;.o 2 0 ",
";.;.;.;.;.# y F Q ^ / ! E D N 0 # ;.;.;.;.;.;.;.;.. o # # = i M ",
";.;.;.;.;.$ y A J Q ! ! Q G A r $ ;.;.;.;.;.;.;.;.o > 9 0 0 f M ",
";.;.;.;.;.O 3 p S E Q ! Q E G s ; $ # # # # # # # = t c c d 0 9 ",
";.;.;.;.;.. o - p A E Q Q E E S h y r 9 9 9 8 9 9 i f c c 0 = # ",
";.;.;.;.;.;.;.o 2 s S J E E E J G F B B m n b N M M M d 0 > X ;.",
";.;.;.;.;.;.;.. o - s A G J J E J J G G G D D Z V N c t * X . ;.",
";.;.;.;.;.;.;.;.;.o 3 p m D F G G G J G G F D n p 0 9 > o ;.;.;.",
";.;.;.;.;.;.;.;.;.. o - i N B B Z D D D B B N i - # # o . ;.;.;.",
";.;.;.;.;.;.;.;.;.;.;.o 2 9 9 r r e e r 9 r 9 2 o ;.;.;.;.;.;.;.",
";.;.;.;.;.;.;.;.;.;.;.. o # $ # # $ $ # $ $ # o . ;.;.;.;.;.;.;.",
";.;.;.;.;.;.;.;.;.;.;.;.;.;.;.;.;.;.;.;.;.;.;.;.;.;.;.;.;.;.;.;.",
";.;.;.;.;.;.;.;.;.;.;.;.;.;.;.;.;.;.;.;.;.;.;.;.;.;.;.;.;.;.;.;.",
";.;.;.;.;.;.;.;.;.;.;.;.;.;.;.;.;.;.;.;.;.;.;.;.;.;.;.;.;.;.;.;.",
";.;.;.;.;.;.;.;.;.;.;.;.;.;.;.;.;.;.;.;.;.;.;.;.;.;.;.;.;.;.;.;.",
";.;.;.;.;.;.;.;.;.;.;.;.;.;.;.;.;.;.;.;.;.;.;.;.;.;.;.;.;.;.;.;."
};
