/* XPM */
static char *apply32[] = {
/* columns rows colors chars-per-pixel */
"32 32 55 1",
"  c #000000280000",
". c #00120D2F000D",
"X c #000A1518000A",
"o c #00931AB40077",
"O c #017F24F200EC",
"+ c #01422BEE0142",
"@ c #0015341C0015",
"# c #00873C4E0087",
"$ c #01C3437A0177",
"% c #003D4BB9003D",
"& c #0A3D502D0A3D",
"* c #011C53CC00CA",
"= c #00005BE70000",
"- c #08CC5BC608CC",
"; c #007364910073",
": c #01156CC70115",
"> c #0262766301F8",
", c #02F37BB200E9",
"< c #0E437D820E43",
"1 c #12547FEA1254",
"2 c #00D185240037",
"3 c #01B78D2B019E",
"4 c #0A5484EB0A54",
"5 c #0F6A8CD20F6A",
"6 c #02B49417019E",
"7 c #00009B040000",
"8 c #0BC694800BC6",
"9 c #0BDF9C570BDF",
"0 c #114D8F66114D",
"q c #1075924E1075",
"w c #12A29CAC12A2",
"e c #0055A4B20055",
"r c #003DADF5003D",
"t c #00D5B3D500D5",
"y c #007BBC21007B",
"u c #0B0ABA170B0A",
"i c #1453A6EA1453",
"p c #151FAC15151F",
"a c #1803B3141803",
"s c #11FDBE0611FD",
"d c #1B5EB5611B5E",
"f c #18C5B92018C5",
"g c #00E5C3B600E5",
"h c #00CDCCA000CD",
"j c #0A97C4990A97",
"k c #0E44D0B30E44",
"l c #0039D4420039",
"z c #003ADCD6003A",
"x c #094AD7E8094A",
"c c #0973DC7D0973",
"v c #13B0CB6E13B0",
"b c #18C5CAB618C5",
"n c #01A8E4DE01A8",
"m c #003FEC8A003F",
"M c None",
/* pixels */
"MMMMMMMMMMMMMMMMMMMMMMMMMMMMMMMM",
"MMMMMMMMMMMMMMMMMMMMMMMMMMMMMMMM",
"MMMMMMMMMMMMMMMMMMMMMMMMMMMMMMMM",
"MMMMMMMMMMMMMMMMMMMMMMMMMMM.oO+O",
"MMMMMMMMMMMMMMMMMMMMMMMMMMMo-,,,",
"Oo.MMMMMMMMMMMMMMMMMMMMMM.X$,64>",
":*oMMMMMMMMMMMMMMMMMMMMMMo%,3,$O",
"6>#o MMMMMMMMMMMMMMMM.oOO$>3,%oM",
"33>*oMMMMMMMMMMMMMMMMo-<154>#o M",
";>6<$o MMMMMMMMMM oO+&qpiq>%XMMM",
"o$0i4=oMMMMMMMMMMo*<qiddw:#X.MMM",
"M+5su4$X MMMM XO+%3ubbdw<%XMMMMM",
"M+4jxg2%oMMMMX%:2ekcxu9:#X MMMMM",
"MO>unny,#oooO%2thznxu8:#XMMMMMMM",
"MO;rcmzr>**;>7gzmmlt3;@X MMMMMMM",
"Mo=7lmnle637thnmmlr2=@.MMMMMMMMM",
"MX%2ynmnhyygznnng72=+. MMMMMMMMM",
"M.@;ehnnzzzznnzy3;%@XMMMMMMMMMMM",
"M .#2tlzzzznnhr,#oXX MMMMMMMMMMM",
"MMMO:ehllzzlge>%oMMMMMMMMMMMMMMM",
"MMMo*6yllhhy7:#X MMMMMMMMMMMMMMM",
"MMMo%2rhhgt6;#XMMMMMMMMMMMMMMMMM",
"MMMX#>eyye3=@. MMMMMMMMMMMMMMMMM",
"MMM.+*3ee2=@XMMMMMMMMMMMMMMMMMMM",
"MMM .@:2,=+. MMMMMMMMMMMMMMMMMMM",
"MMMMMo*;*@XMMMMMMMMMMMMMMMMMMMMM",
"MMMMMX#%O. MMMMMMMMMMMMMMMMMMMMM",
"MMMMM.+OXMMMMMMMMMMMMMMMMMMMMMMM",
"MMMMM .. MMMMMMMMMMMMMMMMMMMMMMM",
"MMMMMMMMMMMMMMMMMMMMMMMMMMMMMMMM",
"MMMMMMMMMMMMMMMMMMMMMMMMMMMMMMMM",
"MMMMMMMMMMMMMMMMMMMMMMMMMMMMMMMM"
};
