#define head_width 24
#define head_height 24
static unsigned char head_bits[] = {
   0x00, 0x00, 0x00, 0x00, 0x00, 0x00, 0x00, 0x08, 0x00, 0x00, 0x1c, 0x00,
   0x00, 0x3e, 0x00, 0x00, 0x3e, 0x00, 0x00, 0x3e, 0x00, 0x00, 0x3e, 0x00,
   0x00, 0x22, 0x00, 0x00, 0x41, 0x00, 0x00, 0x41, 0x00, 0x80, 0x80, 0x00,
   0x80, 0x80, 0x00, 0x40, 0x00, 0x01, 0x7c, 0x00, 0x1f, 0x3e, 0x00, 0x3e,
   0x3f, 0x1c, 0x7e, 0x3e, 0x63, 0x3e, 0xfc, 0x81, 0x1f, 0x00, 0x00, 0x00,
   0x00, 0x00, 0x00, 0x00, 0x00, 0x00, 0x00, 0x00, 0x00, 0x00, 0x00, 0x00};
