<?xml version="1.0" standalone="no"?>
<!-- Generator: Adobe Illustrator 19.0.0, SVG Export Plug-In . SVG Version: 6.00 Build 0)  -->
<svg contentScriptType="text/ecmascript" zoomAndPan="magnify" xmlns:xlink="http://www.w3.org/1999/xlink" baseProfile="full"
    contentStyleType="text/css" id="Capa_1" style="enable-background:new 0 0 512 512;" version="1.1" xml:space="preserve"
    preserveAspectRatio="xMidYMid meet" viewBox="0 0 512 512" xmlns="http://www.w3.org/2000/svg" x="0px" y="0px"> 
    <g>  
        <g>   
            <path d=
                "M510.805,289.148l-6.928-6.826V260c0-1.062-0.422-2.078-1.172-2.828c-1.015-1.016-25.962-24.963-129.266-40.975 
                c-7.381-5.08-60.846-40.178-129.497-40.178c-91.154,0-145.969,28.158-153.206,32.106l-71.182,7.908 
                c-2.027,0.226-3.558,1.937-3.558,3.976v6.342L1.172,241.176c-0.976,0.976-1.378,2.386-1.066,3.734 
                c0.047,0.199,4.725,20.417,7.947,39.741c3.604,21.619,25.084,27.336,35.937,27.336c2.21,0,3.999-1.787,3.999-3.998 
                s-1.789-4-3.999-4c-1.003,0-24.646-0.234-28.048-20.65c-2.644-15.855-6.252-32.281-7.553-38.069l14.436-14.435 
                c0.749-0.75,1.171-1.765,1.171-2.827v-4.417l68.425-7.604c0.543-0.063,1.066-0.234,1.539-0.504 
                c0.554-0.312,56.335-31.465,149.984-31.465c69.792,0,125.091,38.854,125.646,39.249c0.507,0.359,1.101,0.601,1.71,0.695 
                c88.854,13.669,118.676,33.339,124.58,37.9v22.133c0,1.071,0.437,2.094,1.195,2.842l5.225,5.156l-5.225,5.154 
                c-1.57,1.547-1.586,4.078-0.039,5.654c1.547,1.578,4.077,1.593,5.654,0.031l8.115-7.998c0.757-0.748,1.195-1.771,1.195-2.842 
                S511.563,289.898,510.805,289.148z"/>  </g> </g> 
    <g>  
        <g>   
            <path d=
                "M46.209,240.677L22.215,224.68c-1.852-1.23-4.323-0.73-5.546,1.109c-1.226,1.84-0.731,4.319,1.109,5.546l23.994,15.996 
                c0.683,0.453,1.453,0.672,2.214,0.672c1.292,0,2.562-0.625,3.332-1.781C48.544,244.383,48.048,241.903,46.209,240.677z"/>  </g> </g> 
    <g>  
        <g>   
            <path d=
                "M43.99,240.005H3.999c-2.21,0-3.999,1.789-3.999,3.999s1.789,3.999,3.999,3.999H43.99c2.21,0,3.999-1.789,3.999-3.999 
                C47.989,241.794,46.2,240.005,43.99,240.005z"/>  </g> </g> 
    <g>  
        <g>   
            <path d=
                "M207.568,206.052l-7.998-16.98c-0.941-1.999-3.331-2.871-5.319-1.914c-1.999,0.942-2.855,3.324-1.914,5.319l7.999,16.98 
                c0.679,1.449,2.116,2.297,3.62,2.297c0.57,0,1.148-0.121,1.698-0.383C207.654,210.43,208.509,208.048,207.568,206.052z"/>  </g> </g> 
    <g>  
        <g>   
            <path d="M227.946,240.005H211.95c-2.21,0-3.999,1.789-3.999,3.999s1.789,3.999,3.999,3.999h15.996 
                c2.211,0,3.999-1.789,3.999-3.999C231.945,241.794,230.156,240.005,227.946,240.005z"/>  </g> </g> 
    <g>  
        <g>   
            <path d=
                "M92.217,287.993h-0.078c-2.21,0-3.96,1.789-3.96,4s1.831,3.998,4.038,3.998c2.21,0,3.999-1.787,3.999-3.998 
                S94.427,287.993,92.217,287.993z"/>  </g> </g> 
    <g>  
        <g>   
            <path d="M91.979,248.003c-24.256,0-43.99,19.731-43.99,43.99c0,24.259,19.734,43.988,43.99,43.988 
                c24.255,0,43.989-19.728,43.989-43.988S116.235,248.003,91.979,248.003z 
                M91.979,327.983c-19.846,0-35.991-16.144-35.991-35.99 
                c0-19.848,16.144-35.992,35.991-35.992c19.846,0,35.991,16.145,35.991,35.992C127.97,311.838,111.825,327.983,91.979,327.983z"/>  </g> </g> 
    <g>  
        <g>   
            <path d=
                "M91.979,263.999c-2.21,0-3.999,1.789-3.999,4v7.998c0,2.209,1.789,3.998,3.999,3.998s3.999-1.789,3.999-3.998v-7.998 
                C95.978,265.788,94.189,263.999,91.979,263.999z"/>  </g> </g> 
    <g>  
        <g>   
            <path d=
                "M91.979,303.989c-2.21,0-3.999,1.789-3.999,4v7.998c0,2.211,1.789,3.998,3.999,3.998s3.999-1.787,3.999-3.998v-7.998 
                C95.978,305.778,94.189,303.989,91.979,303.989z"/>  </g> </g> 
    <g>  
        <g>   
            <path d=
                "M75.982,287.993h-7.998c-2.211,0-3.999,1.789-3.999,4s1.788,3.998,3.999,3.998h7.998c2.21,0,3.999-1.787,3.999-3.998 
                S78.192,287.993,75.982,287.993z"/>  </g> </g> 
    <g>  
        <g>   
            <path d=
                "M115.973,287.993h-7.998c-2.21,0-3.999,1.789-3.999,4s1.789,3.998,3.999,3.998h7.998c2.21,0,3.999-1.787,3.999-3.998 
                S118.183,287.993,115.973,287.993z"/>  </g> </g> 
    <g>  
        <g>   
            <path d="M83.496,277.857l-5.655-5.656c-1.561-1.562-4.092-1.562-5.654,0s-1.562,4.094,0,5.656l5.654,5.654 
                c0.781,0.781,1.805,1.172,2.828,1.172s2.046-0.391,2.827-1.172C85.058,281.949,85.058,279.418,83.496,277.857z"/>  </g> </g> 
    <g>  
        <g>   
            <path d=
                "M111.77,306.13l-5.655-5.654c-1.562-1.562-4.093-1.562-5.655,0c-1.562,1.562-1.562,4.092,0,5.654l5.655,5.654 
                c0.781,0.781,1.805,1.172,2.828,1.172s2.046-0.391,2.827-1.172C113.332,310.224,113.332,307.692,111.77,306.13z"/>  </g> </g> 
    <g>  
        <g>   
            <path d="M83.496,300.476c-1.562-1.562-4.093-1.562-5.655,0l-5.654,5.654c-1.562,1.562-1.562,4.093,0,5.654 
                c0.781,0.781,1.804,1.172,2.827,1.172c1.023,0,2.046-0.391,2.827-1.172l5.655-5.654C85.058,304.568,85.058,302.038,83.496,300.476 
                z"/>  </g> </g> 
    <g>  
        <g>   
            <path d="M111.771,272.201c-1.562-1.562-4.093-1.562-5.655,0l-5.655,5.656c-1.562,1.56-1.562,4.092,0,5.654 
                c0.781,0.781,1.804,1.172,2.827,1.172c1.024,0,2.047-0.391,2.828-1.172l5.655-5.654 
                C113.333,276.295,113.333,273.763,111.771,272.201z"/>  </g> </g> 
    <g>  
        <g>   
            <path d=
                "M404.143,287.993h-0.078c-2.21,0-3.96,1.789-3.96,4s1.828,3.998,4.038,3.998c2.211,0,3.999-1.787,3.999-3.998 
                S406.354,287.993,404.143,287.993z"/>  </g> </g> 
    <g>  
        <g>   
            <path d="M403.9,248.003c-24.252,0-43.989,19.731-43.989,43.99c0,24.259,19.737,43.988,43.989,43.988 
                c24.26,0,43.99-19.728,43.99-43.988S428.16,248.003,403.9,248.003z 
                M403.9,327.983c-19.839,0-35.991-16.144-35.991-35.99 
                c0-19.848,16.152-35.992,35.991-35.992c19.856,0,35.993,16.145,35.992,35.992C439.892,311.838,423.755,327.983,403.9,327.983z"/>  </g> </g> 
    <g>  
        <g>   
            <path d=
                "M403.9,263.999c-2.202,0-3.999,1.789-3.999,4v7.998c0,2.209,1.797,3.998,3.999,3.998c2.219,0,4-1.789,4-3.998v-7.998 
                C407.9,265.788,406.119,263.999,403.9,263.999z"/>  </g> </g> 
    <g>  
        <g>   
            <path d=
                "M403.9,303.989c-2.202,0-3.999,1.789-3.999,4v7.998c0,2.211,1.797,3.998,3.999,3.998c2.219,0,4-1.787,4-3.998v-7.998 
                C407.9,305.778,406.119,303.989,403.9,303.989z"/>  </g> </g> 
    <g>  
        <g>   
            <path d=
                "M387.904,287.993h-7.998c-2.202,0-3.999,1.789-3.999,4s1.797,3.998,3.999,3.998h7.998c2.219,0,3.999-1.787,3.999-3.998 
                S390.123,287.993,387.904,287.993z"/>  </g> </g> 
    <g>  
        <g>   
            <path d=
                "M427.895,287.993h-7.998c-2.202,0-3.998,1.789-3.998,4s1.796,3.998,3.998,3.998h7.998c2.218,0,4-1.787,4-3.998 
                S430.114,287.993,427.895,287.993z"/>  </g> </g> 
    <g>  
        <g>   
            <path d="M395.418,277.857l-5.654-5.656c-1.562-1.562-4.093-1.562-5.655,0s-1.562,4.094,0,5.656l5.655,5.654 
                c0.781,0.781,1.811,1.172,2.827,1.172c1.031,0,2.046-0.391,2.827-1.172C396.98,281.949,396.98,279.418,395.418,277.857z"/>  </g> </g> 
    <g>  
        <g>   
            <path d="M423.693,306.13l-5.655-5.654c-1.562-1.562-4.093-1.562-5.655,0s-1.562,4.092,0,5.654l5.655,5.654 
                c0.781,0.781,1.811,1.172,2.827,1.172c1.031,0,2.047-0.391,2.828-1.172C425.255,310.224,425.255,307.692,423.693,306.13z"/>  </g> </g> 
    <g>  
        <g>   
            <path d="M395.418,300.476c-1.561-1.562-4.092-1.562-5.654,0l-5.655,5.654c-1.562,1.562-1.562,4.093,0,5.654 
                c0.781,0.781,1.812,1.172,2.827,1.172c1.031,0,2.046-0.391,2.828-1.172l5.654-5.654 
                C396.98,304.568,396.98,302.038,395.418,300.476z"/>  </g> </g> 
    <g>  
        <g>   
            <path d="M423.693,272.201c-1.562-1.562-4.093-1.562-5.655,0l-5.655,5.656c-1.562,1.56-1.562,4.092,0,5.654 
                c0.781,0.781,1.812,1.172,2.828,1.172c1.031,0,2.046-0.391,2.827-1.172l5.655-5.654 
                C425.255,276.295,425.255,273.763,423.693,272.201z"/>  </g> </g> 
    <g>  
        <g>   
            <path d="M355.911,216.011c-195.075,0-219.932-14.114-221.381-15.067c-1.566-1.32-3.913-1.234-5.389,0.242 
                c-1.562,1.562-1.562,4.093,0,5.655c1.758,1.757,23.049,17.168,226.771,17.168c2.219,0,3.999-1.789,3.998-3.999 
                C359.91,217.799,358.13,216.011,355.911,216.011z"/>  </g> </g> 
    <g>  
        <g>   
            <path d=
                "M355.912,303.989H139.967c-2.21,0-3.999,1.789-3.999,4s1.789,3.998,3.999,3.998h215.945c2.219,0,3.999-1.787,3.999-3.998 
                S358.131,303.989,355.912,303.989z"/>  </g> </g> 
    <g>  
        <g>   
            <path d=
                "M508.001,303.989H451.89c-2.203,0-3.999,1.789-3.999,4s1.796,3.998,3.999,3.998h56.111c2.203,0,3.999-1.787,3.999-3.998 
                S510.204,303.989,508.001,303.989z"/>  </g> </g> 
    <g>  
        <g>   
            <path d=
                "M501.144,264.202l-23.994-7.994c-2.11-0.695-4.359,0.434-5.054,2.527c-0.696,2.098,0.429,4.362,2.522,5.057l23.995,8.002 
                c0.421,0.141,0.851,0.203,1.265,0.203c1.68,0,3.233-1.062,3.796-2.733C504.377,267.171,503.237,264.905,501.144,264.202z"/>  </g> </g> 
    <g>  
        <g>   
            <path d="M475.884,242.434c-2.202,0-3.999,1.789-3.999,3.999v13.568c0,2.209,1.797,3.998,3.999,3.998 
                c2.218,0,3.999-1.789,3.999-3.998v-13.568C479.883,244.223,478.102,242.434,475.884,242.434z"/>  </g> </g> 
    <g> </g> 
    <g> </g> 
    <g> </g> 
    <g> </g> 
    <g> </g> 
    <g> </g> 
    <g> </g> 
    <g> </g> 
    <g> </g> 
    <g> </g> 
    <g> </g> 
    <g> </g> 
    <g> </g> 
    <g> </g> 
    <g> </g> </svg>