<?xml version="1.0" encoding="UTF-8" standalone="no"?>
<svg
   xmlns:dc="http://purl.org/dc/elements/1.1/"
   xmlns:cc="http://creativecommons.org/ns#"
   xmlns:rdf="http://www.w3.org/1999/02/22-rdf-syntax-ns#"
   xmlns:svg="http://www.w3.org/2000/svg"
   xmlns="http://www.w3.org/2000/svg"
   xmlns:sodipodi="http://sodipodi.sourceforge.net/DTD/sodipodi-0.dtd"
   xmlns:inkscape="http://www.inkscape.org/namespaces/inkscape"
   version="1.1"
   x="0px"
   y="0px"
   viewBox="0 0 91.932999 43.394749"
   enable-background="new 0 0 100 100"
   xml:space="preserve"
   id="svg3791"
   sodipodi:docname="noun_77910_cc.svg"
   width="91.932999"
   height="43.394749"
   inkscape:version="0.92.2 (5c3e80d, 2017-08-06)"><metadata
     id="metadata3797"><rdf:RDF><cc:Work
         rdf:about=""><dc:format>image/svg+xml</dc:format><dc:type
           rdf:resource="http://purl.org/dc/dcmitype/StillImage" /></cc:Work></rdf:RDF></metadata><defs
     id="defs3795" /><sodipodi:namedview
     pagecolor="#ffffff"
     bordercolor="#666666"
     borderopacity="1"
     objecttolerance="10"
     gridtolerance="10"
     guidetolerance="10"
     inkscape:pageopacity="0"
     inkscape:pageshadow="2"
     inkscape:window-width="1600"
     inkscape:window-height="837"
     id="namedview3793"
     showgrid="false"
     inkscape:zoom="1.888"
     inkscape:cx="46.034"
     inkscape:cy="29.893441"
     inkscape:window-x="-8"
     inkscape:window-y="-8"
     inkscape:window-maximized="1"
     inkscape:current-layer="svg3791" /><path
     d="m 91.917,35.76075 c 0,-0.674 -0.132,-1.467 -0.611,-2.495 l -5.227,-11.935 c -0.504,-1.114 -0.842,-1.881 -1.882,-1.881 H 45.978 45.965 45.953 40.938 c -0.066,-0.971 -0.866,-1.74 -1.854,-1.74 h -4.249 l 6.75,-7.025 c 0.375,-0.391 0.369,-1.01 -0.014,-1.393 l -9,-9 c -0.389,-0.389 -1.019,-0.389 -1.408,0 -0.389,0.389 -0.389,1.019 0,1.408 l 8.31,8.31 -7.398,7.7 h -6.18 c -0.987,0 -1.788,0.77 -1.854,1.741 H 7.734 c -1.039,0 -1.377,0.767 -1.881,1.881 l -5.226,11.934 c -0.479,1.028 -0.611,1.821 -0.611,2.495 L 0,39.01075 c 0,1.039 0.842,1.881 1.881,1.881 h 10.092 c 0.324,1.43 1.6,2.503 3.126,2.503 1.526,0 2.802,-1.073 3.126,-2.503 h 2.99 c 0.324,1.43 1.6,2.503 3.126,2.503 1.526,0 2.802,-1.073 3.126,-2.503 h 18.485 0.025 18.487 c 0.325,1.43 1.601,2.503 3.127,2.503 1.526,0 2.802,-1.073 3.127,-2.503 h 2.989 c 0.324,1.43 1.6,2.503 3.126,2.503 1.526,0 2.803,-1.073 3.127,-2.503 h 10.092 c 1.038,0 1.881,-0.842 1.881,-1.881 z m -80.162,-3.526 c 0,1.039 -0.842,1.881 -1.881,1.881 H 5.6 c -1.039,0 -2.276,-0.926 -1.569,-2.615 0.454,-1.084 3.009,-7.07 3.009,-7.07 0.352,-1.092 0.842,-1.881 1.881,-1.881 h 0.953 c 1.039,0 1.881,0.842 1.881,1.881 z m 3.344,9.422 c -0.554,0 -1.032,-0.311 -1.284,-0.765 h 2.567 c -0.251,0.454 -0.729,0.765 -1.283,0.765 z m 9.243,0 c -0.554,0 -1.032,-0.311 -1.283,-0.765 h 2.567 c -0.252,0.454 -0.73,0.765 -1.284,0.765 z m 13.635,-9.422 c 0,1.039 -0.842,1.881 -1.881,1.881 H 16.463 c -1.039,0 -1.881,-0.842 -1.881,-1.881 v -7.805 c 0,-1.039 0.842,-1.881 1.881,-1.881 h 19.633 c 1.039,0 1.881,0.842 1.881,1.881 z m 13.151,-3.902 v 3.902 c 0,0.52 -0.21,0.989 -0.551,1.33 -0.341,0.34 -0.811,0.551 -1.33,0.551 h -3.269 -0.025 -3.268 c -0.519,0 -0.989,-0.211 -1.33,-0.551 -0.34,-0.341 -0.551,-0.811 -0.551,-1.33 v -3.902 -3.902 c 0,-0.52 0.211,-0.99 0.551,-1.33 0.341,-0.341 0.811,-0.551 1.33,-0.551 h 3.268 0.025 3.269 c 0.52,0 0.989,0.21 1.33,0.551 0.341,0.34 0.551,0.811 0.551,1.33 z m 16.463,13.324 c -0.555,0 -1.032,-0.311 -1.284,-0.765 h 2.567 c -0.251,0.454 -0.73,0.765 -1.283,0.765 z m -11.755,-7.541 c -1.038,0 -1.88,-0.842 -1.88,-1.881 v -7.805 c 0,-1.039 0.842,-1.881 1.88,-1.881 H 75.47 c 1.038,0 1.881,0.842 1.881,1.881 v 7.805 c 0,1.039 -0.843,1.881 -1.881,1.881 z m 20.997,7.541 c -0.555,0 -1.032,-0.311 -1.283,-0.765 h 2.566 c -0.251,0.454 -0.729,0.765 -1.283,0.765 z m 9.499,-7.541 H 82.06 c -1.04,0 -1.882,-0.842 -1.882,-1.881 v -7.805 c 0,-1.039 0.842,-1.881 1.882,-1.881 h 0.951 c 1.039,0 1.529,0.789 1.882,1.881 0,0 2.555,5.986 3.009,7.07 0.706,1.69 -0.53,2.616 -1.57,2.616 z"
     id="path3785"
     inkscape:connector-curvature="0"
     style="fill:#000000" /></svg>
