<?xml version="1.0" encoding="UTF-8" standalone="no"?>
<svg
   xmlns:dc="http://purl.org/dc/elements/1.1/"
   xmlns:cc="http://creativecommons.org/ns#"
   xmlns:rdf="http://www.w3.org/1999/02/22-rdf-syntax-ns#"
   xmlns:svg="http://www.w3.org/2000/svg"
   xmlns="http://www.w3.org/2000/svg"
   xmlns:sodipodi="http://sodipodi.sourceforge.net/DTD/sodipodi-0.dtd"
   xmlns:inkscape="http://www.inkscape.org/namespaces/inkscape"
   version="1.1"
   x="0px"
   y="0px"
   viewBox="0 0 87.125999 17.795292"
   enable-background="new 0 0 100 100"
   xml:space="preserve"
   id="svg3719"
   sodipodi:docname="noun_59560_cc.svg"
   width="87.125999"
   height="17.795292"
   inkscape:version="0.92.2 (5c3e80d, 2017-08-06)"><metadata
     id="metadata3725"><rdf:RDF><cc:Work
         rdf:about=""><dc:format>image/svg+xml</dc:format><dc:type
           rdf:resource="http://purl.org/dc/dcmitype/StillImage" /></cc:Work></rdf:RDF></metadata><defs
     id="defs3723" /><sodipodi:namedview
     pagecolor="#ffffff"
     bordercolor="#666666"
     borderopacity="1"
     objecttolerance="10"
     gridtolerance="10"
     guidetolerance="10"
     inkscape:pageopacity="0"
     inkscape:pageshadow="2"
     inkscape:window-width="1600"
     inkscape:window-height="837"
     id="namedview3721"
     showgrid="false"
     inkscape:zoom="5.344"
     inkscape:cx="43.564"
     inkscape:cy="2.6950299"
     inkscape:window-x="-8"
     inkscape:window-y="-8"
     inkscape:window-maximized="1"
     inkscape:current-layer="svg3719" /><path
     d="m 86.434,12.559292 c -0.971,-0.966 -2.138,-2.062 -3.421,-3.1979997 -2.372,-2.102 -4.564,-3.832 -5.942,-4.733 -0.073,-0.051 -0.151,-0.097 -0.229,-0.146 -0.08,-0.05 -0.156,-0.096 -0.229,-0.14 -0.056,-0.032 -0.108,-0.065 -0.165,-0.096 -0.15,-0.085 -0.282,-0.151 -0.396,-0.199 -1.219,-0.58 -2.704,-0.925 -4.312,-0.926 h -0.002 c -0.002,0 -0.005,-10e-4 -0.007,-10e-4 -0.002,0 -0.005,10e-4 -0.007,10e-4 h -11.32 c -0.106,-0.202 -0.291,-0.386 -0.545,-0.535 l 3.897,-0.669 c 0.119,-0.02 0.215,-0.087 0.275,-0.176 0.012,-0.017 0.019,-0.036 0.027,-0.055 0.012,-0.025 0.025,-0.051 0.032,-0.08 0.002,-0.006 0.006,-0.01 0.007,-0.015 0.003,-0.021 -0.003,-0.04 -0.003,-0.062 0,-0.02 0.006,-0.039 0.003,-0.061 -10e-4,-0.006 -0.005,-0.01 -0.007,-0.016 -0.007,-0.027 -0.021,-0.053 -0.032,-0.079 -0.009,-0.019 -0.016,-0.038 -0.027,-0.055 -0.061,-0.089 -0.156,-0.156 -0.275,-0.177 L 57.138,0.00629234 c -0.226,-0.038 -0.436,0.1 -0.472,0.309 -0.036,0.209 0.117,0.41 0.341,0.448 l 4.462,0.76499996 -3.846,0.66 c -0.882,0.098 -1.58,0.461 -1.823,0.931 H 39.788 35.924 11.967 c -0.002,0 -0.003,-0.001 -0.005,-0.001 -0.002,0 -0.003,0.001 -0.006,0.001 h -10e-4 c -1.249,10e-4 -2.403,0.346 -3.35,0.926 -0.089,0.048 -0.191,0.114 -0.309,0.199 -0.044,0.03 -0.085,0.063 -0.127,0.096 -0.013,0.009 -0.026,0.021 -0.039,0.03 -1.065,0.736 -2.489,1.979 -3.951,3.493 -2.066,2.1399997 -3.59,4.1829997 -3.944,5.2029997 -0.145,0.32 -0.235,0.684 -0.235,1.08 0,0.718 0.273,1.35 0.688,1.749 l 0.003,0.003 c 0.021,0.021 0.041,0.047 0.063,0.066 l 1.623,1.679 0.002,-0.003 c 0.015,0.015 0.028,0.028 0.044,0.04 0.081,0.072 0.178,0.115 0.283,0.115 h 1.724 1.23 29.812 4.665 39.704 1.584 2.217 c 0.136,0 0.261,-0.043 0.364,-0.115 0.021,-0.012 0.039,-0.025 0.058,-0.04 l 0.001,0.003 2.09,-1.679 c 0.029,-0.02 0.054,-0.045 0.081,-0.066 l 0.005,-0.003 c 0.534,-0.399 0.885,-1.031 0.885,-1.749 0,-0.625 -0.268,-1.188 -0.692,-1.587 z M 9.31,8.2552923 H 6.489 l 2.821,-2.533 z m 8.868,0 h -6.507 v -2.533 h 6.507 z m 21.528,0 H 27.498 v -2.533 h 12.208 z m 14.531,0 H 42.029 v -2.533 h 12.208 z m 8.176,0 v -2.533 h 6.508 l 2.283,2.533 z m 12.466,1.556 -3.608,-4.069 h 4.761 l 4.991,4.069 z"
     id="path3713"
     inkscape:connector-curvature="0"
     style="fill:#000000" /></svg>
