<?xml version="1.0" encoding="UTF-8" standalone="no"?>
<svg
   xmlns:dc="http://purl.org/dc/elements/1.1/"
   xmlns:cc="http://creativecommons.org/ns#"
   xmlns:rdf="http://www.w3.org/1999/02/22-rdf-syntax-ns#"
   xmlns:svg="http://www.w3.org/2000/svg"
   xmlns="http://www.w3.org/2000/svg"
   xmlns:sodipodi="http://sodipodi.sourceforge.net/DTD/sodipodi-0.dtd"
   xmlns:inkscape="http://www.inkscape.org/namespaces/inkscape"
   enable-background="new 0 0 1000 600"
   height="284.55829"
   id="Shape_1_6_"
   overflow="visible"
   version="1.1"
   viewBox="0 0 884.63202 284.55829"
   width="884.63202"
   xml:space="preserve"
   sodipodi:docname="VehicleCatalog_car_porsche.svg"
   style="overflow:visible"
   inkscape:version="0.92.2 (5c3e80d, 2017-08-06)"><metadata
     id="metadata82"><rdf:RDF><cc:Work
         rdf:about=""><dc:format>image/svg+xml</dc:format><dc:type
           rdf:resource="http://purl.org/dc/dcmitype/StillImage" /></cc:Work></rdf:RDF></metadata><defs
     id="defs80" /><sodipodi:namedview
     pagecolor="#ffffff"
     bordercolor="#666666"
     borderopacity="1"
     objecttolerance="10"
     gridtolerance="10"
     guidetolerance="10"
     inkscape:pageopacity="0"
     inkscape:pageshadow="2"
     inkscape:window-width="640"
     inkscape:window-height="480"
     id="namedview78"
     showgrid="false"
     inkscape:zoom="0.35"
     inkscape:cx="442.59392"
     inkscape:cy="142.563"
     inkscape:window-x="0"
     inkscape:window-y="0"
     inkscape:window-maximized="0"
     inkscape:current-layer="Shape_1_6_" /><g
     id="Shape_1"
     transform="translate(-57.406079,-158.00472)"><g
       id="g74"><path
         d="m 287.55,389.163 v 23.572 c 6.893,-1.17 13.26,-3.882 18.737,-7.767 L 289.62,388.3 c -0.674,0.32 -1.363,0.61 -2.07,0.863 z m -7.713,-28.417 c -3.792,0 -6.866,3.074 -6.866,6.866 0,3.792 3.074,6.866 6.866,6.866 3.792,0 6.866,-3.074 6.866,-6.866 0,-3.792 -3.074,-6.866 -6.866,-6.866 z m 0,19.484 c -1.607,0 -2.911,1.303 -2.911,2.91 0,1.607 1.303,2.91 2.911,2.91 1.607,0 2.91,-1.303 2.91,-2.91 0,-1.607 -1.303,-2.91 -2.91,-2.91 z m 20.691,-2.834 16.667,16.667 c 3.886,-5.477 6.596,-11.846 7.766,-18.739 h -23.574 c -0.254,0.707 -0.539,1.4 -0.859,2.072 z m -0.002,-19.567 c 0.319,0.673 0.608,1.363 0.861,2.07 h 23.573 c -1.17,-6.893 -3.882,-13.261 -7.767,-18.738 z m -30.47,-10.905 c 0.673,-0.319 1.362,-0.609 2.07,-0.862 V 322.49 c -6.893,1.17 -13.26,3.882 -18.738,7.767 z m -11.769,28.4 h -23.573 c 1.17,6.894 3.881,13.262 7.766,18.738 l 16.668,-16.668 c -0.319,-0.672 -0.608,-1.363 -0.861,-2.07 z m 34.169,-7.713 c 0,1.607 1.303,2.91 2.91,2.91 1.607,0 2.91,-1.303 2.91,-2.91 0,-1.607 -1.303,-2.91 -2.91,-2.91 -1.607,0 -2.91,1.303 -2.91,2.91 z m 13.832,-37.356 c -5.478,-3.885 -11.845,-6.596 -18.738,-7.766 v 23.572 c 0.707,0.253 1.397,0.542 2.07,0.86 z m -26.451,24.737 c 1.607,0 2.91,-1.303 2.91,-2.91 0,-1.607 -1.303,-2.91 -2.91,-2.91 -1.607,0 -2.911,1.303 -2.911,2.91 0,1.607 1.304,2.91 2.911,2.91 z m 0,-62.331 c -41.394,0 -74.951,33.557 -74.951,74.951 0,41.394 33.557,74.951 74.951,74.951 41.394,0 74.951,-33.557 74.951,-74.951 0,-41.394 -33.557,-74.951 -74.951,-74.951 z m 0,128.487 c -29.567,0 -53.537,-23.969 -53.537,-53.536 0,-29.567 23.969,-53.536 53.537,-53.536 29.567,0 53.536,23.969 53.536,53.536 0,29.567 -23.969,53.536 -53.536,53.536 z M 253.386,404.97 c 5.477,3.885 11.846,6.596 18.739,7.766 v -23.572 c -0.708,-0.253 -1.398,-0.542 -2.072,-0.861 z m 5.76,-47.143 -16.667,-16.667 c -3.886,5.478 -6.596,11.847 -7.766,18.739 h 23.575 c 0.254,-0.707 0.539,-1.398 0.858,-2.072 z m 8.072,9.784 c 0,-1.607 -1.303,-2.91 -2.91,-2.91 -1.607,0 -2.91,1.303 -2.91,2.91 0,1.607 1.303,2.91 2.91,2.91 1.608,0 2.91,-1.302 2.91,-2.91 z m 460.963,-9.784 -16.667,-16.667 c -3.887,5.478 -6.597,11.847 -7.767,18.739 h 23.575 c 0.254,-0.707 0.539,-1.398 0.859,-2.072 z m 41.382,19.569 16.667,16.667 c 3.886,-5.477 6.596,-11.846 7.766,-18.739 h -23.574 c -0.255,0.707 -0.54,1.4 -0.859,2.072 z m -0.002,-19.567 c 0.319,0.673 0.608,1.363 0.861,2.07 h 23.573 c -1.17,-6.893 -3.882,-13.261 -7.767,-18.738 z m -12.977,31.334 v 23.572 c 6.893,-1.17 13.26,-3.882 18.737,-7.767 L 758.653,388.3 c -0.673,0.32 -1.362,0.61 -2.069,0.863 z m -7.713,-28.417 c -3.792,0 -6.866,3.074 -6.866,6.866 0,3.792 3.074,6.866 6.866,6.866 3.792,0 6.866,-3.074 6.866,-6.866 0,-3.792 -3.074,-6.866 -6.866,-6.866 z m 0,-68.085 c -41.394,0 -74.95,33.557 -74.95,74.951 0,41.394 33.557,74.951 74.95,74.951 41.395,0 74.951,-33.557 74.951,-74.951 0,-41.394 -33.556,-74.951 -74.951,-74.951 z m 0,128.487 c -29.567,0 -53.536,-23.969 -53.536,-53.536 0,-29.567 23.969,-53.536 53.536,-53.536 29.567,0 53.536,23.969 53.536,53.536 0,29.567 -23.969,53.536 -53.536,53.536 z m 188.764,-74.554 c 1.578,1.175 -15.13,-18.556 -25.573,-26 -16.99,-12.11 -155.921,-68.603 -256.158,-80.555 6.725,0.802 -17.57,-0.149 -23.868,-4.688 -4.812,-3.468 -8.588,-8.741 -13.213,-12.36 -14.177,-11.093 -59.156,-48.183 -82.261,-61.376 -2.465,-1.407 -6.54,-1.828 -8.95,-2.558 -1.324,-0.4 -11.122,-0.132 -8.524,0 -44.285,-2.256 -106.493,-1.794 -152.587,10.656 -4.209,1.137 -30.368,8.089 -48.589,15.344 -5.724,2.278 -12.226,4.007 -19.18,6.819 -20.012,8.093 -38.345,15.188 -57.54,23.868 -11.419,5.165 -30.696,14.476 -28.13,14.065 -1.611,0.257 -3.312,-2.109 -5.967,-1.278 -5.653,1.768 -11.529,6.517 -16.623,8.098 -4.053,1.259 -25.214,0.021 -31.54,-7.246 -6.711,-7.708 -8.796,-3.008 -20.033,-4.688 9.422,1.408 -66.962,-4.819 -69.474,-3.41 -7.891,-1.1 -3.403,4.299 -3.41,5.114 2.299,2.393 3.725,5.662 6.393,7.672 9.392,7.075 35.363,33.205 37.082,34.95 3.051,3.1 5.275,7.363 8.95,9.804 -0.142,0.426 -0.284,0.852 -0.426,1.278 -5.36,1.6 -8.503,7.122 -12.786,9.803 -8.165,5.111 -14.437,12.33 -17.049,23.016 0,6.251 0,12.504 0,18.754 -7.517,0.259 -15.208,2.511 -21.737,4.263 -4.043,1.084 -7.959,-0.34 -8.098,4.688 -1.802,3.203 -0.459,19.141 -0.426,24.294 6.73,4.299 14.264,8.488 21.737,12.36 20.915,10.838 14.065,21.312 14.065,21.312 H 203.526 V 363 c 0,-40.017 32.44,-72.457 72.458,-72.457 h 7.107 c 40.017,0 72.458,32.44 72.458,72.457 v 35.593 H 672.366 V 363 c 0,-40.017 32.44,-72.457 72.458,-72.457 h 8.384 c 40.018,0 72.458,32.44 72.458,72.457 v 35.593 h 37.381 c 0,0 46.533,-0.426 69.9,-0.427 2.136,-1.928 6.301,-4.372 -1.279,-11.508 3.559,3.35 5.498,-17.201 4.688,-30.262 0.284,0 0.568,0 0.853,0 6.055,-3.637 6.659,-5.161 0.426,-9.802 z M 388.168,247.711 c -0.261,0 -0.521,0 -0.783,0 -0.896,0.57 -4.825,0.413 -4.552,0.416 -24.338,-0.919 -69.602,2.784 -101.15,-5.957 -0.821,-1.008 -1.016,-3.081 -0.853,-3.41 1.89,-7.701 14.557,-10.835 21.737,-14.491 8.349,-4.251 54.001,-22.514 68.195,-24.721 6.287,16.395 16.424,46.198 17.406,48.163 0.023,0 0.047,0 0.069,0 0.024,0.141 -0.002,0.135 -0.069,0 z m 142.427,0.852 c 0,0.142 0,0.426 0,0.426 H 398.893 c 0,0 -12.664,-38.209 -18.327,-50.294 0.753,-0.409 0.717,-0.536 1.705,-0.853 31.656,-14.891 97.021,-12.814 119.768,-11.934 7.472,13.752 13.626,28.483 20.032,43.048 2.401,5.46 8.331,13.33 8.951,19.606 -0.143,10e-4 -0.285,10e-4 -0.427,10e-4 z m 49.868,0.213 c -18.3,0 -29.133,-0.139 -43.901,-0.213 -11.222,-26.264 -24.004,-48.287 -28.13,-61.376 0.658,-1.125 1.651,-0.93 3.409,-0.853 0.641,-0.288 2.163,-0.012 3.836,0 8.798,0.062 10.622,6.462 16.197,10.655 6.241,4.695 11.165,10.716 16.622,16.196 9.058,9.099 16.826,16.37 25.999,26.426 2.14,2.345 3.659,5.085 5.968,7.246 0,0.427 0,1.493 0,1.919 z m 40.917,-6.18 c -3.147,0.942 -6.108,0.679 -8.951,1.705 -0.562,-5.606 -5.075,-16.551 -10.229,-17.049 -1.076,-0.786 -14.896,-1.694 -16.623,-0.853 -1.051,0.52 -0.657,0.754 -1.705,1.279 2.474,3.117 -9.226,-5.693 -45.605,-47.737 -0.716,-0.827 -3.147,-2.229 -2.131,-3.409 1.079,-2.12 6.87,-4.115 9.803,-4.263 48.404,34.093 66.753,50.191 86.097,66.917 -3.426,0.787 -7.36,2.423 -10.656,3.41 z m -238.547,5.531 c 0.095,0.004 0.196,0.006 0.29,0.01 -0.173,-0.007 -0.257,-0.009 -0.29,-0.01 z M 727.32,375.324 h -23.572 c 1.169,6.894 3.881,13.262 7.766,18.738 l 16.668,-16.668 c -0.32,-0.672 -0.609,-1.363 -0.862,-2.07 z m 21.551,-20.332 c 1.607,0 2.91,-1.303 2.91,-2.91 0,-1.607 -1.303,-2.91 -2.91,-2.91 -1.607,0 -2.91,1.303 -2.91,2.91 0,1.607 1.303,2.91 2.91,2.91 z m 26.45,-24.737 c -5.477,-3.885 -11.845,-6.596 -18.737,-7.766 v 23.572 c 0.707,0.253 1.397,0.542 2.07,0.86 z m -13.831,37.356 c 0,1.607 1.303,2.91 2.91,2.91 1.607,0 2.91,-1.303 2.91,-2.91 0,-1.607 -1.303,-2.91 -2.91,-2.91 -1.607,0 -2.91,1.303 -2.91,2.91 z m -25.238,0 c 0,-1.607 -1.303,-2.91 -2.91,-2.91 -1.606,0 -2.91,1.303 -2.91,2.91 0,1.607 1.304,2.91 2.91,2.91 1.607,0 2.91,-1.302 2.91,-2.91 z m 2.838,-20.687 c 0.673,-0.319 1.362,-0.609 2.069,-0.862 V 322.49 c -6.893,1.17 -13.26,3.882 -18.737,7.767 z m 9.781,33.306 c -1.607,0 -2.91,1.303 -2.91,2.91 0,1.607 1.303,2.91 2.91,2.91 1.607,0 2.91,-1.303 2.91,-2.91 0,-1.607 -1.302,-2.91 -2.91,-2.91 z m -26.451,24.74 c 5.478,3.885 11.846,6.596 18.739,7.766 v -23.572 c -0.707,-0.253 -1.398,-0.542 -2.071,-0.861 z"
         id="path72"
         inkscape:connector-curvature="0"
         style="fill:#323232" /></g></g></svg>