<?xml version="1.0" encoding="UTF-8" standalone="no"?>
<svg
   xmlns:dc="http://purl.org/dc/elements/1.1/"
   xmlns:cc="http://creativecommons.org/ns#"
   xmlns:rdf="http://www.w3.org/1999/02/22-rdf-syntax-ns#"
   xmlns:svg="http://www.w3.org/2000/svg"
   xmlns="http://www.w3.org/2000/svg"
   xmlns:sodipodi="http://sodipodi.sourceforge.net/DTD/sodipodi-0.dtd"
   xmlns:inkscape="http://www.inkscape.org/namespaces/inkscape"
   version="1.1"
   x="0px"
   y="0px"
   viewBox="0 0 94.679001 45.258999"
   enable-background="new 0 0 100 100"
   xml:space="preserve"
   id="svg3819"
   sodipodi:docname="noun_153483_cc.svg"
   width="94.679001"
   height="45.258999"
   inkscape:version="0.92.2 (5c3e80d, 2017-08-06)"><metadata
     id="metadata3825"><rdf:RDF><cc:Work
         rdf:about=""><dc:format>image/svg+xml</dc:format><dc:type
           rdf:resource="http://purl.org/dc/dcmitype/StillImage" /></cc:Work></rdf:RDF></metadata><defs
     id="defs3823" /><sodipodi:namedview
     pagecolor="#ffffff"
     bordercolor="#666666"
     borderopacity="1"
     objecttolerance="10"
     gridtolerance="10"
     guidetolerance="10"
     inkscape:pageopacity="0"
     inkscape:pageshadow="2"
     inkscape:window-width="1600"
     inkscape:window-height="837"
     id="namedview3821"
     showgrid="false"
     inkscape:zoom="1.888"
     inkscape:cx="46.979"
     inkscape:cy="6.783"
     inkscape:window-x="-8"
     inkscape:window-y="-8"
     inkscape:window-maximized="1"
     inkscape:current-layer="svg3819" /><path
     d="m 23.669,39.308 c 0,3.285 -2.666,5.951 -5.951,5.951 -3.285,0 -5.95,-2.664 -5.95,-5.951 0,-3.285 2.664,-5.949 5.95,-5.949 3.286,-0.002 5.951,2.664 5.951,5.949 z m -3.039,0 c 0,-1.607 -1.303,-2.91 -2.91,-2.91 -1.609,0 -2.911,1.303 -2.911,2.91 0,1.605 1.302,2.91 2.911,2.91 1.607,0 2.91,-1.304 2.91,-2.91 z m 62.8,-28.135 c -0.415,-0.684 -0.615,-0.734 -1.184,-0.734 h -0.191 v 8.791 h 4.875 c 0.564,0 0.766,-0.457 0.449,-1.021 z M 73.237,21.398 c -0.17,-0.204 -0.433,-0.34 -0.785,-0.34 -1.367,0 -1.367,2.043 -0.006,2.043 0.355,0 0.617,-0.137 0.788,-0.341 h 2.461 c 0.907,0 0.907,-1.362 0,-1.362 z m 7.794,-10.959 -7.845,10e-4 c -0.564,0 -1.021,0.457 -1.021,1.021 v 6.748 c 0,0.564 0.457,1.021 1.021,1.021 h 7.845 z M 61.952,0 c 1.127,0 2.043,0.916 2.043,2.043 v 25.921 c 0.106,1.252 2.039,1.216 2.039,-0.109 l 0.005,-6.763 c 0,-0.872 0.491,-1.749 1.605,-1.8 l 10e-4,-9.869 c 0,-0.94 0.764,-1.703 1.705,-1.703 h 0.113 12.566 c 1.408,0 2.219,0.479 2.959,1.703 l 5.553,9.867 c 1.191,0 1.713,0.905 1.713,1.803 l 0.002,11.989 1.402,0.004 c 0.564,0 1.021,0.457 1.021,1.023 V 36.8 c 0,0.564 -0.457,1.02 -1.021,1.02 h -8.852 c -0.695,-3.703 -3.945,-6.502 -7.85,-6.502 -3.905,0 -7.152,2.799 -7.849,6.502 H 25.569 c -0.695,-3.703 -3.945,-6.502 -7.849,-6.502 -3.906,0 -7.154,2.799 -7.851,6.502 H 1.021 C 0.457,37.82 0,37.365 0,36.8 V 34.109 C 0,33.543 0.458,33.086 1.021,33.086 L 2.424,33.082 2.437,2.044 c 0,-1.129 0.916,-2.043 2.044,-2.043 h 57.471 z m 12.094,39.308 c 0,1.605 1.305,2.91 2.911,2.91 1.607,0 2.91,-1.305 2.91,-2.91 0,-1.607 -1.303,-2.91 -2.91,-2.91 -1.606,0 -2.911,1.303 -2.911,2.91 z m -3.039,0 c 0,-3.285 2.664,-5.949 5.95,-5.949 3.287,0 5.949,2.664 5.949,5.949 0,3.287 -2.661,5.951 -5.949,5.951 -3.286,-0.002 -5.95,-2.666 -5.95,-5.951 z"
     id="path3813"
     inkscape:connector-curvature="0"
     style="fill:#000000" /></svg>