<?xml version="1.0" encoding="UTF-8" standalone="no"?>
<svg
   xmlns:dc="http://purl.org/dc/elements/1.1/"
   xmlns:cc="http://creativecommons.org/ns#"
   xmlns:rdf="http://www.w3.org/1999/02/22-rdf-syntax-ns#"
   xmlns:svg="http://www.w3.org/2000/svg"
   xmlns="http://www.w3.org/2000/svg"
   xmlns:sodipodi="http://sodipodi.sourceforge.net/DTD/sodipodi-0.dtd"
   xmlns:inkscape="http://www.inkscape.org/namespaces/inkscape"
   height="58.33342"
   id="svg6584"
   version="1.1"
   width="79.166672"
   sodipodi:docname="VehicleCatalog_bicycle.svg"
   inkscape:version="0.92.2 (5c3e80d, 2017-08-06)">
  <metadata
     id="metadata24">
    <rdf:RDF>
      <cc:Work
         rdf:about="">
        <dc:format>image/svg+xml</dc:format>
        <dc:type
           rdf:resource="http://purl.org/dc/dcmitype/StillImage" />
      </cc:Work>
    </rdf:RDF>
  </metadata>
  <sodipodi:namedview
     pagecolor="#ffffff"
     bordercolor="#666666"
     borderopacity="1"
     objecttolerance="10"
     gridtolerance="10"
     guidetolerance="10"
     inkscape:pageopacity="0"
     inkscape:pageshadow="2"
     inkscape:window-width="1600"
     inkscape:window-height="837"
     id="namedview22"
     showgrid="false"
     inkscape:zoom="6.68"
     inkscape:cx="39.583334"
     inkscape:cy="29.1667"
     inkscape:window-x="-8"
     inkscape:window-y="-8"
     inkscape:window-maximized="1"
     inkscape:current-layer="svg6584" />
  <defs
     id="defs6586" />
  <g
     id="layer1"
     transform="translate(-10.416666,-973.19528)">
    <path
       d="m 62.5,973.19528 -2.083334,4.16667 8.333334,3.12501 v 9.37501 H 39.583333 V 985.6953 H 43.75 v -2.08325 c 0,-1.02538 -1.057959,-2.08334 -2.083334,-2.08334 l -10.416667,-8e-5 c -2.083333,0 -2.083333,2.08333 -2.083333,2.08333 v 2.08334 h 6.25 v 4.16667 l -4.427083,8.85416 c -1.248667,-0.3 -2.566042,-0.5208 -3.90625,-0.5208 -9.20475,0 -16.666667,7.46207 -16.666667,16.66667 0,9.2046 7.461917,16.6667 16.666667,16.6667 9.20475,0 16.666667,-7.4621 16.666667,-16.6667 0,0 4.166666,1e-4 6.25,1e-4 2.083334,0 2.083334,-2.0834 2.083334,-2.0834 0.428041,-6.1275 3.58475,-10.9334 7.682291,-14.06257 2.833,-2.1633 5.886375,-3.49832 8.984375,-4.16665 v 2.60415 1.6927 c -7.184624,1.85247 -12.5,8.25227 -12.5,16.01567 0,9.2046 7.461916,16.6667 16.666667,16.6667 9.204751,0 16.666667,-7.4621 16.666667,-16.6667 0,-7.6179 -5.129541,-13.8967 -12.109375,-15.88547 l -4.557292,-9.11456 v -10.41668 c 0,-1.20792 -0.968791,-2.55146 -2.083333,-2.9948 z m -22.916667,20.83337 h 18.75 c -4.166667,2.08338 -10.416667,12.50005 -10.416667,16.66675 l -4.817708,-10e-5 c -1.053458,-4.085 -3.458208,-7.5248 -6.901042,-9.7656 z m -12.5,10.41665 c 5.752958,0 10.416667,4.6637 10.416667,10.4167 0,5.753 -4.663709,10.4167 -10.416667,10.4167 -5.752959,0 -10.416667,-4.6637 -10.416667,-10.4167 0,-5.753 4.663708,-10.4167 10.416667,-10.4167 z m 45.833333,0 c 5.752959,0 10.416667,4.6637 10.416667,10.4167 0,5.753 -4.663708,10.4167 -10.416667,10.4167 -5.752958,0 -10.416666,-4.6637 -10.416666,-10.4167 0,-5.753 4.663708,-10.4167 10.416666,-10.4167 z"
       id="path5421"
       style="color:#000000;display:inline;overflow:visible;visibility:visible;fill:#000000;fill-opacity:1;fill-rule:nonzero;stroke:none;stroke-width:1;marker:none;enable-background:accumulate"
       inkscape:connector-curvature="0" />
  </g>
</svg>
