<?xml version="1.0" encoding="UTF-8" standalone="no"?>
<!-- Generator: Adobe Illustrator 17.1.0, SVG Export Plug-In . SVG Version: 6.00 Build 0)  -->

<svg
   xmlns:dc="http://purl.org/dc/elements/1.1/"
   xmlns:cc="http://creativecommons.org/ns#"
   xmlns:rdf="http://www.w3.org/1999/02/22-rdf-syntax-ns#"
   xmlns:svg="http://www.w3.org/2000/svg"
   xmlns="http://www.w3.org/2000/svg"
   xmlns:sodipodi="http://sodipodi.sourceforge.net/DTD/sodipodi-0.dtd"
   xmlns:inkscape="http://www.inkscape.org/namespaces/inkscape"
   version="1.1"
   id="Capa_1"
   x="0px"
   y="0px"
   viewBox="0 0 448.033 320.35551"
   xml:space="preserve"
   sodipodi:docname="VehicleCatalog_tram.svg"
   width="448.03299"
   height="320.3555"
   inkscape:version="0.92.2 (5c3e80d, 2017-08-06)"><metadata
     id="metadata4066"><rdf:RDF><cc:Work
         rdf:about=""><dc:format>image/svg+xml</dc:format><dc:type
           rdf:resource="http://purl.org/dc/dcmitype/StillImage" /></cc:Work></rdf:RDF></metadata><defs
     id="defs4064" /><sodipodi:namedview
     pagecolor="#ffffff"
     bordercolor="#666666"
     borderopacity="1"
     objecttolerance="10"
     gridtolerance="10"
     guidetolerance="10"
     inkscape:pageopacity="0"
     inkscape:pageshadow="2"
     inkscape:window-width="640"
     inkscape:window-height="480"
     id="namedview4062"
     showgrid="false"
     inkscape:zoom="0.52674693"
     inkscape:cx="224.01649"
     inkscape:cy="160.17751"
     inkscape:window-x="0"
     inkscape:window-y="0"
     inkscape:window-maximized="0"
     inkscape:current-layer="Capa_1" /><g
     id="g4029"
     transform="translate(0,-63.8385)"><path
       d="M 416.033,159.767 H 312.004 c -0.262,-13.009 -10.918,-23.512 -23.988,-23.512 h -30.61 l 41.46,-21.077 c 2.684,-1.364 4.375,-4.12 4.375,-7.131 0,-3.011 -1.69,-5.767 -4.375,-7.132 L 227.641,64.707 c -2.278,-1.158 -4.973,-1.158 -7.251,0 l -71.224,36.208 c -2.684,1.365 -4.375,4.121 -4.375,7.132 0,3.011 1.69,5.767 4.375,7.131 l 41.46,21.077 h -30.61 c -13.07,0 -23.726,10.503 -23.988,23.512 H 32.033 c -17.645,0 -32,14.355 -32,32 v 125.962 l -0.031,1.295 C 0,319.087 0,319.149 0,319.212 c 0,19.553 13.887,35.921 32.315,39.768 3.262,14.415 16.166,25.214 31.553,25.214 9.704,0 18.417,-4.302 24.352,-11.091 5.936,6.79 14.651,11.091 24.357,11.091 15.078,0 27.778,-10.371 31.348,-24.356 H 312.73 c 3.571,13.984 16.273,24.356 31.354,24.356 9.704,0 18.417,-4.302 24.352,-11.091 5.936,6.79 14.651,11.091 24.357,11.091 15.078,0 27.778,-10.371 31.348,-24.356 h 15.892 c 4.418,0 8,-3.582 8,-8 V 191.767 c 0,-17.644 -14.355,-32 -32,-32 z m -192.017,-78.954 53.571,27.234 -53.571,27.233 -53.571,-27.233 z m 208.017,190.91 h -14.371 c -0.527,-0.109 -1.073,-0.167 -1.633,-0.167 -4.5,0 -8.162,-3.661 -8.162,-8.162 v -55.556 h 24.165 v 63.885 z M 160.016,152.255 h 128 c 4.246,0 7.721,3.329 7.975,7.512 h -143.95 c 0.254,-4.183 3.729,-7.512 7.975,-7.512 z M 16.033,207.838 h 24.165 v 55.556 c 0,4.5 -3.662,8.162 -8.162,8.162 -0.56,0 -1.105,0.057 -1.633,0.167 h -14.37 z m 47.835,160.356 c -6.113,0 -11.445,-3.376 -14.252,-8.356 h 28.498 c -2.807,4.98 -8.136,8.356 -14.246,8.356 z m 48.708,0 c -6.113,0 -11.445,-3.376 -14.252,-8.356 h 28.498 c -2.807,4.98 -8.136,8.356 -14.246,8.356 z m 231.508,0 c -6.113,0 -11.445,-3.376 -14.252,-8.356 h 28.498 c -2.806,4.98 -8.136,8.356 -14.246,8.356 z m 48.708,0 c -6.113,0 -11.445,-3.376 -14.252,-8.356 h 28.498 c -2.806,4.98 -8.136,8.356 -14.246,8.356 z m 24.38,-24.356 c -0.01,0 -0.019,-0.001 -0.029,-0.001 -0.01,0 -0.019,0.001 -0.029,0.001 h -48.651 c -0.01,0 -0.019,-0.001 -0.029,-0.001 -0.01,0 -0.019,0.001 -0.029,0.001 h -48.65 c -0.01,0 -0.019,-0.001 -0.029,-0.001 -0.01,0 -0.019,0.001 -0.029,0.001 H 136.955 c -0.01,0 -0.019,-0.001 -0.029,-0.001 -0.01,0 -0.019,0.001 -0.029,0.001 h -48.65 c -0.01,0 -0.019,-0.001 -0.029,-0.001 -0.01,0 -0.019,0.001 -0.029,0.001 H 40.626 c -13.55,0 -24.579,-11 -24.626,-24.539 l 0.03,-1.288 c 10e-4,-0.063 0.002,-0.126 0.002,-0.188 v -5.651 h 7.907 c 4.418,0 8,-3.582 8,-8 0,-4.418 -3.582,-8 -8,-8 h -7.907 v -8.448 h 16.003 c 0.684,0 1.348,-0.086 1.981,-0.247 12.4,-1.011 22.181,-11.426 22.181,-24.082 v -63.556 c 0,-4.418 -3.582,-8 -8,-8 H 16.033 v -0.071 c 0,-8.823 7.178,-16 16,-16 h 384 c 8.822,0 16,7.177 16,16 v 0.071 h -32.165 c -4.418,0 -8,3.582 -8,8 v 63.556 c 0,12.656 9.781,23.071 22.181,24.082 0.634,0.161 1.297,0.247 1.981,0.247 h 16.003 v 8.448 h -7.908 c -4.418,0 -8,3.582 -8,8 0,4.418 3.582,8 8,8 h 7.908 v 31.667 h -14.861 z"
       id="path4025"
       inkscape:connector-curvature="0" /><path
       d="m 368.208,191.838 c -0.093,0 -0.186,0.002 -0.278,0.005 -0.093,-0.003 -0.186,-0.005 -0.279,-0.005 H 80.13 c -4.418,0 -8,3.582 -8,8 v 63.556 c 0,12.656 9.781,23.071 22.181,24.081 0.634,0.162 1.297,0.247 1.981,0.247 h 255.754 c 0.684,0 1.348,-0.086 1.981,-0.247 12.4,-1.011 22.181,-11.425 22.181,-24.081 v -63.556 c 0,-4.418 -3.581,-8 -8,-8 z m -8,71.557 c 0,4.5 -3.662,8.162 -8.162,8.162 -0.56,0 -1.106,0.057 -1.633,0.167 H 97.925 c -0.527,-0.109 -1.073,-0.167 -1.633,-0.167 -4.5,0 -8.162,-3.661 -8.162,-8.162 v -55.556 h 272.079 v 55.556 z"
       id="path4027"
       inkscape:connector-curvature="0" /></g><g
     id="g4031"
     transform="translate(0,-63.8385)" /><g
     id="g4033"
     transform="translate(0,-63.8385)" /><g
     id="g4035"
     transform="translate(0,-63.8385)" /><g
     id="g4037"
     transform="translate(0,-63.8385)" /><g
     id="g4039"
     transform="translate(0,-63.8385)" /><g
     id="g4041"
     transform="translate(0,-63.8385)" /><g
     id="g4043"
     transform="translate(0,-63.8385)" /><g
     id="g4045"
     transform="translate(0,-63.8385)" /><g
     id="g4047"
     transform="translate(0,-63.8385)" /><g
     id="g4049"
     transform="translate(0,-63.8385)" /><g
     id="g4051"
     transform="translate(0,-63.8385)" /><g
     id="g4053"
     transform="translate(0,-63.8385)" /><g
     id="g4055"
     transform="translate(0,-63.8385)" /><g
     id="g4057"
     transform="translate(0,-63.8385)" /><g
     id="g4059"
     transform="translate(0,-63.8385)" /></svg>