<?xml version="1.0" encoding="UTF-8" standalone="no"?>
<svg
   xmlns:dc="http://purl.org/dc/elements/1.1/"
   xmlns:cc="http://creativecommons.org/ns#"
   xmlns:rdf="http://www.w3.org/1999/02/22-rdf-syntax-ns#"
   xmlns:svg="http://www.w3.org/2000/svg"
   xmlns="http://www.w3.org/2000/svg"
   xmlns:sodipodi="http://sodipodi.sourceforge.net/DTD/sodipodi-0.dtd"
   xmlns:inkscape="http://www.inkscape.org/namespaces/inkscape"
   version="1.1"
   x="0px"
   y="0px"
   viewBox="0 0 92.154526 48"
   enable-background="new 0 0 100 100"
   xml:space="preserve"
   id="svg3763"
   sodipodi:docname="noun_61891_cc.svg"
   width="92.154526"
   height="48"
   inkscape:version="0.92.2 (5c3e80d, 2017-08-06)"><metadata
     id="metadata3769"><rdf:RDF><cc:Work
         rdf:about=""><dc:format>image/svg+xml</dc:format><dc:type
           rdf:resource="http://purl.org/dc/dcmitype/StillImage" /></cc:Work></rdf:RDF></metadata><defs
     id="defs3767" /><sodipodi:namedview
     pagecolor="#ffffff"
     bordercolor="#666666"
     borderopacity="1"
     objecttolerance="10"
     gridtolerance="10"
     guidetolerance="10"
     inkscape:pageopacity="0"
     inkscape:pageshadow="2"
     inkscape:window-width="1600"
     inkscape:window-height="837"
     id="namedview3765"
     showgrid="false"
     inkscape:zoom="1.888"
     inkscape:cx="45"
     inkscape:cy="11.5"
     inkscape:window-x="-8"
     inkscape:window-y="-8"
     inkscape:window-maximized="1"
     inkscape:current-layer="svg3763" /><path
     d="M 72.452,14.979 C 64.027,-6.363 31.452,3 31.452,3 H 10.109 C 10.109,1 7.863,0 7.863,0 H 3.37 C 2.247,0 0,1.124 0,1.124 v 34.26 c 0,2.247 1.966,3.089 1.966,3.089 L 8.425,41 h 6.795 c 0.417,-3.479 3.374,-6.179 6.965,-6.179 3.592,0 6.549,2.7 6.966,6.179 H 30 V 10.754 C 30,9.777 30.689,9 31.827,9 h 8.237 C 41.201,9 42,9.777 42,10.754 V 41 h 1 V 19.657 L 45.212,20 h 0.005 c 0.156,0 0.276,-1.172 0.276,-1.172 l 0.56,0.072 c 0,-0.002 0.002,0.023 0.002,0.023 l 17.412,0.262 c 1.193,0 2.667,0.484 4.185,1.18 l 0.308,-0.524 c 5.054,-1.122 4.492,-4.862 4.492,-4.862 z M 28,21 H 14 V 13 H 28 Z M 61,15 H 49 V 7 h 12 z"
     id="path3749"
     inkscape:connector-curvature="0" /><path
     d="m 90.986,30.874 c 0,0 -3.932,-3.362 -14.603,-4.485 0,0 -8.425,-6.664 -12.917,-6.664 L 46.054,19.34 c 0,0 -2.247,8.661 0,19.661 h 30.385 c 0.416,-3 3.373,-6.178 6.965,-6.178 3.591,0 6.549,3.178 6.965,6.178 h 1.179 c 0,-10e-4 1.685,-5.319 -0.562,-8.127 z M 56,26.315 C 56,27.246 55.245,28 54.314,28 H 47.685 C 46.755,28 46,27.246 46,26.315 V 22.684 C 46,21.754 46.755,21 47.686,21 h 6.629 C 55.245,21 56,21.754 56,22.685 Z M 59,28 V 21.343 C 72,21.062 74.698,28 74.698,28 Z"
     id="path3751"
     inkscape:connector-curvature="0" /><path
     d="m 39.315,10 h -6.74 C 31.645,10 31,10.864 31,11.794 V 41 H 41 V 11.794 C 41,10.864 40.246,10 39.315,10 Z M 39,14.955 v 7.091 0.27 c 0,0.291 -0.08,0.56 -0.21,0.799 C 38.354,24.216 37.273,25 36,25 34.343,25 33,23.677 33,22.045 V 14.954 C 33,13.323 34.343,12 36,12 c 1.273,0 2.354,0.784 2.79,1.886 0.129,0.239 0.21,0.508 0.21,0.799 z"
     id="path3753"
     inkscape:connector-curvature="0" /><path
     d="M 83.5,34 C 79.91,34 77,36.91 77,40.5 77,44.09 79.91,47 83.5,47 87.09,47 90,44.09 90,40.5 90,36.91 87.09,34 83.5,34 Z m 0,11 C 81.015,45 79,42.985 79,40.5 79,38.015 81.015,36 83.5,36 c 2.485,0 4.5,2.015 4.5,4.5 0,2.485 -2.015,4.5 -4.5,4.5 z"
     id="path3755"
     inkscape:connector-curvature="0" /><path
     d="m 22,36 c -3.313,0 -6,2.687 -6,6 0,3.313 2.687,6 6,6 3.313,0 6,-2.687 6,-6 0,-3.313 -2.687,-6 -6,-6 z m 0,10 c -2.209,0 -4,-1.791 -4,-4 0,-2.209 1.791,-4 4,-4 2.209,0 4,1.791 4,4 0,2.209 -1.791,4 -4,4 z"
     id="path3757"
     inkscape:connector-curvature="0" /></svg>
