<?xml version="1.0" encoding="UTF-8" standalone="no"?>
<!-- Generator: Adobe Illustrator 17.1.0, SVG Export Plug-In . SVG Version: 6.00 Build 0)  -->

<svg
   xmlns:dc="http://purl.org/dc/elements/1.1/"
   xmlns:cc="http://creativecommons.org/ns#"
   xmlns:rdf="http://www.w3.org/1999/02/22-rdf-syntax-ns#"
   xmlns:svg="http://www.w3.org/2000/svg"
   xmlns="http://www.w3.org/2000/svg"
   xmlns:sodipodi="http://sodipodi.sourceforge.net/DTD/sodipodi-0.dtd"
   xmlns:inkscape="http://www.inkscape.org/namespaces/inkscape"
   version="1.1"
   id="Capa_1"
   x="0px"
   y="0px"
   viewBox="0 0 464.63861 183.89101"
   xml:space="preserve"
   sodipodi:docname="VehicleCatalog_train.svg"
   width="464.63861"
   height="183.89101"
   inkscape:version="0.92.2 (5c3e80d, 2017-08-06)"><metadata
     id="metadata3980"><rdf:RDF><cc:Work
         rdf:about=""><dc:format>image/svg+xml</dc:format><dc:type
           rdf:resource="http://purl.org/dc/dcmitype/StillImage" /></cc:Work></rdf:RDF></metadata><defs
     id="defs3978" /><sodipodi:namedview
     pagecolor="#ffffff"
     bordercolor="#666666"
     borderopacity="1"
     objecttolerance="10"
     gridtolerance="10"
     guidetolerance="10"
     inkscape:pageopacity="0"
     inkscape:pageshadow="2"
     inkscape:window-width="640"
     inkscape:window-height="480"
     id="namedview3976"
     showgrid="false"
     inkscape:zoom="0.5079223"
     inkscape:cx="232.319"
     inkscape:cy="91.946"
     inkscape:window-x="0"
     inkscape:window-y="0"
     inkscape:window-maximized="0"
     inkscape:current-layer="Capa_1" /><g
     id="g3943"
     transform="translate(0,-140.374)"><path
       d="m 438.252,204.023 -45.113,-36.719 c -14.918,-13.038 -37.71,-26.93 -57.079,-26.93 H 32.033 c -17.645,0 -32,14.355 -32,32 V 257.8 l -0.03,1.294 C 0.001,259.157 0,259.22 0,259.283 c 0,19.553 13.887,35.921 32.315,39.768 3.262,14.415 16.166,25.214 31.553,25.214 9.704,0 18.417,-4.302 24.352,-11.091 5.936,6.79 14.651,11.091 24.357,11.091 15.078,0 27.778,-10.371 31.348,-24.356 h 154.087 c 3.571,13.984 16.274,24.356 31.354,24.356 9.704,0 18.417,-4.302 24.351,-11.091 5.936,6.79 14.651,11.091 24.357,11.091 15.078,0 27.778,-10.371 31.348,-24.356 h 15.367 c 0.245,0 0.488,-0.011 0.728,-0.033 21.384,-0.834 38.558,-18.348 38.846,-39.865 0.599,-5.03 2.629,-33.928 -26.111,-55.988 z m -44.485,-15.578 28.687,23.349 H 354.42 c -0.527,-0.109 -1.073,-0.167 -1.633,-0.167 -4.501,0 -8.162,-3.661 -8.162,-8.162 v -15.021 h 49.142 z M 63.868,308.265 c -6.113,0 -11.445,-3.376 -14.252,-8.356 h 28.498 c -2.807,4.98 -8.136,8.356 -14.246,8.356 z m 48.708,0 c -6.113,0 -11.445,-3.376 -14.252,-8.356 h 28.498 c -2.806,4.98 -8.136,8.356 -14.246,8.356 z m 216.79,0 c -6.113,0 -11.445,-3.376 -14.252,-8.356 h 28.498 c -2.807,4.98 -8.136,8.356 -14.246,8.356 z m 48.708,0 c -6.113,0 -11.445,-3.376 -14.252,-8.356 h 28.498 c -2.807,4.98 -8.136,8.356 -14.246,8.356 z m 70.393,-50.076 c -0.067,0.42 -0.102,0.844 -0.102,1.27 0,13.481 -10.968,24.448 -24.448,24.448 -0.052,0 -0.104,0 -0.154,0.001 h -21.31 c -0.01,0 -0.019,-0.001 -0.029,-0.001 -0.01,0 -0.019,0.001 -0.029,0.001 h -48.65 c -0.01,0 -0.019,-0.001 -0.029,-0.001 -0.01,0 -0.019,0.001 -0.029,0.001 h -48.65 c -0.01,0 -0.019,-0.001 -0.029,-0.001 -0.01,0 -0.019,0.001 -0.029,0.001 H 136.956 c -0.01,0 -0.019,-0.001 -0.029,-0.001 -0.01,0 -0.019,0.001 -0.029,0.001 H 88.247 c -0.01,0 -0.019,-0.001 -0.029,-0.001 -0.01,0 -0.019,0.001 -0.029,0.001 H 40.626 c -13.55,0 -24.579,-11 -24.626,-24.539 l 0.031,-1.288 c 0.001,-0.063 0.002,-0.126 0.002,-0.188 v -85.52 c 0,-8.823 7.178,-16 16,-16 H 336.06 c 11.151,0 25.749,7.311 37.852,16.071 h -37.286 c -4.418,0 -8,3.582 -8,8 v 23.021 c 0,12.656 9.781,23.071 22.182,24.082 0.633,0.161 1.297,0.247 1.98,0.247 h 86.702 c 11.025,14.944 9.083,29.67 8.977,30.395 z"
       id="path3939"
       inkscape:connector-curvature="0" /><path
       d="M 304.542,172.445 H 40.208 c -4.418,0 -8,3.582 -8,8 v 23.448 c 0,13.323 10.839,24.162 24.162,24.162 h 232.01 c 13.322,0 24.161,-10.839 24.161,-24.162 v -23.448 c 10e-4,-4.419 -3.582,-8 -7.999,-8 z m -8,31.448 c 0,4.5 -3.661,8.162 -8.161,8.162 H 56.371 c -4.5,0 -8.162,-3.661 -8.162,-8.162 v -15.448 h 248.333 z"
       id="path3941"
       inkscape:connector-curvature="0" /></g><g
     id="g3945"
     transform="translate(0,-140.374)" /><g
     id="g3947"
     transform="translate(0,-140.374)" /><g
     id="g3949"
     transform="translate(0,-140.374)" /><g
     id="g3951"
     transform="translate(0,-140.374)" /><g
     id="g3953"
     transform="translate(0,-140.374)" /><g
     id="g3955"
     transform="translate(0,-140.374)" /><g
     id="g3957"
     transform="translate(0,-140.374)" /><g
     id="g3959"
     transform="translate(0,-140.374)" /><g
     id="g3961"
     transform="translate(0,-140.374)" /><g
     id="g3963"
     transform="translate(0,-140.374)" /><g
     id="g3965"
     transform="translate(0,-140.374)" /><g
     id="g3967"
     transform="translate(0,-140.374)" /><g
     id="g3969"
     transform="translate(0,-140.374)" /><g
     id="g3971"
     transform="translate(0,-140.374)" /><g
     id="g3973"
     transform="translate(0,-140.374)" /></svg>