<?xml version="1.0" encoding="UTF-8" standalone="no"?>
<!-- Generator: Adobe Illustrator 19.0.0, SVG Export Plug-In . SVG Version: 6.00 Build 0)  -->

<svg
   xmlns:dc="http://purl.org/dc/elements/1.1/"
   xmlns:cc="http://creativecommons.org/ns#"
   xmlns:rdf="http://www.w3.org/1999/02/22-rdf-syntax-ns#"
   xmlns:svg="http://www.w3.org/2000/svg"
   xmlns="http://www.w3.org/2000/svg"
   xmlns:sodipodi="http://sodipodi.sourceforge.net/DTD/sodipodi-0.dtd"
   xmlns:inkscape="http://www.inkscape.org/namespaces/inkscape"
   version="1.1"
   id="Layer_1"
   x="0px"
   y="0px"
   viewBox="0 0 196.00005 108.50001"
   xml:space="preserve"
   sodipodi:docname="VehicleCatalog_trailer.svg"
   width="196.00005"
   height="108.50001"
   inkscape:version="0.92.2 (5c3e80d, 2017-08-06)"><metadata
     id="metadata3894"><rdf:RDF><cc:Work
         rdf:about=""><dc:format>image/svg+xml</dc:format><dc:type
           rdf:resource="http://purl.org/dc/dcmitype/StillImage" /></cc:Work></rdf:RDF></metadata><defs
     id="defs3892" /><sodipodi:namedview
     pagecolor="#ffffff"
     bordercolor="#666666"
     borderopacity="1"
     objecttolerance="10"
     gridtolerance="10"
     guidetolerance="10"
     inkscape:pageopacity="0"
     inkscape:pageshadow="2"
     inkscape:window-width="640"
     inkscape:window-height="480"
     id="namedview3890"
     showgrid="false"
     inkscape:zoom="1.2040816"
     inkscape:cx="98"
     inkscape:cy="54.25"
     inkscape:window-x="0"
     inkscape:window-y="0"
     inkscape:window-maximized="0"
     inkscape:current-layer="Layer_1" /><g
     id="g3857"
     transform="translate(0,-43.749991)"><g
       id="g3855"><g
         id="g3853"><path
           d="m 189,78.75 v -31.5 c 0,-0.94 -0.378,-1.841 -1.049,-2.499 -0.67,-0.658 -1.538,-1.003 -2.519,-1.001 l -68.877,1.343 c -0.577,0.012 -1.143,0.166 -1.647,0.449 L 99.425,54.25 H 3.5 c -1.933,0 -3.5,1.567 -3.5,3.5 v 77 c 0,1.933 1.567,3.5 3.5,3.5 h 24.854 c 1.626,7.978 8.696,14 17.146,14 8.45,0 15.52,-6.022 17.146,-14 H 105 c 1.933,0 3.5,-1.567 3.5,-3.5 v -52.5 h 77 c 1.933,0 3.5,-1.567 3.5,-3.5 z m -143.5,66.5 c -5.79,0 -10.5,-4.71 -10.5,-10.5 0,-5.79 4.71,-10.5 10.5,-10.5 5.79,0 10.5,4.71 10.5,10.5 0,5.79 -4.71,10.5 -10.5,10.5 z m 136.5,-70 h -77 c -1.933,0 -3.5,1.567 -3.5,3.5 v 52.5 H 62.648 c -0.001,-0.003 -0.002,-0.006 -0.003,-0.009 -0.013,-0.063 -0.041,-0.12 -0.054,-0.183 -0.218,-1.008 -0.524,-1.981 -0.907,-2.917 -0.136,-0.333 -0.32,-0.636 -0.476,-0.959 -0.31,-0.642 -0.631,-1.273 -1.015,-1.868 -0.223,-0.347 -0.477,-0.664 -0.723,-0.993 -0.391,-0.523 -0.796,-1.029 -1.241,-1.504 -0.293,-0.312 -0.598,-0.603 -0.912,-0.892 -0.471,-0.434 -0.96,-0.838 -1.476,-1.218 -0.344,-0.255 -0.688,-0.501 -1.052,-0.73 -0.555,-0.35 -1.134,-0.652 -1.729,-0.939 -0.372,-0.18 -0.734,-0.37 -1.12,-0.524 -0.672,-0.267 -1.372,-0.464 -2.081,-0.647 -0.348,-0.09 -0.679,-0.212 -1.035,-0.28 -1.079,-0.209 -2.186,-0.336 -3.325,-0.336 -1.139,0 -2.246,0.127 -3.325,0.336 -0.355,0.069 -0.687,0.19 -1.035,0.28 -0.709,0.183 -1.409,0.38 -2.081,0.647 -0.386,0.154 -0.748,0.344 -1.12,0.524 -0.594,0.287 -1.174,0.589 -1.729,0.939 -0.363,0.23 -0.707,0.476 -1.052,0.73 -0.516,0.381 -1.005,0.784 -1.476,1.218 -0.314,0.29 -0.62,0.58 -0.912,0.892 -0.446,0.475 -0.85,0.981 -1.241,1.504 -0.246,0.329 -0.5,0.646 -0.723,0.993 -0.384,0.595 -0.705,1.226 -1.015,1.868 -0.156,0.322 -0.339,0.625 -0.476,0.959 -0.384,0.936 -0.689,1.909 -0.907,2.917 -0.013,0.063 -0.041,0.12 -0.054,0.183 -0.001,0.004 -0.002,0.006 -0.003,0.009 H 7 v -70 h 93.341 c 0.602,0 1.191,-0.155 1.716,-0.449 L 117.571,52.077 182,50.818 Z"
           id="path3845"
           inkscape:connector-curvature="0" /><path
           d="m 195.481,132.916 -28,-45.5 C 166.843,86.38 165.716,85.75 164.5,85.75 h -49 c -1.933,0 -3.5,1.567 -3.5,3.5 v 45.5 c 0,1.933 1.567,3.5 3.5,3.5 h 21.354 c 1.626,7.978 8.696,14 17.146,14 8.45,0 15.52,-6.022 17.146,-14 H 192.5 c 1.268,0 2.437,-0.685 3.056,-1.793 0.618,-1.107 0.589,-2.461 -0.075,-3.541 z M 154,145.25 c -5.79,0 -10.5,-4.71 -10.5,-10.5 0,-5.79 4.71,-10.5 10.5,-10.5 5.79,0 10.5,4.71 10.5,10.5 0,5.79 -4.71,10.5 -10.5,10.5 z m 17.148,-14 c -0.001,-0.003 -0.002,-0.006 -0.003,-0.009 -0.013,-0.063 -0.041,-0.12 -0.054,-0.183 -0.218,-1.008 -0.524,-1.981 -0.907,-2.917 -0.136,-0.333 -0.32,-0.636 -0.476,-0.959 -0.31,-0.642 -0.631,-1.273 -1.015,-1.868 -0.223,-0.347 -0.477,-0.664 -0.723,-0.993 -0.391,-0.523 -0.796,-1.029 -1.241,-1.504 -0.293,-0.312 -0.598,-0.603 -0.912,-0.892 -0.471,-0.434 -0.96,-0.838 -1.476,-1.218 -0.344,-0.255 -0.688,-0.501 -1.052,-0.73 -0.555,-0.35 -1.134,-0.652 -1.729,-0.939 -0.372,-0.18 -0.734,-0.37 -1.12,-0.524 -0.672,-0.267 -1.372,-0.464 -2.081,-0.647 -0.348,-0.09 -0.679,-0.212 -1.035,-0.28 -1.079,-0.209 -2.186,-0.336 -3.325,-0.336 -1.139,0 -2.246,0.127 -3.325,0.336 -0.355,0.069 -0.687,0.19 -1.035,0.28 -0.709,0.183 -1.409,0.38 -2.081,0.647 -0.386,0.154 -0.748,0.344 -1.12,0.524 -0.594,0.287 -1.174,0.589 -1.729,0.939 -0.363,0.23 -0.707,0.476 -1.052,0.73 -0.516,0.381 -1.005,0.784 -1.476,1.218 -0.314,0.29 -0.62,0.58 -0.912,0.892 -0.446,0.475 -0.85,0.981 -1.241,1.504 -0.246,0.329 -0.5,0.646 -0.723,0.993 -0.384,0.595 -0.705,1.226 -1.015,1.868 -0.156,0.322 -0.339,0.625 -0.476,0.959 -0.384,0.936 -0.689,1.909 -0.907,2.917 -0.013,0.063 -0.041,0.12 -0.054,0.183 -0.001,0.003 -0.002,0.006 -0.003,0.009 H 119 v -38.5 h 43.545 l 23.692,38.5 z"
           id="path3847"
           inkscape:connector-curvature="0" /><path
           d="M 94.5,71.75 H 14 c -1.933,0 -3.5,1.567 -3.5,3.5 v 24.5 c 0,1.933 1.567,3.5 3.5,3.5 h 80.5 c 1.933,0 3.5,-1.567 3.5,-3.5 v -24.5 c 0,-1.933 -1.567,-3.5 -3.5,-3.5 z M 35,96.25 H 17.5 V 78.75 H 35 Z m 56,0 H 42 v -17.5 h 49 z"
           id="path3849"
           inkscape:connector-curvature="0" /><rect
           x="122.5"
           y="96.25"
           width="7"
           height="17.5"
           id="rect3851" /></g></g></g><g
     id="g3859"
     transform="translate(0,-43.749991)" /><g
     id="g3861"
     transform="translate(0,-43.749991)" /><g
     id="g3863"
     transform="translate(0,-43.749991)" /><g
     id="g3865"
     transform="translate(0,-43.749991)" /><g
     id="g3867"
     transform="translate(0,-43.749991)" /><g
     id="g3869"
     transform="translate(0,-43.749991)" /><g
     id="g3871"
     transform="translate(0,-43.749991)" /><g
     id="g3873"
     transform="translate(0,-43.749991)" /><g
     id="g3875"
     transform="translate(0,-43.749991)" /><g
     id="g3877"
     transform="translate(0,-43.749991)" /><g
     id="g3879"
     transform="translate(0,-43.749991)" /><g
     id="g3881"
     transform="translate(0,-43.749991)" /><g
     id="g3883"
     transform="translate(0,-43.749991)" /><g
     id="g3885"
     transform="translate(0,-43.749991)" /><g
     id="g3887"
     transform="translate(0,-43.749991)" /></svg>