<?xml version="1.0" encoding="UTF-8" standalone="no"?>
<svg
   xmlns:dc="http://purl.org/dc/elements/1.1/"
   xmlns:cc="http://creativecommons.org/ns#"
   xmlns:rdf="http://www.w3.org/1999/02/22-rdf-syntax-ns#"
   xmlns:svg="http://www.w3.org/2000/svg"
   xmlns="http://www.w3.org/2000/svg"
   xmlns:sodipodi="http://sodipodi.sourceforge.net/DTD/sodipodi-0.dtd"
   xmlns:inkscape="http://www.inkscape.org/namespaces/inkscape"
   enable-background="new 0 0 26 26"
   id="Слой_1"
   version="1.1"
   viewBox="0 0 24.001953 17.078125"
   xml:space="preserve"
   sodipodi:docname="VehicleCatalog_truck.svg"
   width="24.001953"
   height="17.078125"
   inkscape:version="0.92.2 (5c3e80d, 2017-08-06)"><metadata
     id="metadata4084"><rdf:RDF><cc:Work
         rdf:about=""><dc:format>image/svg+xml</dc:format><dc:type
           rdf:resource="http://purl.org/dc/dcmitype/StillImage" /></cc:Work></rdf:RDF></metadata><defs
     id="defs4082" /><sodipodi:namedview
     pagecolor="#ffffff"
     bordercolor="#666666"
     borderopacity="1"
     objecttolerance="10"
     gridtolerance="10"
     guidetolerance="10"
     inkscape:pageopacity="0"
     inkscape:pageshadow="2"
     inkscape:window-width="640"
     inkscape:window-height="480"
     id="namedview4080"
     showgrid="false"
     inkscape:zoom="9.0769231"
     inkscape:cx="12.000977"
     inkscape:cy="8.5390625"
     inkscape:window-x="0"
     inkscape:window-y="0"
     inkscape:window-maximized="0"
     inkscape:current-layer="Слой_1" /><path
     d="M 16.311524,1.0341797 V 0.75 c 0,-0.4140625 -0.335938,-0.75 -0.75,-0.75 H 0.75 C 0.3359375,0 0,0.3359375 0,0.75 v 13.578125 c 0,0.414063 0.3359375,0.75 0.75,0.75 h 3.0946045 c 0.3288574,1.150635 1.3780518,2 2.6329346,2 1.2548828,0 2.3040771,-0.849365 2.6329345,-2 h 6.4510504 1.256714 c 0.328857,1.150635 1.378052,2 2.632934,2 1.254883,0 2.304077,-0.849365 2.632935,-2 h 0.994019 c 0.03082,0 0.05707,-0.01398 0.08691,-0.01758 0.02985,0.0036 0.05609,0.01758 0.08691,0.01758 0.414062,0 0.75,-0.335937 0.75,-0.75 V 8.5883785 c 0,-3.9564815 -3.386841,-7.2113033 -7.69043,-7.5541988 z m 6.16156,7.0541988 H 19.65625 C 18.9375,7.8916015 18.791993,6.6044925 18.791993,4.6000976 v -1.395935 c 2.044067,0.9476318 3.483154,2.7630619 3.681091,4.8842159 z M 17.791993,2.8284912 v 1.7716064 c 0,2.1738279 0.129882,4.1518559 1.704101,4.4780269 0.0332,0.0068 0.06738,0.01025 0.101563,0.01025 h 2.904297 V 13.57812 h -0.417847 c -0.328857,-1.150634 -1.378052,-2 -2.632935,-2 -1.254882,0 -2.304077,0.849366 -2.632934,2 H 15.561524 9.1104736 C 8.9992066,13.188843 8.8069458,12.837342 8.5489502,12.539063 h 7.0125738 c 0.201355,0 0.372253,-0.1203 0.451538,-0.291627 0.177063,-0.137267 0.298462,-0.342162 0.298462,-0.583373 V 2.5370483 c 0.512939,0.048584 1.007019,0.1499024 1.480469,0.2914429 z M 14.811524,11.539063 H 1.5 V 1.5 h 13.311524 z m -13.311524,1 h 2.9061279 c -0.2579956,0.298279 -0.4502563,0.64978 -0.5615234,1.039062 H 1.5 Z m 4.9775391,3.039062 c -0.6894531,0 -1.25,-0.560546 -1.25,-1.25 0,-0.689453 0.5605469,-1.25 1.25,-1.25 0.6885986,0 1.2481689,0.559327 1.2495117,1.247559 0,8.55e-4 -4.883e-4,0.0016 -4.883e-4,0.0024 0,8.55e-4 4.883e-4,0.0016 4.883e-4,0.0024 -0.00134,0.688232 -0.5609131,1.247558 -1.2495117,1.247558 z m 12.9736329,0 c -0.689453,0 -1.25,-0.560546 -1.25,-1.25 0,-0.689453 0.560547,-1.25 1.25,-1.25 0.689453,0 1.25,0.560547 1.25,1.25 0,0.689454 -0.560547,1.25 -1.25,1.25 z"
     id="path4077"
     inkscape:connector-curvature="0"
     style="fill:#1d1d1b" /></svg>