<?xml version="1.0" encoding="UTF-8" standalone="no"?>
<svg
   xmlns:dc="http://purl.org/dc/elements/1.1/"
   xmlns:cc="http://creativecommons.org/ns#"
   xmlns:rdf="http://www.w3.org/1999/02/22-rdf-syntax-ns#"
   xmlns:svg="http://www.w3.org/2000/svg"
   xmlns="http://www.w3.org/2000/svg"
   xmlns:sodipodi="http://sodipodi.sourceforge.net/DTD/sodipodi-0.dtd"
   xmlns:inkscape="http://www.inkscape.org/namespaces/inkscape"
   enable-background="new 0 0 1000 600"
   height="357.69"
   id="Shape_1_9_"
   overflow="visible"
   version="1.1"
   viewBox="0 0 884.63672 357.69"
   width="884.63672"
   xml:space="preserve"
   sodipodi:docname="VehicleCatalog_van.svg"
   style="overflow:visible"
   inkscape:version="0.92.2 (5c3e80d, 2017-08-06)"><metadata
     id="metadata32"><rdf:RDF><cc:Work
         rdf:about=""><dc:format>image/svg+xml</dc:format><dc:type
           rdf:resource="http://purl.org/dc/dcmitype/StillImage" /></cc:Work></rdf:RDF></metadata><defs
     id="defs30" /><sodipodi:namedview
     pagecolor="#ffffff"
     bordercolor="#666666"
     borderopacity="1"
     objecttolerance="10"
     gridtolerance="10"
     guidetolerance="10"
     inkscape:pageopacity="0"
     inkscape:pageshadow="2"
     inkscape:window-width="1600"
     inkscape:window-height="837"
     id="namedview28"
     showgrid="false"
     inkscape:zoom="1.1133333"
     inkscape:cx="442.61117"
     inkscape:cy="178.688"
     inkscape:window-x="-8"
     inkscape:window-y="-8"
     inkscape:window-maximized="1"
     inkscape:current-layer="Shape_1_9_" /><g
     id="Shape_1"
     transform="translate(-57.388831,-120.998)"><g
       id="g24"><path
         d="m 252.399,396.383 c -3.815,0 -6.907,3.092 -6.907,6.907 0,3.814 3.092,6.906 6.907,6.906 3.814,0 6.907,-3.092 6.907,-6.906 0,-3.815 -3.092,-6.907 -6.907,-6.907 z m 0,19.599 c -1.617,0 -2.927,1.312 -2.927,2.928 0,1.617 1.311,2.928 2.927,2.928 1.617,0 2.928,-1.311 2.928,-2.928 0,-1.616 -1.311,-2.928 -2.928,-2.928 z m 20.815,-2.85 16.767,16.768 c 3.909,-5.51 6.635,-11.917 7.812,-18.852 h -23.716 c -0.255,0.711 -0.542,1.407 -0.863,2.084 z m -13.056,11.838 v 23.713 c 6.935,-1.177 13.339,-3.906 18.85,-7.813 L 262.24,424.102 c -0.677,0.321 -1.371,0.613 -2.082,0.868 z m 13.054,-31.522 c 0.321,0.677 0.611,1.371 0.866,2.083 h 23.714 c -1.177,-6.935 -3.905,-13.341 -7.813,-18.851 z m -30.653,-10.97 c 0.677,-0.321 1.371,-0.613 2.082,-0.868 v -23.713 c -6.934,1.177 -13.339,3.905 -18.85,7.813 z m -16.768,58.392 c 5.51,3.908 11.916,6.636 18.851,7.813 V 424.97 c -0.712,-0.255 -1.406,-0.546 -2.084,-0.867 z m 39.302,-37.582 c 0,1.617 1.311,2.928 2.928,2.928 1.617,0 2.928,-1.311 2.928,-2.928 0,-1.616 -1.311,-2.927 -2.928,-2.927 -1.617,0 -2.928,1.311 -2.928,2.927 z m -25.388,0 c 0,-1.616 -1.311,-2.927 -2.928,-2.927 -1.617,0 -2.928,1.311 -2.928,2.927 0,1.617 1.311,2.928 2.928,2.928 1.617,0 2.928,-1.311 2.928,-2.928 z m 39.303,-37.579 c -5.51,-3.908 -11.916,-6.636 -18.85,-7.813 v 23.713 c 0.711,0.255 1.406,0.546 2.083,0.866 z m -26.609,24.886 c 1.617,0 2.928,-1.312 2.928,-2.928 0,-1.617 -1.311,-2.928 -2.928,-2.928 -1.617,0 -2.927,1.311 -2.927,2.928 0,1.616 1.31,2.928 2.927,2.928 z m 0,-62.704 c -41.642,0 -75.399,33.758 -75.399,75.399 0,41.641 33.757,75.398 75.399,75.398 41.641,0 75.398,-33.758 75.398,-75.398 10e-4,-41.642 -33.756,-75.399 -75.398,-75.399 z m 0,129.255 c -29.744,0 -53.856,-24.112 -53.856,-53.855 0,-29.744 24.112,-53.856 53.856,-53.856 29.744,0 53.855,24.112 53.855,53.856 10e-4,29.742 -24.111,53.855 -53.855,53.855 z M 230.72,411.048 h -23.714 c 1.177,6.935 3.904,13.341 7.813,18.851 l 16.768,-16.768 c -0.322,-0.678 -0.612,-1.372 -0.867,-2.083 z m 0.864,-17.602 -16.767,-16.767 c -3.909,5.51 -6.635,11.917 -7.812,18.852 h 23.715 c 0.257,-0.712 0.544,-1.408 0.864,-2.085 z m 564.758,2.937 c -3.814,0 -6.907,3.092 -6.907,6.907 0,3.814 3.093,6.906 6.907,6.906 3.814,0 6.907,-3.092 6.907,-6.906 0,-3.815 -3.093,-6.907 -6.907,-6.907 z m 7.758,28.587 v 23.713 c 6.935,-1.177 13.341,-3.904 18.851,-7.813 l -16.767,-16.768 c -0.678,0.322 -1.372,0.613 -2.084,0.868 z m 18.849,-59.26 c -5.51,-3.908 -11.915,-6.637 -18.85,-7.813 v 23.713 c 0.712,0.255 1.405,0.547 2.082,0.868 z m -5.794,47.421 16.767,16.768 c 3.909,-5.51 6.637,-11.916 7.813,-18.851 h -23.714 c -0.254,0.711 -0.545,1.405 -0.866,2.083 z m 123.497,-56.359 c -2.676,-7.189 -12.334,-4.557 -15.23,-9.139 16.59,-23.825 -2.443,-68.09 -0.763,-66.019 -6.258,-9.752 -20.398,-14.986 -31.526,-19.883 -15.559,-6.847 -32.441,-14.373 -49.348,-20.104 -9.293,-3.15 -17.867,-4.189 -27.416,-7.312 -10.953,-3.581 -20.769,-8.661 -21.522,-8.661 0.271,0.248 0.535,0.491 0.81,0.741 -0.73,-0.519 -0.969,-0.742 -0.81,-0.741 C 708.016,141.743 673.4,131.389 639.693,123.435 c -0.828,-0.195 -41.427,-2.437 -41.427,-2.437 0,0 -360.137,0.115 -463.016,0.115 -6.033,1.382 -12.471,5.415 -17.059,8.414 -8.871,5.8 -10.008,16.563 -14.012,27.415 -8.28,22.44 -29.782,81.431 -29.852,194.345 -0.002,2.757 -8.201,0.38 -9.748,3.046 -23.61,40.707 16.817,59.703 36.554,59.705 11.27,0 70.67,9.139 70.67,9.139 h 3.491 c -1.481,-6.054 -2.272,-12.377 -2.272,-18.887 0,-43.741 35.459,-79.2 79.2,-79.2 43.741,0 79.2,35.459 79.2,79.2 0,6.51 -0.791,12.833 -2.271,18.887 h 390.963 c -1.592,-6.234 -2.439,-12.766 -2.439,-19.496 0,-43.404 35.187,-78.591 78.591,-78.591 43.405,0 78.591,35.187 78.591,78.591 0,6.73 -0.848,13.262 -2.438,19.496 h 23.152 c 0,0 10.372,-5.148 12.794,-8.529 2.309,-3.224 1.834,-6.563 5.483,-8.529 16.377,-8.83 28.008,-8.8 28.024,-34.727 0.002,-4.778 0.789,-11.647 -1.22,-14.62 z M 704.551,210.925 c -2.555,3.881 -7.804,2.414 -7.921,29.852 -39.596,-0.405 -117.581,-1.218 -117.581,-1.218 0,0 -0.232,-92.826 -0.589,-94.435 -0.007,0.002 -0.014,0.003 -0.021,0.004 0.007,-0.036 0.014,-0.034 0.021,-0.004 17.021,-2.842 48.971,-4.055 71.26,1.222 57.918,16.805 79.257,52.489 91.784,67.757 -5.99,-0.092 -32.603,-4.203 -36.953,-3.178 z M 786.5,382.476 c 0.678,-0.32 1.372,-0.611 2.083,-0.866 v -23.713 c -6.935,1.177 -13.34,3.904 -18.85,7.813 z m 30.656,10.97 c 0.321,0.677 0.608,1.373 0.863,2.085 h 23.716 c -1.177,-6.935 -3.903,-13.342 -7.813,-18.852 z m -20.814,-65.555 c -41.642,0 -75.398,33.758 -75.398,75.399 0,41.641 33.757,75.398 75.398,75.398 41.641,0 75.398,-33.758 75.398,-75.398 0,-41.642 -33.757,-75.399 -75.398,-75.399 z m 0,129.255 c -29.744,0 -53.856,-24.112 -53.856,-53.855 0,-29.744 24.112,-53.856 53.856,-53.856 29.744,0 53.856,24.112 53.856,53.856 0,29.742 -24.112,53.855 -53.856,53.855 z m 0,-41.164 c -1.617,0 -2.928,1.312 -2.928,2.928 0,1.617 1.311,2.928 2.928,2.928 1.617,0 2.928,-1.311 2.928,-2.928 0,-1.616 -1.311,-2.928 -2.928,-2.928 z m -12.695,-12.694 c 0,-1.616 -1.311,-2.927 -2.928,-2.927 -1.616,0 -2.928,1.311 -2.928,2.927 0,1.617 1.312,2.928 2.928,2.928 1.618,0 2.928,-1.311 2.928,-2.928 z m -8.119,-9.84 -16.767,-16.768 c -3.908,5.51 -6.637,11.916 -7.813,18.851 h 23.714 c 0.255,-0.712 0.546,-1.406 0.866,-2.083 z m 33.508,9.84 c 0,1.617 1.311,2.928 2.928,2.928 1.616,0 2.928,-1.311 2.928,-2.928 0,-1.616 -1.312,-2.927 -2.928,-2.927 -1.617,0 -2.928,1.311 -2.928,2.927 z m -12.694,-12.693 c 1.617,0 2.928,-1.312 2.928,-2.928 0,-1.617 -1.311,-2.928 -2.928,-2.928 -1.617,0 -2.928,1.311 -2.928,2.928 0,1.616 1.311,2.928 2.928,2.928 z m -26.609,50.274 c 5.511,3.907 11.915,6.637 18.85,7.813 V 424.97 c -0.711,-0.255 -1.404,-0.547 -2.082,-0.868 z m 4.931,-29.821 h -23.716 c 1.177,6.935 3.903,13.342 7.812,18.852 l 16.768,-16.768 c -0.322,-0.677 -0.609,-1.373 -0.864,-2.084 z"
         id="path22"
         inkscape:connector-curvature="0"
         style="fill:#323232" /></g></g></svg>