#define BACKWARD_width 16
#define BACKWARD_height 16
static char BACKWARD_bits[] = {
   0x00, 0x3e, 0x00, 0x3f, 0x80, 0x0f, 0xc0, 0x07, 0xe0, 0x03, 0xf0, 0x01,
   0xf8, 0x00, 0x7c, 0x00, 0x7c, 0x00, 0xf8, 0x00, 0xf0, 0x01, 0xe0, 0x03,
   0xc0, 0x07, 0x80, 0x0f, 0x00, 0x3f, 0x00, 0x3e};
