#define desc_width 16
#define desc_height 16
static char desc_bits[] = {
   0x70, 0x00, 0xf0, 0x00, 0xf0, 0x01, 0xf0, 0x03, 0xf0, 0x07, 0xf0, 0x0f,
   0xf0, 0x1f, 0xf0, 0x3f, 0xf0, 0x3f, 0xf0, 0x1f, 0xf0, 0x0f, 0xf0, 0x07,
   0xf0, 0x03, 0xf0, 0x01, 0xf0, 0x00, 0x70, 0x00};
