#define REVERSE_width 16
#define REVERSE_height 16
static char REVERSE_bits[] = {
   0x00, 0x0e, 0x00, 0x0f, 0x80, 0x0f, 0xc0, 0x0f, 0xe0, 0x0f, 0xf0, 0x0f,
   0xf8, 0x0f, 0xfc, 0x0f, 0xfc, 0x0f, 0xf8, 0x0f, 0xf0, 0x0f, 0xe0, 0x0f,
   0xc0, 0x0f, 0x80, 0x0f, 0x00, 0x0f, 0x00, 0x0e};
