#define STOP_width 16
#define STOP_height 16
static char STOP_bits[] = {
   0x00, 0x00, 0x00, 0x00, 0x00, 0x00, 0xf8, 0x1f, 0xf8, 0x1f, 0xf8, 0x1f,
   0xf8, 0x1f, 0xf8, 0x1f, 0xf8, 0x1f, 0xf8, 0x1f, 0xf8, 0x1f, 0xf8, 0x1f,
   0xf8, 0x1f, 0x00, 0x00, 0x00, 0x00, 0x00, 0x00};
