/* XPM */
static const char * find_xpm[] = {
"24 24 300 2",
"  	c None",
". 	c #fffffe",
"X 	c #fefbfa",
"o 	c #fbf5f3",
"O 	c #f9efed",
"+ 	c #f8edea",
"@ 	c #f9eeec",
"# 	c #faf1ef",
"$ 	c #fcf7f6",
"% 	c #fefdfd",
"& 	c #fbf6f4",
"* 	c #eac5bd",
"= 	c #cc7662",
"- 	c #b23213",
"; 	c #a91b00",
": 	c #a91c00",
"> 	c #ae2706",
", 	c #bc4b30",
"< 	c #d69281",
"1 	c #f5e3df",
"2 	c #fefcfc",
"3 	c #eed3cf",
"4 	c #d39081",
"5 	c #c86438",
"6 	c #c44c02",
"7 	c #c54c00",
"8 	c #c64f00",
"9 	c #c44900",
"0 	c #c14e16",
"q 	c #c96e54",
"w 	c #dfaaa0",
"e 	c #f6e8e5",
"r 	c #eed4cf",
"t 	c #c9715c",
"y 	c #b83808",
"u 	c #d67302",
"i 	c #f2a70c",
"p 	c #fcbd12",
"a 	c #ffc111",
"s 	c #f7b40d",
"d 	c #e08803",
"f 	c #c44d03",
"g 	c #b53914",
"h 	c #d58f82",
"j 	c #faf0ee",
"k 	c #efd4ce",
"l 	c #cb7766",
"z 	c #bf4308",
"x 	c #e27900",
"c 	c #e9b830",
"v 	c #ecd96a",
"b 	c #f5e786",
"n 	c #f5e882",
"m 	c #eee071",
"M 	c #f3c634",
"N 	c #ee9100",
"B 	c #c85500",
"V 	c #b9441c",
"C 	c #da9e92",
"Z 	c #d69382",
"A 	c #bf4922",
"S 	c #ce5e02",
"D 	c #ecb637",
"F 	c #ebe79b",
"G 	c #e9f4d8",
"H 	c #ecf4e3",
"J 	c #ebf3e0",
"K 	c #eaf3d8",
"L 	c #f0eba4",
"P 	c #f6ca4b",
"I 	c #ef9708",
"U 	c #c44400",
"Y 	c #be5946",
"T 	c #f3dfdb",
"R 	c #fffeff",
"E 	c #be5034",
"W 	c #ce490a",
"Q 	c #df8621",
"! 	c #d8cf94",
"~ 	c #ebfcef",
"^ 	c #f6ffff",
"/ 	c #f4fefb",
"( 	c #f4fffb",
") 	c #f7ffff",
"_ 	c #effcf7",
"` 	c #ece5b3",
"' 	c #feb927",
"] 	c #d96600",
"[ 	c #bb4c26",
"{ 	c #e2b1a6",
"} 	c #fcf7f7",
"| 	c #b02703",
" .	c #dc4b00",
"..	c #eca03c",
"X.	c #c7e5d6",
"o.	c #e1fdff",
"O.	c #f3fbf9",
"+.	c #effaf8",
"@.	c #f0fbf9",
"#.	c #f3fafa",
"$.	c #eeffff",
"%.	c #e7f0dc",
"&.	c #e8b455",
"*.	c #db7b0a",
"=.	c #c95d1a",
"-.	c #d79586",
";.	c #f8edec",
":.	c #af2200",
">.	c #e64f00",
",.	c #e9a242",
"<.	c #a7dfe0",
"1.	c #c5f3fb",
"2.	c #def1ec",
"3.	c #daf1ee",
"4.	c #def2ee",
"5.	c #e3f4ef",
"6.	c #ddf8f6",
"7.	c #d1e8d7",
"8.	c #ceb777",
"9.	c #d6811c",
"0.	c #d1611a",
"q.	c #d69483",
"w.	c #f7ebea",
"e.	c #b22a07",
"r.	c #e74a00",
"t.	c #e1953e",
"y.	c #89ccd6",
"u.	c #96ddf0",
"i.	c #afdde1",
"p.	c #b2dfe3",
"a.	c #b8e2e3",
"s.	c #bce3e3",
"d.	c #aee8ed",
"f.	c #a8d8ce",
"g.	c #c9ab6e",
"h.	c #d87418",
"j.	c #cf5a1e",
"k.	c #db9f91",
"l.	c #faf3f2",
"z.	c #ba4223",
"x.	c #d93e00",
"c.	c #db762b",
"v.	c #99aba1",
"b.	c #78c5de",
"n.	c #7ac9e4",
"m.	c #87cbdf",
"M.	c #8bcedf",
"N.	c #8ccfdf",
"B.	c #80d2e5",
"V.	c #92bfb8",
"C.	c #db8d43",
"Z.	c #e46706",
"A.	c #c85719",
"S.	c #d18877",
"D.	c #f2dfdc",
"F.	c #c5654c",
"G.	c #c33c11",
"H.	c #db4e06",
"J.	c #d48144",
"K.	c #84b3c3",
"L.	c #60c3f4",
"P.	c #6cc1e8",
"I.	c #6fc3e6",
"U.	c #6dc6ea",
"Y.	c #78c2da",
"T.	c #aaa38e",
"R.	c #f4731a",
"E.	c #f47200",
"W.	c #c55b04",
"Q.	c #b43c22",
"!.	c #d49085",
"~.	c #e6bdb4",
"^.	c #c25c43",
"/.	c #c52d00",
"(.	c #ea5509",
").	c #ce7f50",
"_.	c #a19a94",
"`.	c #89a3b0",
"'.	c #8ca2ad",
"].	c #96a1a3",
"[.	c #ba8f72",
"{.	c #e66f30",
"}.	c #ef5202",
"|.	c #f86e01",
" X	c #ec8704",
".X	c #ce6a07",
"XX	c #bc4f23",
"oX	c #c66b5b",
"OX	c #e2b4aa",
"+X	c #dca89b",
"@X	c #bb401f",
"#X	c #cd3100",
"$X	c #ea4300",
"%X	c #dd5f1f",
"&X	c #c47249",
"*X	c #ca7346",
"=X	c #d06b37",
"-X	c #e2520c",
";X	c #e73700",
":X	c #c92d00",
">X	c #df4d00",
",X	c #fd8003",
"<X	c #f89507",
"1X	c #d46d03",
"2X	c #b94000",
"3X	c #be5430",
"4X	c #daa099",
"5X	c #f2dddb",
"6X	c #fffefe",
"7X	c #faf3f1",
"8X	c #deaa9c",
"9X	c #bb482c",
"0X	c #be360f",
"qX	c #cf3f09",
"wX	c #dd4404",
"eX	c #e14601",
"rX	c #d84306",
"tX	c #c53d0e",
"yX	c #b73a18",
"uX	c #b84429",
"iX	c #bd3810",
"pX	c #dc3d00",
"aX	c #fd6802",
"sX	c #ff9d08",
"dX	c #eb9809",
"fX	c #c95e05",
"gX	c #b43c13",
"hX	c #c97362",
"jX	c #edcfca",
"kX	c #fbf5f4",
"lX	c #e9c8c2",
"zX	c #d69686",
"xX	c #cd6e57",
"cX	c #ca4f30",
"vX	c #c64321",
"bX	c #cb5d40",
"nX	c #d48a79",
"mX	c #e0b8ae",
"MX	c #eaccc6",
"NX	c #ca7765",
"BX	c #b92704",
"VX	c #dc3f00",
"CX	c #fb6702",
"ZX	c #ff8a05",
"AX	c #f39e0a",
"SX	c #da8604",
"DX	c #bc4b0e",
"FX	c #c05845",
"GX	c #dba091",
"HX	c #faf2ef",
"JX	c #ecd2cc",
"KX	c #e2bab2",
"LX	c #deb0a7",
"PX	c #e5c5bd",
"IX	c #f5e7e4",
"UX	c #eed5cf",
"YX	c #c76f58",
"TX	c #b62a03",
"RX	c #d12d00",
"EX	c #f75a00",
"WX	c #ff8f07",
"QX	c #fda90d",
"!X	c #e08c07",
"~X	c #be4e04",
"^X	c #b84324",
"/X	c #f0dad5",
"(X	c #c46954",
")X	c #af2907",
"_X	c #cf3000",
"`X	c #f55400",
"'X	c #ff7f05",
"]X	c #ffb50e",
"[X	c #d87c08",
"{X	c #ad2400",
"}X	c #f1dbd6",
"|X	c #c46a53",
" o	c #ad2606",
".o	c #cd3400",
"Xo	c #f75701",
"oo	c #fa7c06",
"Oo	c #d35a06",
"+o	c #af2903",
"@o	c #efd6cf",
"#o	c #cb7b67",
"$o	c #b5300c",
"%o	c #c12b00",
"&o	c #c33500",
"*o	c #c14c23",
"=o	c #cd7863",
"-o	c #fdfcfb",
";o	c #dfa99b",
":o	c #b53b1d",
">o	c #a91a00",
",o	c #a71800",
"<o	c #bf563b",
"1o	c #dda597",
"2o	c #fdf9f8",
"3o	c #f9f0ee",
"4o	c #f8ecea",
"5o	c #faf2f0",
"                                                ",
"      . X o O + + @ # $ %                       ",
"      & * = - ; : > , < 1                       ",
"    2 3 4 5 6 7 8 9 0 q w e                     ",
"  2 r t y u i p a s d f g h j                   ",
"  k l z x c v b n m M N B V C %                 ",
"  Z A S D F G H J K L P I U Y T R               ",
"  E W Q ! ~ ^ / ( ) _ ` ' ] [ { }               ",
"  |  ...X.o.O.+.@.#.$.%.&.*.=.-.;.              ",
"  :.>.,.<.1.2.3.4.5.6.7.8.9.0.q.w.              ",
"  e.r.t.y.u.i.p.a.s.d.f.g.h.j.k.l.              ",
"  z.x.c.v.b.n.m.M.N.B.V.C.Z.A.S.D.              ",
"  F.G.H.J.K.L.P.I.U.Y.T.R.E.W.Q.!.e 2           ",
"  ~.^./.(.)._.`.'.].[.{.}.|. X.XXXoXOX&         ",
"    +X@X#X$X%X&X*X=X-X;X:X>X,X<X1X2X3X4X5X6X    ",
"    7X8X9X0XqXwXeXrXtXyXuXiXpXaXsXdXfXgXhXjXkX  ",
"      o lXzXxXcXvXbXnXmXMXNXBXVXCXZXAXSXDXFXGX  ",
"          HXJXKXLXPXIX    UXYXTXRXEXWXQX!X~X^X  ",
"                            /X(X)X_X`X'X]X[X{X  ",
"                              }X|X o.oXoooOo+o  ",
"                                @o#o$o%o&o*o=o  ",
"                                -o;o:o>o,o<o1o  ",
"                                  2o3o+ 4o5o2o  ",
"                                                "};
