/* XPM */
static const char * hide_xpm[] = {
"30 30 176 2",
"  	c None",
". 	c Red",
"X 	c #004274",
"o 	c #003e6d",
"O 	c #00233e",
"+ 	c #00111e",
"@ 	c #001422",
"# 	c #005696",
"$ 	c #006ec1",
"% 	c #006dbf",
"& 	c #0069b9",
"* 	c #0061ab",
"= 	c #00508c",
"- 	c #003d6b",
"; 	c #002542",
": 	c #000e18",
"> 	c #181b1d",
", 	c #001d32",
"< 	c #005ea5",
"1 	c #0066b3",
"2 	c #0066b2",
"3 	c #0067b5",
"4 	c #0069b8",
"5 	c #006cbc",
"6 	c #0062ad",
"7 	c #00508d",
"8 	c #003b66",
"9 	c #002744",
"0 	c #001524",
"q 	c #08090a",
"w 	c Gray11",
"e 	c #002948",
"r 	c #0065b1",
"t 	c #006aba",
"y 	c #006dc0",
"u 	c #0070c4",
"i 	c #003761",
"p 	c #0e0f10",
"a 	c #00345b",
"s 	c #0068b5",
"d 	c #006cbe",
"f 	c #003d6a",
"g 	c #03070b",
"h 	c #004070",
"j 	c #006bbe",
"k 	c #0068b6",
"l 	c #003b68",
"z 	c #09090a",
"x 	c #004f8b",
"c 	c #0067b6",
"v 	c #0068b7",
"b 	c #006abb",
"n 	c #00355d",
"m 	c #101314",
"M 	c #003a66",
"N 	c #031522",
"B 	c #003257",
"V 	c #0060a9",
"C 	c #006bbb",
"Z 	c #003056",
"A 	c #040608",
"S 	c #002845",
"D 	c #2c2c2c",
"F 	c #020a11",
"G 	c #002038",
"H 	c #003c69",
"J 	c #005594",
"K 	c #0067b4",
"L 	c #006bbc",
"P 	c #06080a",
"I 	c #101518",
"U 	c #00192b",
"Y 	c #003359",
"T 	c #004f8a",
"R 	c #0061aa",
"E 	c #006cbd",
"W 	c #006bba",
"Q 	c #003156",
"! 	c #040708",
"~ 	c #003e6c",
"^ 	c #0d1114",
"/ 	c #161616",
"( 	c #001321",
") 	c #002a4a",
"_ 	c #004981",
"` 	c #07090a",
"' 	c #00101c",
"] 	c #000203",
"[ 	c #03111c",
"{ 	c #272727",
"} 	c #282929",
"| 	c #00080f",
" .	c #050709",
"..	c #006ab9",
"X.	c #00233d",
"o.	c #0063ae",
"O.	c #00467b",
"+.	c #00121f",
"@.	c #1c1e1e",
"#.	c #070c10",
"$.	c #1c1d1e",
"%.	c #0062ab",
"&.	c #003157",
"*.	c #00182a",
"=.	c #0d1215",
"-.	c #050c11",
";.	c #00477c",
":.	c #004d88",
">.	c #041019",
",.	c #005290",
"<.	c #0065b2",
"1.	c #005494",
"2.	c #003a67",
"3.	c #001424",
"4.	c #0068b8",
"5.	c #0062ac",
"6.	c #001b2e",
"7.	c #00345c",
"8.	c #004b82",
"9.	c #0b0e10",
"0.	c #101315",
"q.	c #006abc",
"w.	c #121619",
"e.	c #0064af",
"r.	c #001525",
"t.	c #006cbf",
"y.	c #1d1e1e",
"u.	c #004a81",
"i.	c #002d50",
"p.	c #001d33",
"a.	c #00477b",
"s.	c #05080b",
"d.	c #002946",
"f.	c #004880",
"g.	c #252525",
"h.	c #070f16",
"j.	c #005a9e",
"k.	c #004f89",
"l.	c #01080e",
"z.	c #000d15",
"x.	c #005fa6",
"c.	c #005da4",
"v.	c #000c15",
"b.	c Gray17",
"n.	c #004376",
"m.	c #005697",
"M.	c #242425",
"N.	c #00406e",
"B.	c #002846",
"V.	c #005da3",
"C.	c #001320",
"Z.	c #004980",
"A.	c #373737",
"S.	c #00111d",
"D.	c #0060a8",
"F.	c #00192c",
"G.	c #202121",
"H.	c #000f1b",
"J.	c #00518e",
"K.	c #005595",
"L.	c #0a1015",
"P.	c #1b1c1c",
"I.	c #00223c",
"U.	c #003a65",
"Y.	c #00599c",
"T.	c #001b2f",
"R.	c #003054",
"E.	c #0a1115",
"W.	c #00243e",
"Q.	c #004982",
"!.	c #002c4d",
"~.	c #000305",
"^.	c #191919",
"/.	c #222222",
"(.	c #00080e",
").	c Gray7",
"                                                        . . ",
"                                                      . .   ",
"                      X o O +                       . .     ",
"                  @ # $ % & * = - ; : >           . .       ",
"                , < % 1 2 3 4 5 % & 6 7 8 9 0 q . .         ",
"            w e r t 1 1 1 1 1 1 1 1 3 t y u i . .           ",
"          p a & t 1 1 1 1 1 1 1 1 1 1 s d f . .             ",
"        g h j k 2 1 1 1 1 1 1 1 1 2 k d l . .     z         ",
"      + x $ c 2 1 1 1 1 1 1 1 1 1 v b n . .     m M N       ",
"      B V v d C 3 2 1 1 1 1 1 2 v t Z . .     A o u S       ",
"      D F G H J K % L 4 K 1 2 v L Z . .     P o d $ l       ",
"              I U Y T R L E L W Q . .     ! ~ d K E x ^     ",
"                    / ( ) _ < B . .     ` o E 3 1 & R '     ",
"  ] U [ {                 } | . .      .~ % K 1 1 c ..X.    ",
"    o o.O.e +.@.            . .     #.h L 3 1 1 1 1 y i $.  ",
"      t $ E %.x &.*.=.    . .     -.;.$ K 1 1 1 1 1 C :.>.  ",
"      ,.L 1 v L d <.1.2.. .       3.r 4.1 1 1 1 1 1 3 5.6.  ",
"      7.d 1 1 2 1 k C . . 8.9.    0.,.q.1 1 1 1 1 1 3 & w.  ",
"      +.e.3 1 1 1 1 . . 4 2 r.      i t.1 1 1 1 1 3 d -     ",
"      y.u.E 1 1 1 . . 1 1 E i.      p.4 K 1 1 1 1 $ a.s.    ",
"        d.C 3 1 . . 1 1 1 E f.g.    h.j.t 2 1 1 E k.l.      ",
"        z.x.C . . 1 1 1 2 & c.v.    b.n.E 1 2 y m.z.        ",
"        M.N.. . c 1 1 1 1 1 L O       B.b K C V.C.          ",
"          . . Z.o.d E k 1 1 d - A.    S.D.% 5.F.            ",
"        . .   G.H.B J.<.% & C K.L.    P.= C I.              ",
"      . .             F.U.Y.5 $ T.      R.Q b.              ",
"    . .                   E.W.Q.!.      ~.^.                ",
"  . .                         /.(.).    w                   ",
". .                                                         ",
".                                                           "};
