/* XPM */
static const char * show_xpm[] = {
"30 30 185 2",
"  	c None",
". 	c #004274",
"X 	c #003e6d",
"o 	c #00233e",
"O 	c #00111e",
"+ 	c #001422",
"@ 	c #005696",
"# 	c #006ec1",
"$ 	c #006dbf",
"% 	c #0069b9",
"& 	c #0061ab",
"* 	c #00508c",
"= 	c #003d6b",
"- 	c #002542",
"; 	c #000e18",
": 	c #181b1d",
"> 	c #001d32",
", 	c #005ea5",
"< 	c #0066b3",
"1 	c #0066b2",
"2 	c #0067b5",
"3 	c #0069b8",
"4 	c #006cbc",
"5 	c #0062ad",
"6 	c #00508d",
"7 	c #003b66",
"8 	c #002744",
"9 	c #001524",
"0 	c #08090a",
"q 	c Gray11",
"w 	c #002948",
"e 	c #0065b1",
"r 	c #006aba",
"t 	c #006dc0",
"y 	c #0070c4",
"u 	c #003761",
"i 	c #050606",
"p 	c #0e0f10",
"a 	c #00345b",
"s 	c #0068b5",
"d 	c #006cbe",
"f 	c #003d6a",
"g 	c #131619",
"h 	c #03070b",
"j 	c #004070",
"k 	c #006bbe",
"l 	c #0068b6",
"z 	c #003b68",
"x 	c #121314",
"c 	c #09090a",
"v 	c #004f8b",
"b 	c #0067b6",
"n 	c #0068b7",
"m 	c #006abb",
"M 	c #00355d",
"N 	c #131414",
"B 	c #101314",
"V 	c #003a66",
"C 	c #031522",
"Z 	c #003257",
"A 	c #0060a9",
"S 	c #006bbb",
"D 	c #003056",
"F 	c #111111",
"G 	c #040608",
"H 	c #002845",
"J 	c #2c2c2c",
"K 	c #020a11",
"L 	c #002038",
"P 	c #003c69",
"I 	c #005594",
"U 	c #0067b4",
"Y 	c #006bbc",
"T 	c #131313",
"R 	c #06080a",
"E 	c #101518",
"W 	c #00192b",
"Q 	c #003359",
"! 	c #004f8a",
"~ 	c #0061aa",
"^ 	c #006cbd",
"/ 	c #006bba",
"( 	c #003156",
") 	c #040708",
"_ 	c #003e6c",
"` 	c #0d1114",
"' 	c #161616",
"] 	c #001321",
"[ 	c #002a4a",
"{ 	c #004981",
"} 	c Gray7",
"| 	c #07090a",
" .	c #00101c",
"..	c #000203",
"X.	c #03111c",
"o.	c #272727",
"O.	c #282929",
"+.	c #00080f",
"@.	c #050709",
"#.	c #006ab9",
"$.	c #00233d",
"%.	c #0063ae",
"&.	c #00467b",
"*.	c #00121f",
"=.	c #1c1e1e",
"-.	c #070c10",
";.	c #1c1d1e",
":.	c #0062ab",
">.	c #003157",
",.	c #00182a",
"<.	c #0d1215",
"1.	c #050c11",
"2.	c #00477c",
"3.	c #004d88",
"4.	c #041019",
"5.	c #005290",
"6.	c #0065b2",
"7.	c #005494",
"8.	c #003a67",
"9.	c #001e35",
"0.	c #030b10",
"q.	c #001424",
"w.	c #0068b8",
"e.	c #0062ac",
"r.	c #001b2e",
"t.	c #00345c",
"y.	c #004b82",
"u.	c #0b0e10",
"i.	c #101315",
"p.	c #006abc",
"a.	c #121619",
"s.	c #0064af",
"d.	c #001525",
"f.	c #006cbf",
"g.	c #1d1e1e",
"h.	c #004a81",
"j.	c #002d50",
"k.	c #001d33",
"l.	c #00477b",
"z.	c #05080b",
"x.	c #002946",
"c.	c #004880",
"v.	c #252525",
"b.	c #070f16",
"n.	c #005a9e",
"m.	c #004f89",
"M.	c #01080e",
"N.	c #000d15",
"B.	c #005fa6",
"V.	c #005da4",
"C.	c #000c15",
"Z.	c Gray17",
"A.	c #004376",
"S.	c #005697",
"D.	c #242425",
"F.	c #00406e",
"G.	c #006fc3",
"H.	c #002846",
"J.	c #005da3",
"K.	c #001320",
"L.	c #00080e",
"P.	c #002643",
"I.	c #004980",
"U.	c #373737",
"Y.	c #00111d",
"T.	c #0060a8",
"R.	c #00192c",
"E.	c #202121",
"W.	c #000f1b",
"Q.	c #00518e",
"!.	c #005595",
"~.	c #0a1015",
"^.	c #1b1c1c",
"/.	c #00223c",
"(.	c #003a65",
").	c #00599c",
"_.	c #001b2f",
"`.	c #003054",
"'.	c #0a1115",
"].	c #00243e",
"[.	c #004982",
"{.	c #002c4d",
"}.	c #000305",
"|.	c #191919",
" X	c #222222",
"                                                            ",
"                                                            ",
"                      . X o O                               ",
"                  + @ # $ % & * = - ; :                     ",
"                > , $ < 1 2 3 4 $ % 5 6 7 8 9 0             ",
"            q w e r < < < < < < < < 2 r t y u i             ",
"          p a % r < < < < < < < < < < s d f g               ",
"        h j k l 1 < < < < < < < < 1 l d z x       c         ",
"      O v # b 1 < < < < < < < < < n m M N       B V C       ",
"      Z A n d S 2 1 < < < < < 1 n r D F       G X y H       ",
"      J K L P I U $ Y 3 U < 1 n Y D T       R X d # z       ",
"              E W Q ! ~ Y ^ Y / ( F       ) _ d U ^ v `     ",
"                    ' ] [ { , Z }       | X ^ 2 < % ~  .    ",
"  ..W X.o.                O.+.F       @._ $ U < < b #.$.    ",
"    X %.&.w *.=.                    -.j Y 2 < < < < t u ;.  ",
"      r # ^ :.v >.,.<.            1.2.# U < < < < < S 3.4.  ",
"      5.Y < n Y d 6.7.8.9.0.      q.e w.< < < < < < 2 e.r.  ",
"      t.d < < 1 < l S d $ y.u.    i.5.p.< < < < < < 2 % a.  ",
"      *.s.2 < < < < < < 3 1 d.      u f.< < < < < 2 d =     ",
"      g.h.^ < < < < < < < ^ j.      k.3 U < < < < # l.z.    ",
"        x.S 2 < < < < < < ^ c.v.    b.n.r 1 < < ^ m.M.      ",
"        N.B.S < < < < < 1 % V.C.    Z.A.^ < 1 t S.N.        ",
"        D.F.G.4 b < < < < < Y o       H.m U S J.K.          ",
"          L.P.I.%.d ^ l < < d = U.    Y.T.$ e.R.            ",
"              E.W.Z Q.6.$ % S !.~.    ^.* S /.              ",
"                      R.(.).4 # _.      `.( Z.              ",
"                          '.].[.{.      }.|.                ",
"                               XL.}     q                   ",
"                                                            ",
"                                                            "};
