/* XPM */
static const char * toggle_xpm[] = {
"30 30 258 2",
"  	c None",
". 	c #ffe8e8",
"X 	c #fffffd",
"o 	c #f0eaea",
"O 	c #fffbf6",
"+ 	c #ffa3a3",
"@ 	c #ff5353",
"# 	c #bac0c4",
"$ 	c #487fb0",
"% 	c #0f4e89",
"& 	c #48799f",
"* 	c #8099ae",
"= 	c #8b9398",
"- 	c #eae9e8",
"; 	c #efeeee",
": 	c #fefefe",
"> 	c #e7f0f0",
", 	c #fd9e9e",
"< 	c #ff4949",
"1 	c #fff0f0",
"2 	c #fbf6f2",
"3 	c #858f97",
"4 	c #055490",
"5 	c #005fb2",
"6 	c #0069ba",
"7 	c #0062b4",
"8 	c #0056a5",
"9 	c #005097",
"0 	c #0a538e",
"q 	c #203241",
"w 	c #fcf9f6",
"e 	c #004f96",
"r 	c #055d98",
"t 	c #5e101e",
"y 	c #ff504d",
"u 	c #fff7f7",
"i 	c #f0eeed",
"p 	c #506475",
"a 	c #004489",
"s 	c #0069bb",
"d 	c #0066b3",
"f 	c #0069b7",
"g 	c #0067bb",
"h 	c #063e6d",
"j 	c #c3c4c4",
"k 	c #c1c0be",
"l 	c #e9e9e8",
"z 	c #0068b7",
"x 	c #006fc3",
"c 	c #492756",
"v 	c #fe5354",
"b 	c #c1c0bd",
"n 	c #e9ecec",
"m 	c #7f8f9a",
"M 	c #003076",
"N 	c #0065bb",
"B 	c #0069b8",
"V 	c #0066b4",
"C 	c #0068b6",
"Z 	c #0063b6",
"A 	c #0a375f",
"S 	c #cbc8c4",
"D 	c #c7c6c3",
"F 	c #042a53",
"G 	c #889dad",
"H 	c #0068b5",
"J 	c #006cbe",
"K 	c #4d224a",
"L 	c #ff5651",
"P 	c #bab6b4",
"I 	c #04315a",
"U 	c #d8d8d9",
"Y 	c #89929e",
"T 	c #4f7593",
"R 	c #0e4d81",
"E 	c #004f95",
"W 	c #005fb0",
"Q 	c #0065b7",
"! 	c #0b375e",
"~ 	c #cbc7c2",
"^ 	c #c7c5c1",
"/ 	c #073966",
"( 	c #005fb5",
") 	c #49708e",
"_ 	c #f9f6f4",
"` 	c #006dbf",
"' 	c #4d2148",
"] 	c #ff5550",
"[ 	c #b9b5b2",
"{ 	c #07416d",
"} 	c #005eb5",
"| 	c #faf7f5",
" .	c #c5c6c7",
"..	c #80878c",
"X.	c #d1cfcd",
"o.	c #f5eae2",
"O.	c #faf2ec",
"+.	c #959ca1",
"@.	c #51728c",
"#.	c #143451",
"$.	c #c7c5c2",
"%.	c #083a66",
"&.	c #006bbe",
"*.	c #074573",
"=.	c #f1ede9",
"-.	c #c9cacb",
";.	c #959ba0",
":.	c #487993",
">.	c #491d39",
",.	c #ff5552",
"<.	c #bab6b2",
"1.	c #08416d",
"2.	c #eae5e1",
"3.	c #e8e8e9",
"4.	c #3572a1",
"5.	c #014989",
"6.	c #1e4f74",
"7.	c #7f8e9e",
"8.	c #cbcbca",
"9.	c #f5ede6",
"0.	c #f9f4ef",
"q.	c #c1c2c3",
"w.	c #083c6b",
"e.	c #0067b5",
"r.	c #006aba",
"t.	c #014686",
"y.	c #8e9397",
"u.	c #efefef",
"i.	c #c1d7da",
"p.	c #ffada7",
"a.	c #ff5852",
"s.	c #b9babb",
"d.	c #084372",
"f.	c #0065b6",
"g.	c #8a8f93",
"h.	c #86a9c5",
"j.	c #005bb1",
"k.	c #0067b9",
"l.	c #0053a1",
"z.	c #005496",
"x.	c #19446b",
"c.	c #cfcfce",
"v.	c #8d969c",
"b.	c #004e99",
"n.	c #006ab9",
"m.	c #00539f",
"M.	c #87939d",
"N.	c #005bae",
"B.	c #5b3257",
"V.	c #b4101c",
"C.	c #c5cecf",
"Z.	c #8b9ba2",
"A.	c #87949d",
"S.	c #8c9499",
"D.	c #014e94",
"F.	c #006abb",
"G.	c #0053a3",
"H.	c #798c9b",
"J.	c #f8f4f0",
"K.	c #0c538a",
"L.	c #0068ba",
"P.	c #0067b3",
"I.	c #0064b7",
"U.	c #0e4977",
"Y.	c #ebe9e7",
"T.	c #0070c5",
"R.	c #5e4375",
"E.	c #b51f38",
"W.	c #014e99",
"Q.	c #7590a0",
"!.	c #f8f4ef",
"~.	c #064675",
"^.	c #006cc2",
"/.	c #0066b8",
"(.	c #225174",
").	c #f1e6de",
"_.	c #234e6f",
"`.	c #064479",
"'.	c #b3b3b2",
"].	c #fffffe",
"[.	c #eae5e2",
"{.	c #004d7e",
"}.	c #58447c",
"|.	c #b71e34",
" X	c #0d64af",
".X	c #0069be",
"XX	c #225173",
"oX	c #fbf8f6",
"OX	c #566977",
"+X	c #014581",
"@X	c #0052a0",
"#X	c #0062b5",
"$X	c #006cc0",
"%X	c #054b84",
"&X	c #d2ceca",
"*X	c #7f909c",
"=X	c #0054a5",
"-X	c #0c5491",
";X	c #b3b8bb",
":X	c #f9ffff",
">X	c #954f58",
",X	c #aa091a",
"<X	c #0065ba",
"1X	c #006bc0",
"2X	c #fefcfa",
"3X	c #bebab9",
"4X	c #808e9d",
"5X	c #487ca4",
"6X	c #005194",
"7X	c #00438e",
"8X	c #8c99a4",
"9X	c #d1d2d2",
"0X	c #002958",
"qX	c #85949f",
"wX	c #ffa2a2",
"eX	c #ff5d5b",
"rX	c #c1b6b8",
"tX	c #7c92a3",
"yX	c #fffbf7",
"uX	c #babbbd",
"iX	c #4c5b74",
"pX	c #566571",
"aX	c #f2efee",
"sX	c #686a6a",
"dX	c #f4f2f0",
"fX	c #fffefe",
"gX	c #ff9f9f",
"hX	c #ff4848",
"jX	c #fff1f1",
"kX	c #fffffc",
"lX	c #e8e7e6",
"zX	c Gray98",
"xX	c #ff5959",
"cX	c #fff2f2",
"vX	c #fffcfc",
"bX	c #c2dbed",
"nX	c #eff5fa",
"mX	c #aecfe7",
"MX	c #106fb7",
"NX	c #fbfdfe",
"BX	c #fdfefe",
"VX	c #a8cbe5",
"CX	c #0464b2",
"ZX	c #74acd5",
"AX	c #7bb0d8",
"SX	c #f8fbfd",
"DX	c #4c94ca",
"FX	c #0057ac",
"GX	c #0065b2",
"HX	c #f7fafc",
"JX	c #4890c8",
"KX	c #0064b1",
"LX	c #e2edf6",
"PX	c #f0f6fa",
"IX	c #f6fafd",
"UX	c #5b9dce",
"YX	c #ebf3f9",
"TX	c #fcfdfe",
"                                                            ",
"                                                          . ",
"          X o O                         X o O           + @ ",
"        # $ % & * = - ; :             # $ % & * = - > , < 1 ",
"    2 3 4 5 6 7 8 9 0 q w         2 3 4 5 6 7 8 e r t y u   ",
"  i p a s d d d f g h j k l     i p a s d d d z x c v b n   ",
"  m M N 6 B V C Z A S D F G     m M N 6 B V H J K L P I G   ",
"  U Y T R E W Q ! ~ ^ / ( ) _   U Y T R E W ` ' ] [ { } ) | ",
" ...X.o.O.+.@.#.$.$.%.Q &.*.=.-...X.o.O.;.:.>.,.<.1.Q &.*.2.",
"3.4.5.6.7.8.9.0.q.w.Q e.r.t.y.u.4.5.6.7.i.p.a.s.d.f.e.r.t.g.",
"  h.j.k.l.z.x.c.v.b.n.d z m.M.  h.j.k.N.B.V.C.Z.b.n.d z m.A.",
"  S.D.B e.F.G.H.J.K.L.P.I.U.Y.  S.D.T.R.E.W.Q.!.K.L.P.I.U.Y.",
"  2.~.^.e.d /.(.)._./.k.`.'.].  [.{.}.|. X.XXX)._./.k.`.'.].",
"  oXOX+X@X#X$X%X&X*X=X-X;X      :X>X,Xb.<X1X%X&X*X=X-X;X    ",
"    2X3X4X5X6X7X8X9X0XqX        wXeXrXtX5X6X7X8X9X0XqX      ",
"          yXuXiXpXaXsXdX    fXgXhXjX    yXuXiXpXaXsXdX      ",
"              kXlXzX        . xXcX          kXlXzX          ",
"                            vX                              ",
"                                                            ",
"                                                            ",
"                                                            ",
"                bXnX                    nXbX                ",
"              mXMXNX                    NXMXmX              ",
"          BXVXCXd ZXAXAXAXAXAXAXAXAXAXAXZXd CXVXBX          ",
"          SXDXFXd GXGXGXGXGXGXGXGXGXGXGXGXd FXDXSX          ",
"            HXJXKXLXPXPXPXPXPXPXPXPXPXPXLXKXJXHX            ",
"              IXUXYX                    YXUXIX              ",
"                  TX                    TX                  ",
"                                                            ",
"                                                            "};
