/* XPM */
static const char * wireoff_xpm[] = {
"30 32 85 1",
" 	c None",
".	c Black",
"X	c #00233e",
"o	c #00111e",
"O	c #001422",
"+	c #002542",
"@	c #000e18",
"#	c #181b1d",
"$	c #002744",
"%	c #001524",
"&	c #08090a",
"*	c Gray11",
"=	c #050606",
"-	c #0e0f10",
";	c #131619",
":	c #03070b",
">	c #121314",
",	c #131414",
"<	c #031522",
"1	c #111111",
"2	c #2c2c2c",
"3	c #020a11",
"4	c #002038",
"5	c #003c69",
"6	c #131313",
"7	c #101518",
"8	c #00192b",
"9	c #003359",
"0	c #0d1114",
"q	c #161616",
"w	c #001321",
"e	c #002a4a",
"r	c Gray7",
"t	c #00101c",
"y	c #03111c",
"u	c #272727",
"i	c #282929",
"p	c #00080f",
"a	c #00233d",
"s	c #002948",
"d	c #00121f",
"f	c #1c1e1e",
"g	c #1c1d1e",
"h	c #003157",
"j	c #00182a",
"k	c #0d1215",
"l	c #041019",
"z	c #003a67",
"x	c #001e35",
"c	c #030b10",
"v	c #001424",
"b	c #001b2e",
"n	c #00345c",
"m	c #0b0e10",
"M	c #101315",
"N	c #121619",
"B	c #001525",
"V	c #003761",
"C	c #1d1e1e",
"Z	c #002d50",
"A	c #001d33",
"S	c #05080b",
"D	c #252525",
"F	c #070f16",
"G	c #000c15",
"H	c Gray17",
"J	c #242425",
"K	c #002846",
"L	c #00080e",
"P	c #002643",
"I	c #373737",
"U	c #00111d",
"Y	c #000f1b",
"T	c #003257",
"R	c #0a1015",
"E	c #1b1c1c",
"W	c #00192c",
"Q	c #003a65",
"!	c #001b2f",
"~	c #003054",
"^	c #0a1115",
"/	c #00243e",
"(	c #002c4d",
")	c #000305",
"_	c #222222",
"                              ",
"                              ",
"           ..Xo               ",
"        .O.......+@#          ",
"       ..............$%&      ",
"      *................=      ",
"     -................;       ",
"    :................>        ",
"   o................,    .<   ",
"  .................1    ...   ",
"   2345...........6    ....   ",
"       789.......1    .....0  ",
"          qwe...r    ......t  ",
"  8yu        ip1    .......a  ",
"  ...sdf           .........g ",
"  ......hjk       ..........l ",
"  .........zxc   v..........b ",
"   n..........m  M..........N ",
"   d..........B   V.........  ",
"   C..........Z   A........S  ",
"    ...........D  F........   ",
"    ...........G  H.......    ",
"    J..........X   K.....     ",
"     LP.........I  U....      ",
"        YT......R  E...       ",
"           WQ...!   ~.H       ",
"             ^/.(   ).        ",
"               _L   .         ",
"                              ",
"                              ",
"                              ",
"                              "};
