/* XPM */
static const char * stop[] = {
"16 16 10 1",
" 	c None",
".	c #9C0000",
"+	c #CE6563",
"@	c #FF6563",
"#	c #CE0000",
"$	c #000000",
"%	c #FF9A31",
"&	c #FF6500",
"*	c #FF0031",
"=	c #FFFFFF",
"     ......     ",
"   ..+@@@@#$$   ",
"  .+@%%&&***#$  ",
" .+%%&&******.$ ",
" .@%&********#$ ",
".+%&*==**==**#.$",
".@%&**====***#.$",
".@%****==****#.$",
".@%***====***#.$",
".@%**==**==*##.$",
".@&*********#..$",
" .&********##.$ ",
" .#&*****###..$ ",
"  .#######...$  ",
"   $$......$$   ",
"     $$$$$$     "};
