/* XPM */
static char *master2[]={
"26 32 2 1",
". c None",
"# c #808080",
"..........................",
"..........................",
"..........................",
"..........................",
"..........................",
"..........................",
"..........................",
"..........................",
".....###.........###......",
".....####.......####......",
".....#####.....#####......",
".....######...######......",
".....#######.#######......",
".....###############......",
".....###.#######.###......",
".....###..#####..###......",
".....###...###...###......",
".....###....#....###......",
".....###.........###......",
".....###.........###......",
".....###.........###......",
".....###.........###......",
".....###.........###......",
"..........................",
"..........................",
"..........................",
"..........................",
"..........................",
"..........................",
"..........................",
"..........................",
".........................."};
